<mxfile host="app.diagrams.net" modified="2023-10-03T20:12:33.799Z" agent="Mozilla/5.0 (Windows NT 10.0; Win64; x64) AppleWebKit/537.36 (KHTML, like Gecko) Chrome/116.0.0.0 Safari/537.36 OPR/102.0.0.0" etag="kWkgqgHJY8cUWifY1emZ" version="21.8.2" type="github">
  <diagram name="Page-1" id="2cc2dc42-3aac-f2a9-1cec-7a8b7cbee084">
    <mxGraphModel dx="1437" dy="903" grid="1" gridSize="10" guides="1" tooltips="1" connect="1" arrows="1" fold="1" page="1" pageScale="1" pageWidth="1100" pageHeight="850" background="none" math="0" shadow="0">
      <root>
        <mxCell id="0" />
        <mxCell id="1" parent="0" />
        <mxCell id="7026571954dc6520-1" value="" style="strokeWidth=1;shadow=0;dashed=0;align=center;html=1;shape=mxgraph.mockup.containers.browserWindow;rSize=0;strokeColor=#666666;mainText=,;recursiveResize=0;rounded=0;labelBackgroundColor=none;fontFamily=Verdana;fontSize=12" parent="1" vertex="1">
          <mxGeometry x="20" y="100" width="1145" height="1255.42" as="geometry" />
        </mxCell>
        <mxCell id="FV-xaeg1GRg3uDKNsEzi-14" value="" style="rounded=1;whiteSpace=wrap;html=1;fontSize=16;" vertex="1" parent="7026571954dc6520-1">
          <mxGeometry x="92" y="300" width="458" height="270" as="geometry" />
        </mxCell>
        <mxCell id="7026571954dc6520-2" value="Page 1" style="strokeWidth=1;shadow=0;dashed=0;align=center;html=1;shape=mxgraph.mockup.containers.anchor;fontSize=17;fontColor=#666666;align=left;" parent="7026571954dc6520-1" vertex="1">
          <mxGeometry x="60" y="12" width="110" height="26" as="geometry" />
        </mxCell>
        <mxCell id="7026571954dc6520-3" value="https://www.default.com" style="strokeWidth=1;shadow=0;dashed=0;align=center;html=1;shape=mxgraph.mockup.containers.anchor;rSize=0;fontSize=17;fontColor=#666666;align=left;" parent="7026571954dc6520-1" vertex="1">
          <mxGeometry x="130" y="60" width="250" height="26" as="geometry" />
        </mxCell>
        <mxCell id="7026571954dc6520-4" value="Website Name" style="text;html=1;points=[];align=left;verticalAlign=top;spacingTop=-4;fontSize=30;fontFamily=Verdana" parent="7026571954dc6520-1" vertex="1">
          <mxGeometry x="30" y="140" width="340" height="50" as="geometry" />
        </mxCell>
        <mxCell id="7026571954dc6520-14" value="Search" style="strokeWidth=1;shadow=0;dashed=0;align=center;html=1;shape=mxgraph.mockup.forms.searchBox;strokeColor=#999999;mainText=;strokeColor2=#008cff;fontColor=#666666;fontSize=17;align=left;spacingLeft=3;rounded=0;labelBackgroundColor=none;" parent="7026571954dc6520-1" vertex="1">
          <mxGeometry x="362" y="765" width="220" height="30" as="geometry" />
        </mxCell>
        <mxCell id="7026571954dc6520-15" value="" style="verticalLabelPosition=bottom;shadow=0;dashed=0;align=center;html=1;verticalAlign=top;strokeWidth=1;shape=mxgraph.mockup.markup.line;strokeColor=#999999;rounded=0;labelBackgroundColor=none;fillColor=#ffffff;fontFamily=Verdana;fontSize=12;fontColor=#000000;" parent="7026571954dc6520-1" vertex="1">
          <mxGeometry x="15" y="115" width="1050" height="20" as="geometry" />
        </mxCell>
        <mxCell id="7026571954dc6520-18" value="Button 1" style="strokeWidth=1;shadow=0;dashed=0;align=center;html=1;shape=mxgraph.mockup.buttons.button;strokeColor=#666666;mainText=;buttonStyle=round;fontSize=17;fontStyle=0;fillColor=none;whiteSpace=wrap;rounded=0;labelBackgroundColor=none;" parent="7026571954dc6520-1" vertex="1">
          <mxGeometry x="815" y="775" width="190" height="30" as="geometry" />
        </mxCell>
        <mxCell id="7026571954dc6520-19" value="Button 2" style="strokeWidth=1;shadow=0;dashed=0;align=center;html=1;shape=mxgraph.mockup.buttons.button;strokeColor=#666666;mainText=;buttonStyle=round;fontSize=17;fontStyle=0;fillColor=none;whiteSpace=wrap;rounded=0;labelBackgroundColor=none;" parent="7026571954dc6520-1" vertex="1">
          <mxGeometry x="595" y="765" width="190" height="30" as="geometry" />
        </mxCell>
        <mxCell id="7026571954dc6520-22" value="" style="verticalLabelPosition=bottom;shadow=0;dashed=0;align=center;html=1;verticalAlign=top;strokeWidth=1;shape=mxgraph.mockup.graphics.simpleIcon;strokeColor=#999999;fillColor=#ffffff;rounded=0;labelBackgroundColor=none;fontFamily=Verdana;fontSize=12;fontColor=#000000;" parent="7026571954dc6520-1" vertex="1">
          <mxGeometry x="15" y="610" width="200" height="200" as="geometry" />
        </mxCell>
        <mxCell id="FV-xaeg1GRg3uDKNsEzi-1" value="" style="verticalLabelPosition=bottom;shadow=0;dashed=0;align=center;html=1;verticalAlign=top;strokeWidth=1;shape=mxgraph.mockup.graphics.columnChart;strokeColor=none;strokeColor2=none;strokeColor3=#666666;fillColor2=#008cff;fillColor3=#dddddd;fontSize=16;" vertex="1" parent="7026571954dc6520-1">
          <mxGeometry x="120" y="340" width="400" height="200" as="geometry" />
        </mxCell>
        <mxCell id="FV-xaeg1GRg3uDKNsEzi-4" style="edgeStyle=none;curved=1;rounded=0;orthogonalLoop=1;jettySize=auto;html=1;exitX=0.75;exitY=0;exitDx=0;exitDy=0;fontSize=12;startSize=8;endSize=8;" edge="1" parent="7026571954dc6520-1">
          <mxGeometry relative="1" as="geometry">
            <mxPoint x="425.0000000000002" y="330" as="sourcePoint" />
            <mxPoint x="425.0000000000002" y="330" as="targetPoint" />
          </mxGeometry>
        </mxCell>
        <mxCell id="FV-xaeg1GRg3uDKNsEzi-6" value="Mon" style="text;html=1;align=center;verticalAlign=middle;resizable=0;points=[];autosize=1;strokeColor=none;fillColor=none;fontSize=16;" vertex="1" parent="7026571954dc6520-1">
          <mxGeometry x="185" y="540" width="50" height="30" as="geometry" />
        </mxCell>
        <mxCell id="FV-xaeg1GRg3uDKNsEzi-7" value="Level ะก&lt;br&gt;46.3 kWh" style="rounded=1;whiteSpace=wrap;html=1;fontSize=16;" vertex="1" parent="7026571954dc6520-1">
          <mxGeometry x="380" y="310" width="75" height="35" as="geometry" />
        </mxCell>
        <mxCell id="FV-xaeg1GRg3uDKNsEzi-9" value="Tue" style="text;html=1;align=center;verticalAlign=middle;resizable=0;points=[];autosize=1;strokeColor=none;fillColor=none;fontSize=16;" vertex="1" parent="7026571954dc6520-1">
          <mxGeometry x="290" y="540" width="50" height="30" as="geometry" />
        </mxCell>
        <mxCell id="FV-xaeg1GRg3uDKNsEzi-10" value="Wed" style="text;html=1;align=center;verticalAlign=middle;resizable=0;points=[];autosize=1;strokeColor=none;fillColor=none;fontSize=16;" vertex="1" parent="7026571954dc6520-1">
          <mxGeometry x="387.5" y="540" width="60" height="30" as="geometry" />
        </mxCell>
        <mxCell id="FV-xaeg1GRg3uDKNsEzi-11" value="&lt;h1&gt;Energy consumption&lt;/h1&gt;" style="text;html=1;strokeColor=none;fillColor=none;spacing=5;spacingTop=-20;whiteSpace=wrap;overflow=hidden;rounded=0;fontSize=16;" vertex="1" parent="7026571954dc6520-1">
          <mxGeometry x="112" y="210" width="215" height="120" as="geometry" />
        </mxCell>
        <mxCell id="FV-xaeg1GRg3uDKNsEzi-15" value="" style="ellipse;whiteSpace=wrap;html=1;aspect=fixed;fontSize=16;" vertex="1" parent="7026571954dc6520-1">
          <mxGeometry x="755" y="230" width="195" height="195" as="geometry" />
        </mxCell>
        <mxCell id="FV-xaeg1GRg3uDKNsEzi-16" value="&lt;h1&gt;120 kWh&lt;br&gt;&lt;/h1&gt;" style="text;html=1;strokeColor=none;fillColor=none;spacing=5;spacingTop=-20;whiteSpace=wrap;overflow=hidden;rounded=0;fontSize=16;" vertex="1" parent="7026571954dc6520-1">
          <mxGeometry x="785" y="300" width="190" height="120" as="geometry" />
        </mxCell>
        <mxCell id="FV-xaeg1GRg3uDKNsEzi-18" value="&lt;h1&gt;&amp;lt;&lt;/h1&gt;" style="text;html=1;strokeColor=none;fillColor=none;spacing=5;spacingTop=-20;whiteSpace=wrap;overflow=hidden;rounded=0;fontSize=16;" vertex="1" parent="7026571954dc6520-1">
          <mxGeometry x="755" y="420" width="105" height="65" as="geometry" />
        </mxCell>
        <mxCell id="FV-xaeg1GRg3uDKNsEzi-19" value="&lt;h1&gt;&amp;gt;&lt;/h1&gt;" style="text;html=1;strokeColor=none;fillColor=none;spacing=5;spacingTop=-20;whiteSpace=wrap;overflow=hidden;rounded=0;fontSize=16;" vertex="1" parent="7026571954dc6520-1">
          <mxGeometry x="915" y="420" width="190" height="120" as="geometry" />
        </mxCell>
        <mxCell id="FV-xaeg1GRg3uDKNsEzi-21" value="&lt;h1&gt;July&lt;/h1&gt;" style="text;html=1;strokeColor=none;fillColor=none;spacing=5;spacingTop=-20;whiteSpace=wrap;overflow=hidden;rounded=0;fontSize=16;" vertex="1" parent="7026571954dc6520-1">
          <mxGeometry x="815" y="420" width="95" height="60" as="geometry" />
        </mxCell>
        <mxCell id="FV-xaeg1GRg3uDKNsEzi-25" value="" style="verticalLabelPosition=bottom;verticalAlign=top;html=1;shape=mxgraph.basic.flash;fontSize=16;" vertex="1" parent="7026571954dc6520-1">
          <mxGeometry x="765" y="310" width="20" height="30" as="geometry" />
        </mxCell>
        <mxCell id="FV-xaeg1GRg3uDKNsEzi-27" value="" style="swimlane;startSize=0;fontSize=16;" vertex="1" parent="7026571954dc6520-1">
          <mxGeometry x="620" y="135" width="460" height="355" as="geometry" />
        </mxCell>
        <mxCell id="FV-xaeg1GRg3uDKNsEzi-28" value="" style="verticalLabelPosition=bottom;shadow=0;dashed=0;align=center;html=1;verticalAlign=top;strokeWidth=1;shape=mxgraph.mockup.graphics.columnChart;strokeColor=none;strokeColor2=none;strokeColor3=#666666;fillColor2=#008cff;fillColor3=#dddddd;fontSize=16;" vertex="1" parent="FV-xaeg1GRg3uDKNsEzi-27">
          <mxGeometry x="15" y="10" width="35" height="40" as="geometry" />
        </mxCell>
        <mxCell id="FV-xaeg1GRg3uDKNsEzi-26" value="&lt;h1&gt;Compare consumption&lt;/h1&gt;" style="text;html=1;strokeColor=none;fillColor=none;spacing=5;spacingTop=-20;whiteSpace=wrap;overflow=hidden;rounded=0;fontSize=16;" vertex="1" parent="FV-xaeg1GRg3uDKNsEzi-27">
          <mxGeometry x="50" y="5" width="410" height="85" as="geometry" />
        </mxCell>
        <mxCell id="FV-xaeg1GRg3uDKNsEzi-29" value="LEVEL A" style="rounded=1;whiteSpace=wrap;html=1;fontSize=16;" vertex="1" parent="7026571954dc6520-1">
          <mxGeometry x="620" y="505" width="165" height="55" as="geometry" />
        </mxCell>
        <mxCell id="FV-xaeg1GRg3uDKNsEzi-30" value="LEVEL A" style="rounded=1;whiteSpace=wrap;html=1;fontSize=16;" vertex="1" parent="7026571954dc6520-1">
          <mxGeometry x="620" y="560" width="165" height="55" as="geometry" />
        </mxCell>
        <mxCell id="FV-xaeg1GRg3uDKNsEzi-31" value="" style="strokeWidth=1;shadow=0;dashed=0;align=center;html=1;shape=mxgraph.mockup.containers.browserWindow;rSize=0;strokeColor=#666666;mainText=,;recursiveResize=0;rounded=0;labelBackgroundColor=none;fontFamily=Verdana;fontSize=12" vertex="1" parent="7026571954dc6520-1">
          <mxGeometry x="7.5" y="38" width="1130" height="1217.42" as="geometry" />
        </mxCell>
        <mxCell id="FV-xaeg1GRg3uDKNsEzi-69" value="" style="whiteSpace=wrap;html=1;aspect=fixed;fontSize=16;fillColor=#dae8fc;strokeColor=#6c8ebf;" vertex="1" parent="FV-xaeg1GRg3uDKNsEzi-31">
          <mxGeometry x="800" y="677.42" width="50.15" height="50.15" as="geometry" />
        </mxCell>
        <mxCell id="FV-xaeg1GRg3uDKNsEzi-33" value="Page 1" style="strokeWidth=1;shadow=0;dashed=0;align=center;html=1;shape=mxgraph.mockup.containers.anchor;fontSize=17;fontColor=#666666;align=left;" vertex="1" parent="FV-xaeg1GRg3uDKNsEzi-31">
          <mxGeometry x="60" y="12" width="110" height="26" as="geometry" />
        </mxCell>
        <mxCell id="FV-xaeg1GRg3uDKNsEzi-34" value="https://www.default.com" style="strokeWidth=1;shadow=0;dashed=0;align=center;html=1;shape=mxgraph.mockup.containers.anchor;rSize=0;fontSize=17;fontColor=#666666;align=left;" vertex="1" parent="FV-xaeg1GRg3uDKNsEzi-31">
          <mxGeometry x="130" y="60" width="250" height="26" as="geometry" />
        </mxCell>
        <mxCell id="FV-xaeg1GRg3uDKNsEzi-37" value="" style="verticalLabelPosition=bottom;shadow=0;dashed=0;align=center;html=1;verticalAlign=top;strokeWidth=1;shape=mxgraph.mockup.markup.line;strokeColor=#999999;rounded=0;labelBackgroundColor=none;fillColor=#ffffff;fontFamily=Verdana;fontSize=12;fontColor=#000000;" vertex="1" parent="FV-xaeg1GRg3uDKNsEzi-31">
          <mxGeometry x="15" y="115" width="1050" height="20" as="geometry" />
        </mxCell>
        <mxCell id="FV-xaeg1GRg3uDKNsEzi-42" style="edgeStyle=none;curved=1;rounded=0;orthogonalLoop=1;jettySize=auto;html=1;exitX=0.75;exitY=0;exitDx=0;exitDy=0;fontSize=12;startSize=8;endSize=8;" edge="1" parent="FV-xaeg1GRg3uDKNsEzi-31">
          <mxGeometry relative="1" as="geometry">
            <mxPoint x="425.0000000000002" y="330" as="sourcePoint" />
            <mxPoint x="425.0000000000002" y="330" as="targetPoint" />
          </mxGeometry>
        </mxCell>
        <mxCell id="FV-xaeg1GRg3uDKNsEzi-48" value="" style="ellipse;whiteSpace=wrap;html=1;aspect=fixed;fontSize=16;" vertex="1" parent="FV-xaeg1GRg3uDKNsEzi-31">
          <mxGeometry x="755" y="230" width="195" height="195" as="geometry" />
        </mxCell>
        <mxCell id="FV-xaeg1GRg3uDKNsEzi-49" value="&lt;h1&gt;120 kWh&lt;br&gt;&lt;/h1&gt;" style="text;html=1;strokeColor=none;fillColor=none;spacing=5;spacingTop=-20;whiteSpace=wrap;overflow=hidden;rounded=0;fontSize=16;" vertex="1" parent="FV-xaeg1GRg3uDKNsEzi-31">
          <mxGeometry x="785" y="300" width="190" height="120" as="geometry" />
        </mxCell>
        <mxCell id="FV-xaeg1GRg3uDKNsEzi-50" value="&lt;h1&gt;&amp;lt;&lt;/h1&gt;" style="text;html=1;strokeColor=none;fillColor=none;spacing=5;spacingTop=-20;whiteSpace=wrap;overflow=hidden;rounded=0;fontSize=16;" vertex="1" parent="FV-xaeg1GRg3uDKNsEzi-31">
          <mxGeometry x="755" y="420" width="105" height="65" as="geometry" />
        </mxCell>
        <mxCell id="FV-xaeg1GRg3uDKNsEzi-51" value="&lt;h1&gt;&amp;gt;&lt;/h1&gt;" style="text;html=1;strokeColor=none;fillColor=none;spacing=5;spacingTop=-20;whiteSpace=wrap;overflow=hidden;rounded=0;fontSize=16;" vertex="1" parent="FV-xaeg1GRg3uDKNsEzi-31">
          <mxGeometry x="915" y="420" width="190" height="120" as="geometry" />
        </mxCell>
        <mxCell id="FV-xaeg1GRg3uDKNsEzi-52" value="&lt;h1&gt;July&lt;/h1&gt;" style="text;html=1;strokeColor=none;fillColor=none;spacing=5;spacingTop=-20;whiteSpace=wrap;overflow=hidden;rounded=0;fontSize=16;" vertex="1" parent="FV-xaeg1GRg3uDKNsEzi-31">
          <mxGeometry x="815" y="420" width="95" height="60" as="geometry" />
        </mxCell>
        <mxCell id="FV-xaeg1GRg3uDKNsEzi-53" value="" style="verticalLabelPosition=bottom;verticalAlign=top;html=1;shape=mxgraph.basic.flash;fontSize=16;" vertex="1" parent="FV-xaeg1GRg3uDKNsEzi-31">
          <mxGeometry x="765" y="310" width="20" height="30" as="geometry" />
        </mxCell>
        <mxCell id="FV-xaeg1GRg3uDKNsEzi-54" value="" style="swimlane;startSize=0;fontSize=16;" vertex="1" parent="FV-xaeg1GRg3uDKNsEzi-31">
          <mxGeometry x="620" y="135" width="460" height="355" as="geometry" />
        </mxCell>
        <mxCell id="FV-xaeg1GRg3uDKNsEzi-55" value="" style="verticalLabelPosition=bottom;shadow=0;dashed=0;align=center;html=1;verticalAlign=top;strokeWidth=1;shape=mxgraph.mockup.graphics.columnChart;strokeColor=none;strokeColor2=none;strokeColor3=#666666;fillColor2=#008cff;fillColor3=#dddddd;fontSize=16;" vertex="1" parent="FV-xaeg1GRg3uDKNsEzi-54">
          <mxGeometry x="15" y="10" width="35" height="40" as="geometry" />
        </mxCell>
        <mxCell id="FV-xaeg1GRg3uDKNsEzi-56" value="&lt;h1&gt;Compare consumption&lt;/h1&gt;" style="text;html=1;strokeColor=none;fillColor=none;spacing=5;spacingTop=-20;whiteSpace=wrap;overflow=hidden;rounded=0;fontSize=16;" vertex="1" parent="FV-xaeg1GRg3uDKNsEzi-54">
          <mxGeometry x="50" y="5" width="410" height="85" as="geometry" />
        </mxCell>
        <mxCell id="FV-xaeg1GRg3uDKNsEzi-61" value="LEVEL A" style="ellipse;whiteSpace=wrap;html=1;fontSize=16;fillColor=#426d18;strokeColor=#2D7600;fontColor=#ffffff;" vertex="1" parent="FV-xaeg1GRg3uDKNsEzi-31">
          <mxGeometry x="605" y="505" width="180" height="60" as="geometry" />
        </mxCell>
        <mxCell id="FV-xaeg1GRg3uDKNsEzi-62" value="LEVEL B" style="ellipse;whiteSpace=wrap;html=1;fontSize=16;fillColor=#60a917;fontColor=#ffffff;strokeColor=#2D7600;" vertex="1" parent="FV-xaeg1GRg3uDKNsEzi-31">
          <mxGeometry x="605" y="565" width="180" height="60" as="geometry" />
        </mxCell>
        <mxCell id="FV-xaeg1GRg3uDKNsEzi-63" value="LEVEL C" style="ellipse;whiteSpace=wrap;html=1;fontSize=16;fillColor=#f0a30a;fontColor=#000000;strokeColor=#BD7000;" vertex="1" parent="FV-xaeg1GRg3uDKNsEzi-31">
          <mxGeometry x="605" y="625" width="180" height="60" as="geometry" />
        </mxCell>
        <mxCell id="FV-xaeg1GRg3uDKNsEzi-64" value="LEVEL D" style="ellipse;whiteSpace=wrap;html=1;fontSize=16;fillColor=#fa6800;fontColor=#000000;strokeColor=#C73500;" vertex="1" parent="FV-xaeg1GRg3uDKNsEzi-31">
          <mxGeometry x="605" y="685" width="180" height="60" as="geometry" />
        </mxCell>
        <mxCell id="FV-xaeg1GRg3uDKNsEzi-65" value="LEVEL E" style="ellipse;whiteSpace=wrap;html=1;fontSize=16;fillColor=#e51400;fontColor=#ffffff;strokeColor=#B20000;" vertex="1" parent="FV-xaeg1GRg3uDKNsEzi-31">
          <mxGeometry x="605" y="745" width="180" height="60" as="geometry" />
        </mxCell>
        <mxCell id="FV-xaeg1GRg3uDKNsEzi-13" value="" style="swimlane;startSize=0;fontSize=16;" vertex="1" parent="FV-xaeg1GRg3uDKNsEzi-31">
          <mxGeometry x="22.5" y="125" width="530" height="380" as="geometry" />
        </mxCell>
        <mxCell id="FV-xaeg1GRg3uDKNsEzi-47" value="&lt;h1&gt;Energy consumption&lt;/h1&gt;" style="text;html=1;strokeColor=none;fillColor=none;spacing=5;spacingTop=-20;whiteSpace=wrap;overflow=hidden;rounded=0;fontSize=16;" vertex="1" parent="FV-xaeg1GRg3uDKNsEzi-13">
          <mxGeometry x="10" width="215" height="120" as="geometry" />
        </mxCell>
        <mxCell id="FV-xaeg1GRg3uDKNsEzi-32" value="" style="rounded=1;whiteSpace=wrap;html=1;fontSize=16;" vertex="1" parent="FV-xaeg1GRg3uDKNsEzi-13">
          <mxGeometry x="22" y="97.5" width="458" height="270" as="geometry" />
        </mxCell>
        <mxCell id="FV-xaeg1GRg3uDKNsEzi-41" value="" style="verticalLabelPosition=bottom;shadow=0;dashed=0;align=center;html=1;verticalAlign=top;strokeWidth=1;shape=mxgraph.mockup.graphics.columnChart;strokeColor=none;strokeColor2=none;strokeColor3=#666666;fillColor2=#008cff;fillColor3=#dddddd;fontSize=16;" vertex="1" parent="FV-xaeg1GRg3uDKNsEzi-13">
          <mxGeometry x="51" y="144.5" width="400" height="200" as="geometry" />
        </mxCell>
        <mxCell id="FV-xaeg1GRg3uDKNsEzi-43" value="Mon" style="text;html=1;align=center;verticalAlign=middle;resizable=0;points=[];autosize=1;strokeColor=none;fillColor=none;fontSize=16;" vertex="1" parent="FV-xaeg1GRg3uDKNsEzi-13">
          <mxGeometry x="120" y="337.5" width="50" height="30" as="geometry" />
        </mxCell>
        <mxCell id="FV-xaeg1GRg3uDKNsEzi-45" value="Tue" style="text;html=1;align=center;verticalAlign=middle;resizable=0;points=[];autosize=1;strokeColor=none;fillColor=none;fontSize=16;" vertex="1" parent="FV-xaeg1GRg3uDKNsEzi-13">
          <mxGeometry x="225" y="337.5" width="50" height="30" as="geometry" />
        </mxCell>
        <mxCell id="FV-xaeg1GRg3uDKNsEzi-46" value="Wed" style="text;html=1;align=center;verticalAlign=middle;resizable=0;points=[];autosize=1;strokeColor=none;fillColor=none;fontSize=16;" vertex="1" parent="FV-xaeg1GRg3uDKNsEzi-13">
          <mxGeometry x="320" y="337.5" width="60" height="30" as="geometry" />
        </mxCell>
        <mxCell id="FV-xaeg1GRg3uDKNsEzi-44" value="Level ะก&lt;br&gt;46.3 kWh" style="rounded=1;whiteSpace=wrap;html=1;fontSize=16;" vertex="1" parent="FV-xaeg1GRg3uDKNsEzi-13">
          <mxGeometry x="312.5" y="119.99999999999994" width="75" height="35" as="geometry" />
        </mxCell>
        <mxCell id="FV-xaeg1GRg3uDKNsEzi-66" value="&lt;h1&gt;Current eco level&lt;/h1&gt;" style="text;html=1;strokeColor=none;fillColor=none;spacing=5;spacingTop=-20;whiteSpace=wrap;overflow=hidden;rounded=0;fontSize=16;" vertex="1" parent="FV-xaeg1GRg3uDKNsEzi-31">
          <mxGeometry x="800" y="495" width="245" height="120" as="geometry" />
        </mxCell>
        <mxCell id="FV-xaeg1GRg3uDKNsEzi-67" value="&lt;b&gt;LEVEL C&lt;/b&gt;" style="ellipse;whiteSpace=wrap;html=1;fontSize=16;fillColor=#f0a30a;fontColor=#000000;strokeColor=#BD7000;" vertex="1" parent="FV-xaeg1GRg3uDKNsEzi-31">
          <mxGeometry x="830" y="590" width="230" height="80" as="geometry" />
        </mxCell>
        <mxCell id="FV-xaeg1GRg3uDKNsEzi-68" value="" style="html=1;verticalLabelPosition=bottom;align=center;labelBackgroundColor=#ffffff;verticalAlign=top;strokeWidth=2;strokeColor=#0080F0;shadow=0;dashed=0;shape=mxgraph.ios7.icons.lightbulb;fontSize=16;" vertex="1" parent="FV-xaeg1GRg3uDKNsEzi-31">
          <mxGeometry x="808.87" y="685" width="32.42" height="35" as="geometry" />
        </mxCell>
        <mxCell id="FV-xaeg1GRg3uDKNsEzi-70" value="" style="rounded=1;whiteSpace=wrap;html=1;fontSize=16;fillColor=#BDD4FC;strokeColor=#6c8ebf;" vertex="1" parent="FV-xaeg1GRg3uDKNsEzi-31">
          <mxGeometry x="860" y="702.42" width="190" height="25.15" as="geometry" />
        </mxCell>
        <mxCell id="FV-xaeg1GRg3uDKNsEzi-71" value="" style="whiteSpace=wrap;html=1;aspect=fixed;fontSize=16;fillColor=#dae8fc;strokeColor=#6c8ebf;" vertex="1" parent="FV-xaeg1GRg3uDKNsEzi-31">
          <mxGeometry x="800" y="754.92" width="50.15" height="50.15" as="geometry" />
        </mxCell>
        <mxCell id="FV-xaeg1GRg3uDKNsEzi-110" value="" style="rounded=1;whiteSpace=wrap;html=1;fontSize=16;fillColor=#BDD4FC;strokeColor=#6c8ebf;" vertex="1" parent="FV-xaeg1GRg3uDKNsEzi-31">
          <mxGeometry x="860" y="779.92" width="210" height="25.15" as="geometry" />
        </mxCell>
        <mxCell id="FV-xaeg1GRg3uDKNsEzi-111" value="&lt;b&gt;Total: 170 kWh&lt;/b&gt;" style="text;html=1;strokeColor=none;fillColor=none;align=center;verticalAlign=middle;whiteSpace=wrap;rounded=0;fontSize=16;" vertex="1" parent="FV-xaeg1GRg3uDKNsEzi-31">
          <mxGeometry x="1010" y="540" width="70" height="30" as="geometry" />
        </mxCell>
        <mxCell id="FV-xaeg1GRg3uDKNsEzi-112" value="&lt;b&gt;Light&lt;/b&gt;" style="text;html=1;strokeColor=none;fillColor=none;align=center;verticalAlign=middle;whiteSpace=wrap;rounded=0;fontSize=16;" vertex="1" parent="FV-xaeg1GRg3uDKNsEzi-31">
          <mxGeometry x="855" y="660" width="60" height="30" as="geometry" />
        </mxCell>
        <mxCell id="FV-xaeg1GRg3uDKNsEzi-113" value="&lt;font style=&quot;font-size: 12px;&quot;&gt;15.8%&lt;/font&gt;" style="text;html=1;strokeColor=none;fillColor=none;align=center;verticalAlign=middle;whiteSpace=wrap;rounded=0;fontSize=16;" vertex="1" parent="FV-xaeg1GRg3uDKNsEzi-31">
          <mxGeometry x="855" y="677.42" width="60" height="30" as="geometry" />
        </mxCell>
        <mxCell id="FV-xaeg1GRg3uDKNsEzi-114" value="" style="shape=image;verticalLabelPosition=bottom;labelBackgroundColor=default;verticalAlign=top;aspect=fixed;imageAspect=0;image=data:image/jpeg,/9j/4AAQSkZJRgABAQEBLAEsAAD/4QBWRXhpZgAATU0AKgAAAAgABAEaAAUAAAABAAAAPgEbAAUAAAABAAAARgEoAAMAAAABAAIAAAITAAMAAAABAAEAAAAAAAAAAAEsAAAAAQAAASwAAAAB/+0ALFBob3Rvc2hvcCAzLjAAOEJJTQQEAAAAAAAPHAFaAAMbJUccAQAAAgAEAP/hDIFodHRwOi8vbnMuYWRvYmUuY29tL3hhcC8xLjAvADw/eHBhY2tldCBiZWdpbj0n77u/JyBpZD0nVzVNME1wQ2VoaUh6cmVTek5UY3prYzlkJz8+Cjx4OnhtcG1ldGEgeG1sbnM6eD0nYWRvYmU6bnM6bWV0YS8nIHg6eG1wdGs9J0ltYWdlOjpFeGlmVG9vbCAxMS44OCc+CjxyZGY6UkRGIHhtbG5zOnJkZj0naHR0cDovL3d3dy53My5vcmcvMTk5OS8wMi8yMi1yZGYtc3ludGF4LW5zIyc+CgogPHJkZjpEZXNjcmlwdGlvbiByZGY6YWJvdXQ9JycKICB4bWxuczp0aWZmPSdodHRwOi8vbnMuYWRvYmUuY29tL3RpZmYvMS4wLyc+CiAgPHRpZmY6UmVzb2x1dGlvblVuaXQ+MjwvdGlmZjpSZXNvbHV0aW9uVW5pdD4KICA8dGlmZjpYUmVzb2x1dGlvbj4zMDAvMTwvdGlmZjpYUmVzb2x1dGlvbj4KICA8dGlmZjpZUmVzb2x1dGlvbj4zMDAvMTwvdGlmZjpZUmVzb2x1dGlvbj4KIDwvcmRmOkRlc2NyaXB0aW9uPgoKIDxyZGY6RGVzY3JpcHRpb24gcmRmOmFib3V0PScnCiAgeG1sbnM6eG1wTU09J2h0dHA6Ly9ucy5hZG9iZS5jb20veGFwLzEuMC9tbS8nPgogIDx4bXBNTTpEb2N1bWVudElEPmFkb2JlOmRvY2lkOnN0b2NrOjg2NWEwYzc1LTdjNzEtNDNjMi1iOThjLTI5N2JkNGM1MTYwNTwveG1wTU06RG9jdW1lbnRJRD4KICA8eG1wTU06SW5zdGFuY2VJRD54bXAuaWlkOjkwMDM1ZWY4LTZmMmQtNDMwZS05NzdhLWE0NGQ0YzBkYTYwMTwveG1wTU06SW5zdGFuY2VJRD4KIDwvcmRmOkRlc2NyaXB0aW9uPgo8L3JkZjpSREY+CjwveDp4bXBtZXRhPgogICAgICAgICAgICAgICAgICAgICAgICAgICAgICAgICAgICAgICAgICAgICAgICAgICAgICAgICAgICAgICAgICAgICAgICAgICAgICAgICAgICAgICAgICAgICAgICAgICAgCiAgICAgICAgICAgICAgICAgICAgICAgICAgICAgICAgICAgICAgICAgICAgICAgICAgICAgICAgICAgICAgICAgICAgICAgICAgICAgICAgICAgICAgICAgICAgICAgICAgICAKICAgICAgICAgICAgICAgICAgICAgICAgICAgICAgICAgICAgICAgICAgICAgICAgICAgICAgICAgICAgICAgICAgICAgICAgICAgICAgICAgICAgICAgICAgICAgICAgICAgIAogICAgICAgICAgICAgICAgICAgICAgICAgICAgICAgICAgICAgICAgICAgICAgICAgICAgICAgICAgICAgICAgICAgICAgICAgICAgICAgICAgICAgICAgICAgICAgICAgICAgCiAgICAgICAgICAgICAgICAgICAgICAgICAgICAgICAgICAgICAgICAgICAgICAgICAgICAgICAgICAgICAgICAgICAgICAgICAgICAgICAgICAgICAgICAgICAgICAgICAgICAKICAgICAgICAgICAgICAgICAgICAgICAgICAgICAgICAgICAgICAgICAgICAgICAgICAgICAgICAgICAgICAgICAgICAgICAgICAgICAgICAgICAgICAgICAgICAgICAgICAgIAogICAgICAgICAgICAgICAgICAgICAgICAgICAgICAgICAgICAgICAgICAgICAgICAgICAgICAgICAgICAgICAgICAgICAgICAgICAgICAgICAgICAgICAgICAgICAgICAgICAgCiAgICAgICAgICAgICAgICAgICAgICAgICAgICAgICAgICAgICAgICAgICAgICAgICAgICAgICAgICAgICAgICAgICAgICAgICAgICAgICAgICAgICAgICAgICAgICAgICAgICAKICAgICAgICAgICAgICAgICAgICAgICAgICAgICAgICAgICAgICAgICAgICAgICAgICAgICAgICAgICAgICAgICAgICAgICAgICAgICAgICAgICAgICAgICAgICAgICAgICAgIAogICAgICAgICAgICAgICAgICAgICAgICAgICAgICAgICAgICAgICAgICAgICAgICAgICAgICAgICAgICAgICAgICAgICAgICAgICAgICAgICAgICAgICAgICAgICAgICAgICAgCiAgICAgICAgICAgICAgICAgICAgICAgICAgICAgICAgICAgICAgICAgICAgICAgICAgICAgICAgICAgICAgICAgICAgICAgICAgICAgICAgICAgICAgICAgICAgICAgICAgICAKICAgICAgICAgICAgICAgICAgICAgICAgICAgICAgICAgICAgICAgICAgICAgICAgICAgICAgICAgICAgICAgICAgICAgICAgICAgICAgICAgICAgICAgICAgICAgICAgICAgIAogICAgICAgICAgICAgICAgICAgICAgICAgICAgICAgICAgICAgICAgICAgICAgICAgICAgICAgICAgICAgICAgICAgICAgICAgICAgICAgICAgICAgICAgICAgICAgICAgICAgCiAgICAgICAgICAgICAgICAgICAgICAgICAgICAgICAgICAgICAgICAgICAgICAgICAgICAgICAgICAgICAgICAgICAgICAgICAgICAgICAgICAgICAgICAgICAgICAgICAgICAKICAgICAgICAgICAgICAgICAgICAgICAgICAgICAgICAgICAgICAgICAgICAgICAgICAgICAgICAgICAgICAgICAgICAgICAgICAgICAgICAgICAgICAgICAgICAgICAgICAgIAogICAgICAgICAgICAgICAgICAgICAgICAgICAgICAgICAgICAgICAgICAgICAgICAgICAgICAgICAgICAgICAgICAgICAgICAgICAgICAgICAgICAgICAgICAgICAgICAgICAgCiAgICAgICAgICAgICAgICAgICAgICAgICAgICAgICAgICAgICAgICAgICAgICAgICAgICAgICAgICAgICAgICAgICAgICAgICAgICAgICAgICAgICAgICAgICAgICAgICAgICAKICAgICAgICAgICAgICAgICAgICAgICAgICAgICAgICAgICAgICAgICAgICAgICAgICAgICAgICAgICAgICAgICAgICAgICAgICAgICAgICAgICAgICAgICAgICAgICAgICAgIAogICAgICAgICAgICAgICAgICAgICAgICAgICAgICAgICAgICAgICAgICAgICAgICAgICAgICAgICAgICAgICAgICAgICAgICAgICAgICAgICAgICAgICAgICAgICAgICAgICAgCiAgICAgICAgICAgICAgICAgICAgICAgICAgICAgICAgICAgICAgICAgICAgICAgICAgICAgICAgICAgICAgICAgICAgICAgICAgICAgICAgICAgICAgICAgICAgICAgICAgICAKICAgICAgICAgICAgICAgICAgICAgICAgICAgICAgICAgICAgICAgICAgICAgICAgICAgICAgICAgICAgICAgICAgICAgICAgICAgICAgICAgICAgICAgICAgICAgICAgICAgIAogICAgICAgICAgICAgICAgICAgICAgICAgICAgICAgICAgICAgICAgICAgICAgICAgICAgICAgICAgICAgICAgICAgICAgICAgICAgICAgICAgICAgICAgICAgICAgICAgICAgCiAgICAgICAgICAgICAgICAgICAgICAgICAgICAgICAgICAgICAgICAgICAgICAgICAgICAgICAgICAgICAgICAgICAgICAgICAgICAgICAgICAgICAgICAgICAgICAgICAgICAKICAgICAgICAgICAgICAgICAgICAgICAgICAgICAgICAgICAgICAgICAgICAgICAgICAgICAgICAgICAgICAgICAgICAgICAgICAgICAgICAgICAgICAgICAgICAgICAgICAgIAo8P3hwYWNrZXQgZW5kPSd3Jz8+/9sAQwACAQEBAQECAQEBAgICAgIEAwICAgIFBAQDBAYFBgYGBQYGBgcJCAYHCQcGBggLCAkKCgoKCgYICwwLCgwJCgoK/9sAQwECAgICAgIFAwMFCgcGBwoKCgoKCgoKCgoKCgoKCgoKCgoKCgoKCgoKCgoKCgoKCgoKCgoKCgoKCgoKCgoKCgoK/8AAEQgD6APoAwERAAIRAQMRAf/EAB4AAQACAgMBAQEAAAAAAAAAAAACAwEEBQgJBwYK/8QAYBAAAQMCBAMFBAQICAkICAUFAQACAwQRBQYSIQcIMQkTQVFhFCIycQpCgZEVI1JyobHB0RYkM1NigpLhNENzg6KywtLwFxglRGOTlPFUVnSEo6Sz0xomNmTDRlh1hZX/xAAUAQEAAAAAAAAAAAAAAAAAAAAA/8QAFBEBAAAAAAAAAAAAAAAAAAAAAP/aAAwDAQACEQMRAD8A9/EBAQYebCyDVfO2OQPe24HUILTT08721INxa9h0KCmHFKSrlNI6KwOw1DY+iDLqmSjm9lczWy12G+4Hl6oMvmkqCG6bN8kF0MdhugsQEBAQEBAQEBAQEBAQEBBh/T7UGvC5ntFnjf6vzQJ/Yp5jTTHRJ4G9r/LzQVw09Xh0hLB3sTuob8Q9bIJtnoWvM0MI1nr7ligwxrpn94/xQbMbA0IJICAgICAgICAgICAgIMEgBBB01vFBTNUbWBQYonB4klDdRaNggk+qMVKDXMbrf0jagqEUjSGyNsbILWw6rFxvbpcoLo49I6IJoCAgICAgICAgICAgICDDnaUFT5x4lBrzP7w2B6mwugsnrIcMMcBYSHfEfL1QHxvgcaygAc1+74x0PqEAV5e28cNifElBmGE31O6lBsNaGhBlAQEBAQEBAQEBAQEBAQRfIGjqgolnB2QVMmkicXMPXqCgST4hUnRD7vq0ftQW1LSKVsEr9TtrlBGCDxIQbLWBo6IJICAgICAgICAgICAgICCMhsEFLWun1aXgW6INYPJqm00gIJdYoLMQxKShmbDHCC219/FBKoc2aBmI050vbbfzF7EFBl1VJOwMazTce8gnBEGoLwLbBAQEBAQEBAQEBBW+W3igpkqB0CCLaX2hneSyaWlBgQT4Z+OhkMkR3ew9QPMIJmio552Ygx1vrG3Q+qCMlqicvHToEGxFEAEFgAHRAQEBAQEBAQEBAQEBAQEBBhwuEGpUMLXa27EdCgu/i8jW1z47uY0723CCiOtqnSl5A0noy3RBNsb5X95J1KC+OMNG4QTQEBAQEBAQEBAQEBAQEFczrIK2Rx1EZAd736kEO5p6aLvK+QAk9L/uQZayKlaa2j96Mj32A9R5hA77DpJRVAan22JB2QGufPJ3jh8h5INhjbC6CSAgICAgICAgICAgICAgIKahxAJQYbDT9wHSP6/WvayDWqqGrjPeU51gG4Higse2jxWICUlj29RexagkO5pIPZqZ1/W/RBmCC25CDYa0NCDKAgICAgICAgICAgICDBcAgg6YDxQa8899gUFh7mneynMJe9/kL29UFdUImTaIjvb3gPBAgdIzdh6+aCxsJc7W8kn1QXMbpHRBJAQEBAQEBAQEBAQEBAQRdIAgqmlFuqCqka99Rqa6waPe9fRBmZkGJN7ylmHexO913kf3IMOqKSqb3OIQ6ZGndpB6+hCCUkkb2Cnp22YPRBZDDp8EFoAHRBlAQEBAQEBAQEGHmwsg1nTsZLqkFwP0II4hTvdH7RTb7XLR4+oQYqInV+GMNM65ABt52FrIM4VHUQU721QIaPhDv0oKqeJzW921x03va6Dbhi07ILgLbBAQEBAQEBAQEBAQEBAQEBAQEFU0eodEEISYg5pFwegQYhgANyEF7WBo6IJICAgICAgICAgICAgIMEgBBB0wHigollLzpbvfyQQdSV7XCaDSCOjS7qglJHDisBjkbolZ1B6tP7kCkp5KGgfHM4XcTYA/YgxT04t02QbUcQaOiCaAgICAgICAgICAgICAgICCqoZcEIKqfS8PpJRdrgUGGlmFUwh1mR56An/iwQJpYaqMEwe/5nwQZhgtuQg2WN0hBlAQEBAQEBAQEBAQEBAJsLoKHuLnCMHcnxQVTwTtkDGAuDuh8PtQJMMe9u1RZ35uyC5kpmaYi8MmDbO8x6j0QVsihoY3Na7W9/xE9SglAzbogvDQEGUBAQEBAQEBAQEBAQEBBh5sEFB1yyaGm3mghUUk7Rqi94eXigrwyob3slLMNLndAUGKXCJ6Ws76OcBn6SPJBbVFlRMAwA6dr+aCyGEAdEFwFhZBlAQEBAQEBAQEEJJNPigofUjwQVxFs9S1jt97kIFRir6bEDDKz8WAPDf5oJzRPg/jdFIA127mHofUIBlnqBpdYDxAQXQwhoQWgW2CAgICAgICAgICAgICAgICAgICAQD1QRMYPj+hBlrQEGUBAQEBAQEBAQEBAQEBBXM+wQVsiZPEdD/f9fBBRQud7eYZhZzWmwKCqprq+mryCSW32aRsQg2a9pZNHUxbP3B9QgDvah2qTw6AINiKMNHRBNAQEBAQEBAQEBAQEBAQEBAQYe3UEGrIxzJBI3qDdBKqZHM9r2je26CUMAHggua0NQZQEBAQEBAQEBAQEBAQYLgEEJJRZBqTPc8+4CT4ABBOjxB2sUtWwsefgLhbUg15KSupcSbLG9zw9+zvTxBQX4hEySoabbhu6CcNOBYkINhjNKCSAgICAgICAgICAgICAgIMPF2oNWRzoZRIPBBOSOqdUMmpJQGOH4wO6fNAndQTy9xNYuHj5H5oKXCTWYmVD3N9Sguggt4ILwLCyDKAgICAgICAgICDWncARqG190Eqh9IyNomADHbNd4BBrvw+WORtVQSh9tw1x6/agtfLRVBBrINL2/Ve3cfvQJJTUWYxulo8EFsMQaLILQLbBAQEBAQEBAQEBAQEBAQEBAQEBAQEBAQEBAQEBAQEBAQEBAQCQBcoK3zAeKCiaYOFggxC5lNTvrpN9th/x6oDXQ4nGKmmfomjOx8j5H0QZbXm+iopSHtKB79S/W8beA8kGxHGGjogmgICAgICAgICAgICAgICAgICAgi6MHogiIt+iCYAAQZQEBAQEBAQEBAQEBAQYcbC6Cl7i54jadz5oKKwvpz75JaehQTdUex4eKpjLl1v0oMUtTFi0DoZowHDrb9YQKatmZEYZm6ntNg7z+aCUcbnv7x5uSg2WN0hBlAQEBAQEBAQEBAQEBAQEBAQUVEVwgUpJjdAXEEdCPBBrxU1nW9eqDZigAGwQWgAdEGUBAQEBAQEBAQEBBRUMJCCEDY6iB1JMLjwHogjPVvikFPSMDQzrcfoQSe6SqsHNAA8vNBbDCGjogtAsLBAQEBAQEBAQEBAQEBAQEBAQEBAQEBAQEBAQEBAQEBAQEBAQEEZSQEFMMbJnkvN7fVQVz0T3t10kod/RJ/agjSSsMTsOrmaCb2DttQQTp6Glw55m71xJFgCUGA108pkd4oNmOMNHRBNAQEBAQEBAQEBAQEBAQEBAQEBAQEBAQEBAQEBAQEBAQEBAQYLgOqCD5Rbqg1ZXOe8NjO5Nhv4oNiQ08lqGokDnub08/VBSxwom+xVg1RH4HkXuPIoJRexUjD7ILl32oMQwEnU5BstYGoJICAgICAgICAgICAgICAgICAgw5uoIKjDvfcIJMit4ILALbBAQEBAQEBAQEBAQEBBGRuoIKAx0Uoe37UCRglmLw3+9BdHEAOiCaAgICAgICAgICAgICAgICAgICAgICAgICAgICAgICAgICAgICCMguEGqHmCcP8ADx+SCwUsdNUvrTMWtIuW32v5oIitgqQ5k1OdPhcXv+5BXFTtLiWssPJBtRRADogsQEBAQEBAQEBAQEBAQEBAQEBAQEBAQEBAQEBAQEBAQEBAQEBBTNIQNvFBB9JM5moPGryKDUMz6WqYahhaA7e4QW4jhklVM2qppBew6n9IQX1BLaUQzkPeRubfpQQgg6EhBtMYGhBlAQEBAQEBAQEBAQEBAQEBAQEBAQEBAQEBAQEBAQEBAQEBAQEGCwFBgRgIJICAgICAgICAgICAgICDDnBqCt04HigwJ7mwJQTZKD4oJoCAgICAgICAgICAgICAgICAgICARcWQa9RFq8EGPdkpTFL1bsP2IIw09uoQbDIw0dEE0BAQEBAQEBAQEBAQEBAQEBAQEBAQEBAQEBAQEBAQEBAQEBAQEGvUtOlBFzpqikPcSESs6ev/AJoJue1tM1uJFhLuotsgqextO0eyVLg09GA3A/cgzFE5x1PJJ9UGyxmkIJICAgICAgICAgICAgICAgICAgICAgICAgICAgICAgICAgICDD3WCDKAgICAgICAgICAgICAgICAgpnfYEoIsjiqIbMd7w638CgrodYfLHKyzmjyQQhqD4FBtxSXF0FiAgICAgICAgICAgICAgICAgICAgw5ocggYd+iCTWaeqCSAgICAgICAgICAgICAgwXgIImYX8EASgoJggi4QEBAQEBAQEBAQEBAQEBAQEBAQEBBCVlwg14SYJ9+jtigxWQF1Trcb3Gw8kE4aceSC9rA0dEEkBAQEBAQEBAQEBAQEBAQEBAQEBAQEBAQEBAQEBAQEBAQEBAQRlBIQSQEBAQEBAQEBAQEBAQEBAQRe8NCDWqH6jpAQQqWtw9gmZMe9J+Hwd6INilqYquPv4mgPAsQfD0QQ9tJcY5aYtcPC90EotTjqPigvQEBAQEBAQEBAQEBAQEBAQEBAQEBAQEBAQEBAQEBAQEBAQEBBhxsLoKSQ+QR6rIKKvXTOu65aejkFlQ5sAYG+I6+aCcM2rxQXNdqCDKAgICAgICAgICAgICAgICAgICARcWKCqSEHqEGBFc3O5QWtaGhBlAQEBAQEBAQEBAQEBAQYL2jxQNY8igBwPRBlAQEBAQEBAQEBAQEBAQEBAQEBAQYcLiyDKAgICAgICAgICAgICAgXA6lBF8gA2KDXklc52hguUFT46mGRsz4Toa4FxBvYIJYjQSVb2zwOB921ifDzQYZR+wRtlbL+MvuPAjyQTYx8z+8kO5QbLGaRdBJAQEBAQEBAQEBAQEBAQEBAQEBAQEBAQEBAQEBAQEBAQEBAQEEJXWHVBqmOSok0xm3r5IJsmbK52H1li62x/KH70E6gUkbWNqQbAWa4g/sQRJphYQb38blBdFe32IJoCAgICAgICAgICAgICAgICAgICAgICAgICAgICAgICAgICAghK+wQUvMpjMoGwQRpnmokLdQsBcoMxVF9iUGw14cgkgICAgICAgICAgICAgICAgICAgICAgICAgICAgICAgICDDnBqCmWcN8UFUpm0tdoNndLIJUJdolcGe+02AKDXw/FKmWq7ioFw42G1i0oLZTPTVDmQSEMO4b1AQTZG+Q65HEn1QXxxhvggmgICAgICAgICAgICAgICAgICAgICAgICAgICAgICAgICAgIBIHVBCSUN8UGtNPqG3RBKhf3kEndkB9yB6bbINKKiqZp9Lo3NIO7j4eqDdklkERppmhzumrzHn80GYILblBsNbpCDKAgICAgICAgICAgICAgICAgICAgICAgICAgICAgICAgICAgdEGvUvsEFcFTLANUjCYr21fk/3ILYaZkVQamFw0PZuL7X80EWYeBu2e4PTZBKI2Ng64HigvG4ugICAgICAgICAgICAgICAgICAgICAgICAgICAgICAgIB2F0GvPKQghLA1kBlnm0E9LoM0NdA+FjJKhusm1j1QUye3UVcZmsdKyU72CC4VVLrMraYiTxu0AhAY10rzI/xQbDGADogkgICAgICAgICAgICAgEgdUEDKAgd96hBJrg5BlAQEBAQEBAQEBAQEBAQEBAQEGHPDUFL597DcoNaWo1O033Jt1QW1dbHhgbG2LUXdd7IMmZs1P7fR7OA94EdfMFAbXSyNs2INPne6DMUJJ1O3JQbDW6QgygICAgICAgICAgICAgICAgICAgICAgICAgICAgICAgICAgIBIG5QVSzBqDVklD5A0nqbIM4xNJDG2CIaWOG5Hj6IK8LmnhjPeMJhva/5J/cgm+KHvyacWB8uiDZgjsEFyAgICAgICAgICAgICAgICAgICAgICAgICAgICAgICAgw82FkGtI4CZrj0B3QZqqBlbI2R850gfCEFbcPwqW8ERGoC92vuQgzT1k0QME7dZYSNd+qDLGOmkMr+pQbLIw0IJICAgICAgICAgICAgICCmaTTvdBXURyMi71rtQtcgII072yUz577g2+SCUNRfYlBsMffZBJAQEBAQEBAQEBAQEBAQEBBh7tIQa73ve7u4xugiwS09Wxj2gh9wDdBLEYSKR3s8ALr326j1CCpk9FitOGVJDXjrvax9EFgFPTU/s1MdV+puglBDbchBe1ob0QZQEBAQEBAQEBAQEBAQCQOpQY1tQA9p8UGUBAQEBAQEBAQEBAQEBAQEBAQEEXSAdEFMlQB0KCELfaZDqPut62QGjDKtxgjcNQ6EEg/Ygk+piDvZa6O5G4dpuHDz9EGJJhI0QwM0t+SCcMIHgguAACDKAgICAgICAgICAgICAgICAgICAgICAgICAgICAgICDD3hoQa75iXaWAk+SCuZkrfekYQPNBW6PX7pdYHqg2IIIKBheDqe4dfNBGOIyOL3eJuUGyxgaOiCSAgICAgICAgICAgICAgw42CDVqH3OkfcgCWbDw01JBjcbGx3aUFrYaaGKRw/k5NyBuP0IK2tw/RqidsPAOKCyEk/eguQEBAQEBAQEBAQEBAQEBAQVzEWO6CFMD3b3MAL77X/Qg1fwVV1EhmqajSb+G5/uQTY2fC3jXKZYXncnq0oJzmkfHphiaS43uG2QZhgtuQg2WN0hBlAQEBAQEBAQEBAQEBBhxsEFJc97tMY3QVGZ3eCN2zibWKCyR/cvDCb7ILI5QfFBZ1QEBAQEBAQEBAQEBAQEBAQEEJZNIQa0kj3gua0kDqQEE4YoKumaWkix3PjdBVT1FPTV8lHuGutp1efkgxHgzoqsTRze4HXseo9EFlTpmqLt3sLXQWwwgeCC0ADogygICAgICAgICAgICAgEgdSgXHmEBAQEBAQEBAQEBAQEBAQEGHO0hBU+oA6lBTJU7bIM0Ly+OWSIAvGzQUCWpfTRCCZwlmf8AVA/42QR7h8bgyS3TwQWsgHWyC5kYaEEkBAQEBAQEBAQEBAQEBBhzw1BRNOACAUFNNK19Y1rj52+aCnFo6l1VctJabaLBBfSCooImtm3Y7o0dWlAjiD3lzWhoJ6BBtRs0hBNAQEBAQEBAQEBAQEBAQEEJJA0bFBRJODsEFbZHscXRusSgw5ldWHT3p0+Nth+hBdUtayBtKHFxFr3QIIPEhBsNaGhBlAQEBAQEBAQEBAQEBAQQmdYINVs0zZbwsLierR5ILJI4q9jZ4HWe0+P6iglPSGeUSCXTYWItdBgRmB2kyA+iC5h2sgkgICAgICAgICAgICAgICATYXQa093ODL9TZBitmmpmNgpIiXO8QL2Qa8EeNU8fuMGkOvoJF/kgvMVHi0Yke0hzeo6EehQQcwiQxxTPLPAF10F8MOnwQXgACwQEBAQEBAQEBAQEBAQEEZH6droKXzkb2+1Bhkr3gkN2aLkoLI5gehQWgg9EBAQEBAQEBAQEBAQEBBVO+wJQVwiCojMRNn9fVBB5pMPjaas6nO9LoJAwsiNfQgWt77RsCP2FAZW0rz3zKc6yOpaL/egRh8rzI/xQbLG2FygygICAgICAgICAgICAgEgdUFUk4b4oKJqmw62QZhfHHTOrZG3t0QKespsTBjLC17dxvuPUFAbXzMe6GWEEtNtQNroB7yofqf0HQIL44wAgsQEBAQEBAQEBAQEBAQEEXPDUEHzgdSg1p59RtfqdkF+owSspoYC64u952ACCmodE+ctpxfSPxmnoEGYQ8bscRdBYyD3rncoL2t0hBlAQEBAQEBAQEBAQEBAQRfIGjZBrVE46XQZZIYKB1TG27iL/AKbINGjnqva+9iBc5x99vmg3Kk09Q1szLiT9PyKCUEbj7zv0oNlosEGUBAQEBAQEBAQEBAQEBAJtuUFckoA3Qa0rw43BQTOIPYzeK587oFFNW1ExfIAI7dLIKnxtfUvewdT4INmGHT4ILgAOiAgICAgICAgICAgICAgdEGvUPsEGIZoaphppBZwHQePqEGKWnnibNA83uPcd53CCMcFUz4o/uIQXxuN/e6jqgtQEBAQEBAQEBAQEGHO0hBU+cDqUFMkjpXBjBcnoEEX4ZVXEsVQGvG42QStHiUZpKyPRMz/i49EGYaf2ChdA94cXk/p2QKeAdbINlkYaNwgkgICAgICAgICAgICAgE2F0FE02nxQUzRziIzltwNyPRBstZHMxszohfTsCg0qOsjY6SgrYu7BcdIcdrHwQXU9JRULzPHLckbDUCgwxhlkMhHU3QbMcYAQTQEBAQEBAQEBAQEBAQEGHGwugokcC8ML7XPVBCakm70CI+6epPggPw+llJibUnWOtnC4+xBMTsc00lTLoktYkG1/UIItFNSQmCl3J6m90E4GWAQXgAdEBAQEBAQEBAQEBAQEBBguAQVyTgeKCh8xkcGNPU2CCUgw+AiKpkGo+ZKDPu4e2xu6Fx28S0/uQGTUkIJpYxc+TbIIxRFztbup3KDZY3SOiCSAgICAgICAgICAgICAgwXtCCuWYAdUFUTfaJDqdZrdygyxlJUxGSEkAH4t7fpQUN97oUF5lmkYGbDzI8UEoYQ1BeAALBAQEBAQEBAQEBAQEBAQEEJJAAg1nO7+URg9SgqxSeKHTTwss5m4eOrUF9BXCsj7qR2mQDcjx9Qgj3tWx7oXTB1ttQAQXQMIABQXICAgICAgICAgICCqd9gSghGyGoiLQbPHU+IQUUJfFiDoJxZ2g6b+PyQU1BxGnxAvaXG7vdt0I8kG1iLPx0UrDZ7b7hAYx8rtchJPqg2Y2aR0QSQEBAQEBAQEBAQEBAQEGHnayDXZZ9SA/wCaCuupq+sm7tpDYh0JPVBFuHVtGBNT1ZeWD+TI2I8uqC5s9DUtE8kbS4Do5tyEFUMDS4lrbC+wQbcUekbhBNAQEBAQEBAQEBAQEBAQYc8NQVyTADqg1pBLOSImEn0QZpqueleKevjLQTZjz0+SCl+Ez0+IsnpnEtL7kk7t87oLq6NstUDbcNsgshgA3sg2Gt0hBlAQEBAQEBAQEBAQEBBhztIQa8sxvpaCSUEacxyzOhmB1W2BQV1bYcPdFNrcTr326hBmvw4YgW1NNKNx4nYhBZLGIaJtK92p1ggQQeKDYawNQSQEBAQEBAQEBAQEBAQEEZHWCClzZpGGRnQdB5oKYop6kFzdgD1cgnTxyUUrm1JBjksA4eB8ignUUckxbCyQMhaN2tG5QRk7p0obE0WaLXCC+NmyCYAGwQEBAQEBAQEBAQEBAQEGHODUFck4A6oKmtfUuIabAdSgwaKSN7aiGXUWn4SOqDM1NR4gRL3liNjY7/IhBiZsDWtggaLtPxDwQThhtvZBe1ukWQZQEBAQEBAQEBAJsLoKnzhuxKCiacOCBG9tJQvrQ27j0++yBHJBi0Aew6JWG4I6tP7QgNraqMmGeFuofWB2KCTWvmf3khQbDIw0dEEkBAQEBAQEBAQEBAQEBBhzg0IKZZwPFBrueS7UNkGX1NbJ+LjdufIboLaWOWjhdJUylznHoXXQVQQX8EG3HGGjogmgICAgICAgICAgICAgIMONggpc7XIIy610FFc19N7+5afFBKaeSlw1s8AuSASbdLoMUFUMTgfBVRgkDcgdUGKWpqIou4d7xabNcfJBbDESdTtyeqDYa3SEGUBAQEBAQEBAQEBAQEBBVO6wKCuNzaemdVuaXG3QINVj8Wnn9qihA2tuLAjyQXwymqYaDE4tMlv7XqPVBh1IKFrW09Q8EncE9UEoonOOp5JPmUGyxukdEEkBAQEBAQEBAQEBAQEBBgvAQUTyi3VBrNxA0knvAlh+IIL672ipoxJh8vr7vVwQV4dNLVUMjKoEgXGp3jsgjTsm0hhkdby1GyDahh0+CC4CwsEBAQEBAQEBAQEBAQEBBCSQN8UGvNUeRQZfRyPDSyQb/EfJBijBkp5qYSDWHEEg+nVBRhcFfT1ZZIxwZvqv0+xBZNC11Y9zQNyguhgA8EF7WhoQZQEBAQEBAQEBAQRlNggqp2xyPdr3I6A+SCqajiqgXUk4BHVp/wCLhBGmkNPGaLEYrNN9Lju0j5oJwRYfREyU51OcNrOugMjdK8yP6koNljA0dEEkBAQEBAQEBAQEBAQEGCQOqCLpgEFM048CgjE6OKmdVvYX2NgAPsQSqnx9w100eiR3wtG5ugpaHardCP0ILjG+U6pHEoLo4w3wQTQEBAQEBAQEBAQEBAQEGHODUFb5h0ug1ZAZpBG0/EbBBsSVFKJBh877lzbHV4/3oKg52GjuJmF8BPuOte3oUEmz08bC2jitq8QLIMwQW3IQbDWBqDKAgICAgICAgICAgICAgi94agomladroIxVboW6SzUPn0QQfiFZNII6WED57oJ4ixshjB+IXKBBCT7zkGyxgagkgICAgICAgICAgICAgIISOsEFTu9cwyNGwQUwOFROIyb+JQSlxWmgqDSOis0GxcOg+xAkAw6ZssA/FSH3mDwPmEE5ZxKO6hGx6m3VBOCKwQXAAdEBAQEBAQEBAQEBAQEBBhxsLoNeUue8RtPUoK6+alpIe4Mepzh93qgrpMXjijjhlgc1vQv8PmgmcMljqhVYfO1jXdQen2IJ+1VZJieGgg2JagnBDbchBeAAEGUBAQEBAQEBAQEBBGQXCDVc4wTiT13+SCx0FLSzPxBx3cPD9nzQQjxB0oIlgFj0F0GIoLu1aQB5BBsxx6eqCaAgICAgICAgICAgICAgqnksCUFckD3Q97E7UbXsPFBFtGwsHtM2ku6AED7EEogMP/FTSXjc73HnwPkUAw0rKg1j5i9x+EFwNvkgMJlkMhFroL2tFrkIJICAgICAgICAgICAgICAgoneRt5oMPoyWbS+969EGo589DUMlqIzpB3cNxZBdW4Yyve2phmAuNz1B9UFs7hHAKbXrdYBxKDEEFtyEGw1oaEGUBAQEBAQEBAQEBAQEGC4DqUEXSgBBryyl7wxh6myCYjpGyCme8mQi/igpmYIpTGHXtv8kFkEskbC1rAb9Cgy2Jz3a5Dc+ZQXsaGjogkgICAgICAgICAgICAgIMF4CCmeQWQRonSlzrn3B1v5oITQdzM3EaQam/XY09R5hAlpcOxBwqRNY+Nja/zQZqHMl0xRD3W9EFkMAA6ILgAAgygICAgICAgICAgICAgIIPeLWQa7pCyUSDexQSkmw/V38jAXW8W3KDNPVR1+uI050AfW8UFFO6eEGCOQ6QSGhBfDBbcoL2tDQgygICAgICAgICAgICB1QUVEV0EQ5rqYwyDcbBAhgtuUF7WBqCSAgICAgICAgICAgICASB1QQdKAEGtPJqOkfoQVxy1tG/vH07jEfiAHT1QZxKjGIRNq6WTUQ3Zt+o/egmWSfgtsVT8Zt1+f7kGIKcW6INqOMNHRBNAQEBAQEBAQEBAQEBAQEBBr1LTZBAtfV0hYx5EsZ91wNt/BBY+obSQtjq5NbyN7DqgplZTixpHObq3IYSB9yCcMFtyEGyxukIMoCAgICAgICAgICAgIMONhdBU4ue/Qzqgof3xl7gNOryCDD6Ssie2doa4Ndctad7INh7TLE6ahLA+QD33eSCr2eOlg7tztcjjcuPW6CyGPboguDQEGUBAQEBAQEBAQEBAQEBBF5sEFH4yZ+lnQdT5IKaoTQC8jDb8rwQSpC2soJIGPs43B+1BjCoK+me6KZto/U+PogSxROqXGJgA8beJ80F8MAA6ILwLCyAgICAgICAgICAgICAgEgdSgrkkAHVBS0SVDiGmwHUoEtK9jdbXah4oKQ1riNTbjyQbDpWNj7qmZYedkCCEDqEF4AAQZQEBAQEBAQEBAQEBAQEGHNDkEe58bBBJrQ1BlAQEBAQEBAQEBAQEBAQVTPsLoK5on9z3rHatrkBBDDXNlc+TqW2ACCqlxiZ9V3M8Ys51hYfCUFji6grCIW3jeNRZ5H0QSJfUP1P6eAQbETA0IJoCAgICAgICAgICAgICAgICCErLhBrxEwT38DsUGKmBpqS8G5PX0QWQwAeCC9rQ0IMoCAgICAgICAgICAgIMFwHUoISSABBqS1Dond4w2I6INimq2VkRdCQ2QCxB3t/cg1KKoxCPEPZapxde97/rCCczHx1j+5kc1pIJDT42QWxQuJ1PJJ9UGwxukdEEkBAQEBAQEBAQEBAQEBAQRlBIQa8UpiqLO+Fxsgkx9Y2sdA+MOiIuHnwHl6oMex03fGSkkEcjfi0dPtCCBmqZCY3SAjzaOqC2GG3ggvAAFggICAgICAgICAgICAgIIyP0oKJJnNGoDa9roKXSSy37thd52CCdHeanlpnlzH3323APigy6Oa4oKWIsjaPfkPigGJjJiyM3AQXMiHkgsDQEGUBAQEBAQEBAQEBAQEBAQEBAQEBAQEBAQEBAQEBAQCQNygg6UDxQa9RICLBBmKVtFS9/UvNnHYeSDD4jTye30Q1McPxjAeo8wgy2bDpH+0tju/r8O6DFnVEveOHyHog2I4gB0QTQEBAQEBAQEBAQEBAQEBAQEBAIuLIK3xX6hBhsNj0+9BYAAEGUBAQEBAQEBAQEBAQEGHGwugqLnvdojH2oNWecxuLJNiPBBbUTwYbE0yRanOQYcIqqH2+hOmRvjbr5goJsro3xiQR/jLWtbp9qDEUZc7W87lBssYGhBlAQEBAQEBAQEBAQEBAQEBBgi4sg1qmO+9kFneSS0hMbrPAsSg1YKexuOvmg2ooAPBBaAB0QZQEBAQEBAQEBAQEBAQCQOpQUVElgghBVQyfxSe24sL+KCNfVyYZGxlPAC3xc7ogy6f2uiFbD7j2dP2j5IMMq6qVliGgnxaEFkEWnc9Sg2ALCyAgICAgICAgICAgICAgICAgICAgICAgICAgICAgICAghM7SOqCqOEztL3Pt5WQa1ZT1UIJazU3zagsayHFqBsYfpcy32EIJ0VM/DoHCafUCdmjoEEI4jI8vsBc32CDajjAHRBNAQEBAQEBAQEBAQEBAQEBAQEBAQEBAQEBAQEBAQEBAQEBAQYJA6lBCSQW6oNbvJe/Hc/ETbdBbXUkdawsa8CRo2N+nzQV/iMQg9lrPclZ8QJ3B8x6IJRxQ0FOYYn6nOQYgg8SEGyxgagkgICAgICAgICAgICAgICAgICCEjNXggrERaC1psD1QTjiAQWAW2CAgICAgICAgICAgICAgjI/SgofOWjVY280FcYNTLo1WsLn0QZdS4ZUPNOJPfHk/dBmN5Djh1dZ1x7jz9YfvQZkEUMIo6cbDqgnBDYboLgAAgygICAgICAgICAgICAgICAgICAgICAgICAgICAgICAgIK523CCmmeGyGB49146FBKmZPSNkdU1F4wfcv1AQQJoagGeMlj/Nuzv70EI45JDd7y71JQbUUQaEFiAgICAgICAgICAgICAgICAgICAgICAgICAgICAgICAgICAgHYXQUSyOBs3clBXNHUMbqLbjx0+CCqgqGOrNLtrtIHzQQmpMRgxI1NM0uDndb7W8ig2cQjieGlzB3nmPJBiCDxIQbTGBoQZQEBAQEBAQEBAQEBAQEBAQEBAQECw8kBAQEBAQEBAQEBAQEBAQCQOpQa9Q+wQKaRtVE6F7Nm7X80FNMx1BWGOY+5ILRv9fJBB2DTNrBNDKA3VcEncILq0NlnaBvpG6CcMFh0QXtbpCDKAgICAgICAgICAgIIteHIJICAgICAgICAgICAgICAgICAgICDDxcINWeMh2pvUbgoJVbW1NO15NrHogjBT7bhBsMiAHRBNAQEBAQEBAQEBAQEBAQEBAQEBAQEBAQEBAQEBAQEBAQEBAQEA9Cg1aguY8Pb1HRBmpqKhkbKmlZrBNnMsgzPSU1RpdM0MkPQtdYg/tQRklrKciMysf8A0i3dBiON8jtchufVBssZpCCSAgICAgICAgICAgICAgICAgICAgICAgICAgICAgICAgICAgw91ggodK4khjSfkg15qgG+o9EE5jKzCdVLe5FyW9fVAw+pGJ0zoKqO5A951tj+4oIt7+N5hbUOc0GwJKC+GC29t0F7RYIMoCAgICAgICAgICAgINOGo890G0x+rxQSQEBAQEBAQEBAQEBAQEBAQEBAQEEHxh3gggIbHofuQWMZpQSQEBAQEBAQEBAQEBAQEGC4BBgyAIAeD1QSQEBAQEBAQEBAQEBAQEBAQEBAQEBBTUR3CCNE8tcYXfMIKJ4pJKkmU3IO3oEF0UFzd26C9jA1BJAQEBAQEBAQEBAQEBAQEBAQEBAQEBAQEBAQEBAQEBAQEBAQEEJun2IK6OQXdHYX6g+aCsOpMRe6CWEtkZ1/80CCGrw8FjPx0V7gdHN/egyawubphi0X63QZghtuQg2AAAgygICAgICAgICAgICAgINVstC5t44t/AWsgshuQPmguQEBAQEBAQEBAQEBAQEBAQEBAQEBAQEBAQEBAQEBAQEBAQEBBh5sEFPvyuLWG1upQUmR7ZhC/ZxICCyV4hl0DyQWxShw2QWA33CAgICAgICAgICAgICAgICAgICAgw5uoIKTEWv1N6hBlsZLtTtyUFrWhoQZQEBAQEBAQEBAQEBAQEGC4DqUDW3zQZQEBAQEBAQEBAQEBAQEBAQEBAQEBBGQXCDVkDopRI3wKC2pkMMJmgjBc+13W/Sgogkqg0tMpN/PwQXQwWQXtaGhBlAQEBAQEBAQEBAQEBAQEGpHGXvMjha5ug2WM0hBJAQEBAQEBAQEBAQEBAQEBAQEBAQEBAQEBAQEBAQEBAQEBAQEFczgB1QarHVBl1U4uR1v0sgttBiDQ8e7JG4XB6g+RQSmgppZ7uns+1tIcEGNDIXaWPufH0QXs6IMoCAgICAgICAgICAgICAgICAgICAQD1CBYDoEBAQEBAQEBAQEBAQEBAQQkfZBTJM9o1adj0KBFI+Rrn+DRugnFOD4oLQ4FBlAQEBAQEBAQEBAQEBAQEBAQCQOpQfMuPXONyscsFGazj9x8yvlZ2gOZSYpizG1UgPiynaTK/8AqsKDqJxU+km9n7kiWahyDhuec6TRm0dRhOXm0lPJ8pK2SJ1vXQUHxjH/AKU3lMSOZlnkrxedl/ckxLO8EJI9Wx00lvvQauGfSnsP0dxjPJJVBh+tSZ+Y5wHyfRgH70H03hj9Jr5NMwPZS8S+EXEHK73EAzx0VLiMDPUmGYSW+UZQdteXrtL+RXmhniwvgzzKZbr8Tm0hmCV1UaCvc4/VFPVCORx/NBQfdg4HoUGUBAQEBAQEBAQEBAQEBAQQjjACCaAgICAgICAgICAgICAgICAgICAgICAgICAgICAgICAgICAgIIPlDRsUGrUVAI67IJB72YY6aAe8QTt80GjQirdU97T3LuriTsfmg3al8NSxp7sh4O9+o9EE6eIjdBsAWFkGUBAQEBAQEBAQEBAQEBAQEBAQEBAQEBAQEBAQEBAQEBAQEBAJsLoNapftZAgqY5x7NONzs2/1kCCkkhjlg1XDvgcfkgiyjqI9y5p+RQXROPn08kFqAgICAgICAgICAgICAgIBIAuSg6w88vaz8onIjTTYLxBzgcdziItVNkfLTmT19yPdM5JDKRh296VzSQbta7og8heb7t7OeTmZqKrAuH+Zm8L8rzOLY8MyjO72+WPewmr3ASk2O4hEI9Cg6UV9fX4tiU2NYrWz1VZUvL6msqpnSzTOPUvkcS5x9SSgqQEBAQHBrw3WwO0m7dQvY+Y8ig7ZclPbNc6nJniNFg8GfKjO+ToHNbNk/N9ZJUMZEPq01S7VNSuAvYAujB6xlB7rci/PfwL5/OEI4pcGcXkjqKR7IMxZcxAtbXYNUlt+6maCQWuAJZK27JACQbhzWh9sQEBAQEBAQEBAQCbC6Ct82nqUFRqWoJiUtIDha4uEFyAgICAgICAgICAgICASB1KDGtqDHeDxCCQIO4QEBAQEBAQEBAQEBAQEBAQEBAQYc8NQUyVAHigpMpmkEYPxFBKeow+lkFPMy5tuS29kEnubQNEkLdUTjuAfhv4j0QPa2aSKeKxPiQAgxDCb6ndUGyxukIMoCAgICAgICAgICAgICAgICAgICAgICAgICAgICAgICAgICASB1QVyygBBrBwmnbGT1KCvF6mzxSxsA02N7bj5ILqGsdUR9zUgh1tndNX96CI70OMQnc9t9iT4INiFlkFqAgICAgICAgICAgICAg/D8euYngrywcPavipx54jYdlrA6TZ1biM1jLIekUUYu+aU2No42ucfAIPGntBvpD3Grji+u4acnFPXZAyo/VFNmebSMcxFnS8ZBLaBh/ol039OM3ag83ausq8RrJsQxCrlqKioldLUVE8pfJNI43c97nElzidy4kk+JQVoCAgICAgICD7/ANmVziZn5J+cDKvFTDMUljwOvxCHCc50LXnu6zC55Wsk1NvYuicRMw+Do7dHOuH9OjTqF0GUBAQEBAQEBAQRkNgg1hUMil1Sjbz8kEa6F8YFVT7t6uaPLzCCda2YzNLI3EadyAg2kBAQEBAQEBAQEBAQEFUjzew6nogpqHSQkayLHoUGQ7TTibVe7tkE4ptXiguBBCDKAgICAgICAgICAgICAgICCL3aQg13yPe7RGLn0QYpdJmfBNGdVvHyQV1wiw8xTMicSHbuv1H70Eqmgp8UDaqGaxI6gXugnM1kVO2kadVrXQSghAHRBe1oagygICAgICAgICAgICAgEgdSgxqb5oMgg9CgICAgICAgICAgICAgICAgICAgIIukDUFUs4HigriYaklznWaOpQZbSROcKikqNTmn8oEH0QJBh9Y4OmsHt2IJsR6IEzo5A2CFo0t9EE4YbILwABYICAgICAgICAgICAgIBIG5QdFO0j7cngLyWOr+FvCeOkz9xKh1RS4VS1X/AEfg0lutdOw/GD/1eO8htZxiuCg8PeZ3m05gOcXiNJxQ5heItXj2IjU2hp3fi6TDYif5Glgb7kDPO3vO6vc47oPnCAgw5wY0ve4NaOrnGwH2oOzPKr2Q/PpzeUtNmDh7wXnwbL1VpdFmjOUpw2jkYej4g9pmnb6xxuafNB3X4b/RZMYnw5lRxf5xIqerI/GUmVso95G0+ktTMC7592EEOLH0WrHqHAZa7gZzaw1+JMaTFh2bstezxSm3T2imkcY7+fdOQeYvH7gBxa5YOK+KcFON+UZcEzFhD2+1Uj5GyMkjeNUc0Ujbtlie3dr27HcGxBAD8agICD9Hwe4b5j4x8WcscJsoUb6jFMy5go8MoYmC5Mk0zGX+QBLifANJ8EH9ZdFAylpYqSNxLYowwFx3IAtf9CC5AQEBAQEBAQCQOqCieYAIK4YonMdUVFi1t9ig16XE2QzmOx7kn3QTct/uQblTLURNE0BY5niCP0hBegICAgICAgICAgICDDzYINSd7i6zb38LIJsl73+J1rLOcPdJ+t/egz7LGylFNLNYB2zr2vvdBg0zIW6hMfTbqgtiPRBYgICAgICAgICAgICAgICAgpqHWBKCLC6GkM8URe8+ACDVjpcXlk9o73Q4i13Hw8rILoZX2NBibRcj3Xk7OH70EZaWlh0tpbg33s7wQWQQ23IQbLW6QgygICAgICAgICAgICAgw52kIKXynfSCbdUEGTukfob1KCYl0vLHHcILWvDkEkBAQEBAQEBAQEBAQEBAQEBBCSQAddkGrNUetggsdRtmDXRze6R7xHigrojFUU8tEJgSCRqHiPNBDDaCspasukNmWsSD8SCckbZKlz2+JQXxQAeCC0AAIMoCAgICAgICAgICAg/M8VuLnDPgdkLEuKPF/O2HZdy/hMBlxDFcUqhFFE3wFzu5xOzWtBc4kBoJNkHir2l/b/8AE/mDOIcG+TqoxLJmSpA6CuzQ68GMYyzoRHbehgd5A984dXR3LEHm2XE3J8SSfUk3J+d0BAQfpuDXCDiDx+4qYDwY4VYE7E8xZlxFlFhVEJAwPkdclz3nZjGtDnuedmta4+CD3l7PHsL+Wzk/osP4gcW6Ci4icRY2tldi2J0gfh2Fy2vaipnggFp6TyB0htcd3fSA70NaG9Agyg1cTxKgwjD58WxWthpqWmhdLPU1EoZHFG0FznucdmtABJJ2AF0H83fbGc4mS+dbnexriRwykZPlfA8Mp8v4BiTWafwlDTvle+qF99D5ZpNF9zG1h21WQdWUBBsYVhOK4/i1LgWBYZU1tdW1DKeioqOB0s1RM8hrI42NBc97iQA0Akk7IPcbsWuxmm5VDR81PM5hkcnEeopXfwfy8SJI8swyMLXOeRcPrHsJa4i7YmucxpLnOcg9JkBAQEBAQEBBF0gHRBTNUAbAoIGlnmbq1Bt+l0GaeMiJ1DVCxdfSQfiHoghBhMNO/vZ5A8DoC1Aawu9yMkMBu1p8EG6gICAgICAgICAgIMOcGoKJp7DqghQubJO4n6oQaVbLUTVZDyQWus0eSDeZI50BgxCPfTsfyv70EKeHyGyDbjbpCCSAgICAgICAgICAgICAgIIPkDfFBRLMDsEEI6mSFpDQCPIoImbEqqQNhOgX3IHRBbiAbI5jOpbe6DMEFtyEGw1oaEGUBAQEBAQEBAQEBAQEBBXO6wQa8VY2B9pB7p6nyQTNKWVbKmAgsJ94Dw26hBiWkqHTOkaW6Sdt90E2B8ZDH9fmguabhBlAQEBAQEBAQEBAQEBAQEGHGwKDXkBklEYPUoKsRqooGexxRBziN7jp/eghT4hVU0bG1NE5sYFnP0n70Fr8NilnbWUk+i+50jr6oMd7VOJjdNqF7XAtdBdBCB4ILwLCwQEBAQEBAQEBAQEBAQdbu0D7Tzlx7PbJwq+I2LHGM2V9O6TAMj4TO011b4CSS9xTQX2MzxbYhge4aUHgdzxdoXzIc/efxmzjXmfu8Kop3Py/lHDHuZhuEtO12MJvLKRs6eS7z0GltmAPhtwOpQSbFI+N0zWEtbbU7wCCKAg+r8jnMzVcnXNhknmQhwZ2IwZbxUvxGgjIElRRzRPgqGMJ2EndSvLb7amtvtdB/TTwF4/8IuZnhhhvF/glnmix/AMUiDoK2kk3jfYaopWH3opWk2dG8BzTsQg/aIPnnMXzS8A+U7IE3E3mB4nYdlvCowRA6tlvNVyAfyVPC28k8h/Ija4+Ow3QeHXaj9tvxT54Ya3gvwcoq3J3C58hbVUkkgbiOYGg7GrcwkRQ7AimYSD/AIxz9mtDomTfcoCD9bwP4FcW+ZHiXh3CDghkWuzFmLFH2psPomD3WAjVNK82bDE293SPIa0dTcgEPefssexl4V8h2H0/FPiW6izZxUqKe0uNd0XUmCNcLOgoGvFwSCWuqHASPFwBG0lpDvAABsEBAQEBAQEAmwuUFUswb1KCpneVDi1rgLDqgqdHPE5ks7AGd4A656b+KDGMurI5GSQvcGAdWnofVBa8vqsMbJO2z9iD636oIRRPeAHPJ+ZQbUcQAQWICAgICAgICAgEgC5QVyTBvigokqdtkAezwU4qarfV0CDMTaeZvtdBbUNiBsD6FAZXUspEvcHWPEtFx9qDB11D9bht4BBsRRgDogmgICAgICAgICAgICAgIMF4CCD5Rbqgoe8yyCMO6myCbTS9/wCyNjLnAXcbdPmUFEojbM5kb7gfo9EFkMkzWaWHY9PRBKOE31ONyfFBsMbpCDKAgICAgICAgICAgICAgi54HQoNaomBuLoE0rKKiEoYHOk8/G6DVw2vfA7upLmM+nw/3INup7yKUPhqXWduW3uglC1zjreSSUGwBYWQEBAQEBAQEBAQEBAQEBAJtuUFckgCDXdIWSiRvUFBN9fTs/GdyS+3kP1oM0dVJWB/ewBrOgvvdBrwNewGON7tJOwug2YYLDoguAACDKAgICAgICAgICAgw5waLlB5l9qP2+2S+BBxHgRyYV2H5mzrGX0+K5uIbPheBSC4c2L6tZUtN9h+KjI94vIMaDxXz7n7O/FLOOI8Q+JGbcQx3HcXqTPieL4rVOmqKmQ/We93Ww2AFg0AAAAAIOIDmtILm3F9xfqg5mfD6HGKFs1AGse0Wb4f1SgqZTTuy6+lEJ7xkliwDe+ofsQcaaarj2lpZG/nMIQRQEH7vgJzO8wnK7md+cOXvjBjuUq+bT7W7CazTFVhvQTwvDopwPASMdbwsg7LVX0gTtRanA3YMONGBRSuYWnE4ck0QqelrglpjB9dCDqnxZ4zcWuPOcpuIXGriRjWasbnGl+J47XvqJWt/IZqNo2eTGBrR4BB+aQEHY/s/OzA5je0Jze2Hh/hn4FydR1Pd47nvFqdxo6W3xRQNFjV1Fv8UwgNJHeOYCLh77ckXIHy7cg3DYZD4JZY/jtU1jsfzPiAbJiOLytHxzSACzRvpiYGxsvs25JIfb0BAQEBAQEBBCZ1h1QURx9+4ySOsweqDX9uo4K4SRl2i1jbpf8AcgvmEGMUn4mQgtOwPgfUIMQTYhSwhtXCHAGwcHb/AGoMukkqSNQsB4BBfFEAOiCxAQEBAQEBAQEAmwugomm0+KCl7zG9r543aSeluqC6ppacsfM5jj7vRvX7EFFM6DFKEUz3We0D5j1QToqQYax7pJb6ugCCMEOo3IQbUcYAQTQEBAQEBAQEBAQEBAQEGHGwQU7yyaGusgpMVQ6Yw6d7X1HpZBl1DPE9s8UocWm+ki10Fzx7XAfZZgwuPvO07j0+aCsxw00ApY9yTdxP60FkLNkFoaB0QZQEBAQEBAQEBAQEBAQYLgOqCD5wB1QUOkfK8Rs6lBl9DC/8W6oOu3QEfqQZPc92KGuIuB7rjsHDzHkUGGMo6OMtp7OLtut7oMQQW6hBssZpCCSAgICAgICAgICAgICAgwXtHigrlmAHVBTG01F3ufpa3qUGZKePuu+gk1Aet7oKW2JBLQ70KDYkmc9vdxM0t8UGYYdPggvAAFggICAgICAgICAgICD89xO4ocPOC+RcT4ncVc44fgGAYPTGoxLFsUqRFDBGPEuPUk2AaLucSAASQEHh52pXbtcRuar8IcD+VuqxHKXDp2unxDF9ToMUzFH0IcQdVJTOH+KB7x4/lC0ExoPO9oaxoYxoAAsABYAeQQEFuH0RxGsbTg2aBd5HgEG5W1lLhNa1uGssWC0zb+67+/1QcnHVmto/aMOc3V+S8ePkUHF1OYq1zXUxgbG8GznA9PNBx6AgICAgtoaGtxWugwzDKKapqamZsNNTU8TpJJpHGzWMY0Fz3E7BoBJPQIPU3s1fo8WaM9voOMvPvR1WCYMXMnoeG8Exjrq1vUGvlYb0zD4wMPem9nuj3aQ9islZHyfw1ylQZE4fZXoMFwbC6ZtPhuFYZStgp6aJvRjGMADR8h6oOYQEBAQEBAQEAkDqgpndsghC+GSA08zrX9bIKy7CaIWDGuPmBqKDNTE2ncysowGF2zgBs4fJBkvlqbB4AA8AguiiAQWgW2CAgICAgICAgICCMhsEFEDBJOS4X09AgoqziFZKYoonNY07E7fagkyXEqN4krbPjNgS36vqgsko6A6qluxcLgtd4+iCEMTnn3nE+pKDajjDR0QTQEBAQEBAQEBAQEBAQEGC8BBXLKLblBpyyyB2qEHUNxpCDYpa0VsboS4xygWI8R6hBrYfHXU2IdxKXFpBLiTcH1QTnhBrHvZtci9vkguhp7bkINhrdIQZQEBAQEBAQEBAQEBAQYe7SEGvNPbYIIwxCpicRJ7wO3ogiwNo66Nkk4OtpFvIoKa7Dqw1nf09yHOuCDu0oNmvYHiNr7Fw3KBDAOpCDYYwNQSQEBAQEBAQEBAQEBAQEEJX2QUSySNZ3mn3fNBUG1FQ3VFGSPMmyCyjjL4X0VWwtN72v1CDMtPUTSinDBHTs8j8SDGiPvyIh7qC9kY6oLAAOiAgICAgICAgICAgIPinOzz58vfIXwwfxG435mDaipD2YBlygLZMQxido/k4IiRsLjVI4iNgN3OFwCH8/wB2gXaW8wvaFZ7/AAxxJxL8E5Ww+pL8uZHw2ocaKgG4EshNjU1FjvM8bXIY1jTYh13QEF1Fh1XiRIp2gNHxPcdkG/h2HVODVftFQWuicwtc9p+HpufTZBOsy42qqzURVGlrzd4Ivv6INbE5ocOmFPhMhY7RplLTsf7/AFQaAFv2lAQEBAQfYuTjkR5k+evPv8COAWRn1UFNK1uNZjry6HDMJafGeex9624iYHSO8G2uQHup2c/Y68t/INRU2cpKVuceIroNNXnLFqVo9lLh70dDCSRSs8NV3SuF9T7HSA7fAACwCAgICAgICAgIMFwHVBTNNp8UEBTzyt1EgX8CUFT2OY4se2xQZp4KS5fN1HQHogslc6oeNrNHRBdFEAOiCxAQEBAQEBAQEBBhzg0IKZZh0JQUtldHJ3jP0+KBNiFSRphiAJ8eqC0d82hcKx13OBHRBVBALdEG1HGGjogmgICAgICAgICAgICAgIMONggp96V+hpAt4oNWpkdC/u5OvggurKsYXExscWou6klBh7osRpfbIPckjuWnxBHgglHiDpIR+Ls/x8kGYIje7upQbDW2CDKAgICAgICAgICAgICAgoqH2BQRL4qOD2mYXcegQadPXVLJJJYKHUH/AJLTsg2JYabGYBKw6ZG+Pi0+RQZJrKQNidUh+3Ut3CCUcbnu1yEk+qDYYwNCCSAgICAgICAgICAgICAgwXAeKCiokFtigrgr4w72aoIsdgT+1BHFaisoo2GkYBGNiQL29EEnTOrMOFUPckb0I8DdBFktXK3TJKT52FkF8MOnwQXgWFkBAQEBAQEBAQEBAJA3KDpT2ofbKcIOQnC6jhtkZtHm3ilUU96bLrJiabCA4e5PXvYbsH1mwNPeSC3wNOtB4Kce+YLjFzP8TsQ4xcdM9VeYMwYk60tXVENZDGCS2CGNvuwQtv7sbAGjruSSQ/GIMsY+WVsMYu5xs0eqDany/iLJTGxoeA3UHDYfL5oN6JtQ3LrfYLiQC7tPXrv9qCOXq6qqu8pqkl7WtuHO3PyPmg4yaeohnkpqeqkEbXuDWh5ta6CoABBlAQEE6enqKuojo6SnkmmmkbHDDFGXvke42a1rRcucTsALknYIPTPs4vo8nEjjCaDi5zvCvyflh+makyTTv7rF8SZ1HtLv+oxnxYLzkXB7k7oPZfhNwf4Y8CchYfwu4OZFwzLmAYXF3dDhWE0oiijHi6w3c4ndz3EucbkkndB+nQEBAQEBAQEA7C6CqSW37kFL6nZBQ6oAlYX/AAlwuT0tdBt1AMUvtksrtDG+6xviUFQbPUsdVTDQPqNPkglDGCNwgvZEB4WQTAtsEBAQEBAQEBAQCQOqCJlAQUTz7EAoIjuIIRPU3JcfdA8UCriiiAew2Lj8KCMDnsfqZ9o80FjmyTO1SH5DyQXRxho6IJoCAgICAgICAgICAgICDBcAgrklFuqDXaZX1AEJsb9fIILauCnxBrqfvBrZ4jq1BX3sNRH7FibQ2RviTsfUFBkCmpqc01Lvq6m90GYILdQg2WsDUGUBAQEBAQEBAQEBAQEBBF7wAg16h4IsEAVNOYgypZe3m26DDcSMk7YIKYkE7km1ggjVtMdZ3kB0ktGq3ignFE57tchJPqg2GMDQgkgICAgICAgICAgICAgIISvsEFMksgbr02B8UFdO0VUhBOwG9kGQ/CaqQ0uht/A2tf5FAikNLIaCrdrYR+Le7y8iglI+MsFNTtsweSCyGGwQXAACwQEBAQEBAQEBAQEEZJGRMMkjg1oFySbAIPKPtX+30w7JTsU5c+RLMNPX400vpce4kU+mWmw9wu18WH3u2eYG4NQbxxn4Nbt2B444ti2K49ilTjmO4nU1tdW1D6itrayd0s1RM86nySPeS573EklxJJPUoNdBZS00tZUNpoerupPgPNBt4rR4Xh8LYYZHe0NINwd/t8kHIUuK0OIN9jZM8OdH47H7/NBrUlPi+ESvihg76HqPet93qgrq8ySSRmGkpzG49XOO4QcaBZAQEBB9g5OuRPmT56c+/wAB+AORH1cNNK1uM5iri6HDMJafrVE9iA624iYHSO8G2uQHuf2dXYz8tfIdTUmea+mZnXiMI/x2cMXpGhtC4j3m0EBJFM3w13dK4Xu+x0gO4oAGwQEBAQEBAQEBAQRe4AWQazqhsUut4uB1QWmCnleKse8LXsNwUFFPi0FZMaWSHSHbDUb39D5IMmpmo5jTFmto+Ak7geSCTpJakgEWHkgviZYfJBNAQEBAQEBAQEBBVK8jp49EFNSyaJoduQfLzQYNBUSM96RrSfDqgtpj7raeoaBJGNvXwuEEY6buJHVdXNrefhsLAfJAgbqJdawJvZBe1gHVBJAQEBAQEBAQEBAQEBAQCbC6CiVzi4MaNyUEJ6aoa3Uz39twEFFBUhlaY5vdJbYB21igSYbWx15qqWQWc4m5PS/UFBsV/dyaYy0FwN7+SBBBbchBsNYGoMoCAgICAgICAgICAgIBIHUoIvkAGyDXe98jxGzqUEvZYyTGJwXgbhBruaWuLHjcdUF0EscUfuQ+95+aAyNz3F8m5KDYY0NHRBJAQEBAQEBAQEBAQEBAQYLgEGvUv26oJUr3VETmSsu0bA+aCmJhw2qcJD+Kl+F58D5FBj8DMFUJ45bN1arW3HyQTqtM8407hotdBZDBYdEFwAAQZQEBAQEBAQEBAQcHxC4g5J4UZMxLiLxIzXQ4JgWD0jqnFMVxOpbFBTRN6ue92wHh5kkAXJAQeGnau9uTnnmzdiPATlgrsQy1w0JdBiWLe9BiOZmdCHdHU1If5raSQfyhAJjQeeQAADQAABYADYBAQEG1gtXDR4hrndZrmFuo+G/9yDkZaPAo5nVtTO15edVnSXH2AdUB0WF4nRvmo4gx0fwvazSQRuEGi7Mde+n7jS0OIsZB1QaIFkGUBBOnp5quojpKSCSWWaRscMUTC58j3GzWtaN3OJ2AG5OwQemfZw/R5eI/GI0HFzndFfk/K79M1Jkmnf3WL4kzqPaXf9RjP5AvORf+RNig9luE3B/hjwIyFQcLuD2RcMy5gGFxaKLCsJpRFFH5usN3OPVz3EucbkkndB+oQEBAQEBAQEBAJsLoK3y26lBRJUXFggwKRksfeVEulp9bIMCGTDbzwSGSE7vYeo9Qgs9ko5J24i0+F9uhPmgiR385ktt4IL44wAgsQEBAQEBAQEBAJA6lBB8gsg1qiUHa6DFJiNpBTVNxf4HHx9EFOKsr4KkVcUzizwA+r6IL8QYZYonPFn9T6bboMRQOdu4k+pQbUcYaOiCaAgICAgICAgICAgICAgIB3BQatRqa4Pb1CDNQ+qfHHUURub2cw9CEEqltHIGx1gZqI29PtQVSmeB3dR1bnC3QgEj7UEoYSTqde90GyxukIMoCAgICAgICAgICAgIMONggpc97iRG0koKDNJI7QwEnyCBCJ6eqa6oiLWu21XuAUFs0MtOHGih1SSuJc8kbIIPpmwRNa595CbuPmguijuOiC1rA1BlAQEBAQEBAQEBAQEBAQRkdpCCgvlkJEbb26oNeeYtJa+4PkUFlQ2WbCQKUkmwJA6nzQZwyWeqp3Q1sJIAtqcPiQVsi0PMcT3FgPu3KDahh0+CC4AAWCAgICAgICAgICAg+Z81HNpwK5NOFNXxj4950iwrDKe8dJTsHeVWI1FiW01NCDqmldbZo2Au5xa0FwD+fjtJO1Q459ohnQ0mOSS5dyBh1WZMv5IpanVG1wuG1NW4WFRUW6H4I7kMHV7g6vICAguosPq8QJ9mYNI6vcbBBivwqsoLOnaC0mwe03CCuhjpZalsdXKWMPVwQcliGI0lLSfg3C7EEWc9puAPHfxKDiwAAgygIPrPKHyR8x3PDxDHDzl+yJJiBgez8L43VuMOHYTG769TPYhm1yI2h0j7e6woPdDs5exh5cuRCno8/Y1DHnXiQIwZc2YpSAR4e8j3mUEBJFOPDvCXSuF7uAOgB3LAA2CAgICAgICAgICAgi9wta6DXM7YpdTxcfqQRxGleWGenF/Fzf2oMVcJxKgY+mcLgXDb9fRBnDYZ6ekeyqFh4NJ8EEKeFwaGAm3ldBtRRWQWoCAgICAgICAgIKpXm9h1PRBRVmSAan9D4jzQKV8baZ9a5urTewQYpq6nxTVTTwgEjYE3uglBUvpnupagl+j4HeJHhdAJfUSa3Cw8Ag2I2ABBNAQEBAQEBAQEBAQEBAQEBAQVVEeoIK6N2h7oieu4QUyU7jUuL3ajfqUF8NOB4IL2sDUGUBAQEBAQEBAQEBAQEAkDqUFcrxZBqit9mfqcLtPUINh7rQPqaFjXucLj1Qa+G1764vpqlgJ03vbqPIoEc1VE90Ilu1riG6hvZBZHE97tchJKDZY3SEGUBAQEBAQEBAQEBAQEBAQVz9DbyQV0kty6G9j1BQRikZXOfTVVL7zNnHw+woEVJUUN/ZZNbDv3bzuPkUGHVU040hmm/WxugsghsOm6C8AAWCAgICAgICAgICAg62dop2mfAfs8OHzcVzxVDGc3YlTvdljJVBUNbVV5G3eyHf2emDtnTOHgWsD3e6g/ny5vucvjzzwcWp+LvHnNJrKn3o8JwmluyhwenJv7PTREnQ3pqebvkIu9xNrB8rQEGCQ3qgwXF2wGyDnaCGSowSKKin7ok++8deu/2oI1MkmKSfgmjLu6ZYTzu36eHqg4ean9mqHwF4doda4QYQEDp9pAHzOwH3oPRvs2ewB4t8xf4P4vc3MeJZGyRIGz0eXwzusaxmPqNTXC9DC4fWeO+cPhYy4eg9q+DHA7hLy7cPKDhTwS4f4blvL+GttS4bhkGhgcfie47ukkd1dI8l7juSSg/XICAgICAgICAgICCuWUN8UFElQelkEKYsmqQ1xvbdBibFZKbEHRTN/F7CwG49UFk8Tqcmro5dLX2LmeB9QgwHT1FhI7byCDYiiDRayCxAQEBAQEBAQEAkDcoIOkFrINapkB6ILmlvcNirXNu/YA+Pogoi/6Me6nqN4Xn3H26ehQSgpsOpZDUwyXPgA69vkgw1hnkMhHUoNmOIAdEE0BAQEBAQEBAQEBAQEBAQEBAQYc3ULIKnRWdqGxCAyLe/UoLQAAgygICAgICAgICAgICAgw42CCl0jiTpBNhcoKHzGRwYDuTYBBOb8HUpEdVYud5i6CLmfg0iopiXQOPvsve3qEFpkpY7zwBpfIOo8UEYIiTqcEGy1oagygICAgICAgICAgICAgICAgjILhBqyB0Uokb1BQW1ckgp9dP9bq7xCDXp2StZoD3WPUXQbEUAaguAACDKAgICAgICAgIBIG5QdE+1a7aHhryN4XV8H+Dz6LNHFaogt7A5+ujy81wu2atLTvJYgspgQ52xeWNILg8GeK/FniTxz4hYpxX4v5zrswZixmo77EsVxGXVJK7oGgCwYxo91sbQGMaAGgBB+dQEAnSLoOZhjw7HaFsbWCN8YtZvVv7wglPitFg8raCOldYAai0W/8ANBmtqRhsTcRomNdFKR3jBsDcbOHkUGpVZmlmiMdLB3ZI3eXXt8kHHD1N/MoCD6Dy2crfHjm54kwcKOX/AIeVmP4tIGvqTENFNQQk27+pnd7kEY/Kcbu6NDjYIPcXs2ew04EcmHsHFPi86jz7xKhLZYsTqaa+HYLJbpRQPG7wf+sSDvNrsEVyEHe4AAWCAgICAgICAgICAgIDuh+SDWncA4FwuL7hBKqlpWMaKhn4t2wdbYfuQUOw+SN7arD5gfENcdj9qCx89LIWmrpSJG9A5l/0oMSSOqXgAWaOgQXxRADogsQEBAQEBAQEBAQVzPsgq7meVmsG1+gPig1KmSSB4E0ZG/j4oLsUo34hEyamcHWGwv1BQWxCWOh0YgA51rW8/L7UFVPTjwCDbjjDR0QTQEBAQEBAQEBAQEBAQEBAQEBAQEBAQEBAQEBAQEBAQEBAQEAkDqgrleLIKaed4n7sNuHHe3h6oI11I+ORtbTtvpcC9g8fkgxWUUeJsbUU8ovbx6EIJviFPQto3P1G37boMQU+1yEGyxmlBJAQEBAQEBAQEBAQEBAQEBAQEFUsQdsggGyd33PggnFEAgtAtsEBAQEBAQEBAQEGHODRcoPKztbu3kw/hucU5auR/MdPW5jaX0mY+INMWy0+EOF2vgoTu2apG4dNvHEdm6330B4y4liWI4ziNRi+MYhPV1dXO+erq6qZ0ss8r3Fz5HvcS573EklxJJJuSgpQEGC4DqUF+HYbNikpax2ljficR0QclFgQp3e0YZXnvGflWIPobILHxU2OwGKZvdTxGzh4tP7Qg1MdqII6ePCaY37u2s+Vh0QcaAAEGSQ1pc5wAAuSTYAeZQd6uzZ7DXjvznmg4pcZPbsg8NpS2WKuqKYNxTG4uv8AE4ZB+LjcP+sSjTvdjJOoD3H5a+VjgPyjcNabhPy/8PKLAMJgIfN3DS6esmtYz1EzrvnlPi95J8BYAAB9DQEBAQEBAQEBAQEBAQEGvUR3CDFO2OohNLO24BuAfJBCermEvdU40tYbG46oMudLUkawAB4BBdFCG+CC0C2wQEBAQEBAQEBAQEFNS24KCEL3ywOha8te0e6UGYXSSUhdiUTGjxB8kEDCKaPvaKpsw9GHcH5eSCLRNOQZHEoNmKMNCCxAQEBAQEBAQEBAQEBAQEBAQEBAQEBAQEBAQEBAQEBAQEBAQCbC6CiSUg2G5QUzySR7SAhBLDXskfIQdwBb5INehqK6nrDTTxveHO39PUeiC6qp2wz66d7mF+7g02QThhLjqcg2GM0jogkgICAgICAgICAgICAgICAgICAgIMaG+SDKAgICAgICAgICDRxzHcGyzg9VmLMeMUtBh9DTvqK2urZ2xQ08TGlz5HvcQ1jWgElxIAA3QeJva39uvj3Ho4py3cmeYarCsju10uP50pnOhq8wM6Ohpjs6CkO4L9pJht7jCdYeZbQ1jQxjQABYACwA8ggICAXBu5F9+iDmTSUWOYc19MwRvYLN2+E+R8wgxgUTmU9Rhk145Q438wCLXCCnCcOxOhxMNMZEe+twPuuCCjGp3Mxd76WUtcGhrnNNvDdBqAW/aUH6ngzwS4s8w/EOh4T8EsgYlmXMOJO/iuGYZDqdpBs6R7jZsUTfrSPLWN8Sg9qezW7ALhRy5nDuMfNu3Ds854i0T0WBNZ3mDYLINwQ14HtkzT/jJAI2n4GXAeQ9IWMawaWiwQZQEBAQEBAQEBAQEBAQEBBGRuoIKGsdFKHt+0IDmCWUv02QXRxgDdBNAQEBAQEBAQEBAQEEZG3CDV3gmEgG19/kgliMb5Cw6/c8vVBGGn2Fxsg2Y4g0dEE0BAQEBAQEBAQEBAQEBAQEBAQEBAQEBAQEBAQEBAQEBAQEBAQYf8JQaxk7qcOd06FBKpqhDO2CeDUyT4SBffyIQRdhvdS+0UUmh3i124KDL62dh0PpgHeeq4QRiY+R3eSG5Pig2WN0jogkgICAgICAgICAgICAgICAgICAgICAgICAgICAgICAg/L8XeMHDLgHw7xTi1xhzpQ5fy9g1MZ8RxTEJdLIm9AABcve42a1jQXOcQ1oJICDwL7VbtjeJvPvjVTwu4cOrss8J6Wp/i+DPdoqseLHXbUV2k2DbgOZTAlrdi8veBoDpOSSbkoCAgwSAgi52pBzuJVMuC0UEdEwWvYkjY/+aCYMONU7ayjkMU8ewd4tPkfMIOOmx/FCDBrYCDYvY3dBpgeJNyepKDtz2c/Y8cx/P5XU2c3QSZO4cCX+M5zxOkJdWtBs5lBC6xqXdR3pIhab+84jQQ92eT7ka5ceRjh1/wAn/ALIkdEZw12L45VETYji0rR/KVM5AL/GzBpjZchrWhB9iQEBAQEBAQEBAQEBAQEBAQEBBgsB6IAYB1QZQEBAQEBAQEBAQEBAQOqCqSIHwQR7sm2o3t0QWsZbchBJAQEBAQEBAQEBAQEBAQYLgOpQNYQA4FBlAQEBAQEBAQEBAQEBAQEBAQEBAQCLiyDWqY772QTpZO8i3bdzOl0Gq11TJP3znkO8APD0QXshc52t5uSgvZGGjogkgICAgICAgICAgICAgICAgICAgICAgICAgICAgICAg+Yc2HN3wN5LeElZxk48ZtZhuHU57uio4QJKvE6kgltNTRXBlldbpsGi7nFrQXAP56u0X7THjl2iPEf8MZymfguTsLqXOytkmkqS+nohuBPM4WFRVFvWQizblsYaLlwdb0BAQEHNYKaP8FOkZT6iL9821y4/+SCqTBsNxJhnwyoDT4t8B9nUILm1QgphSY5TmwFhJp1Nd5dOhQa1ZjNJBTGjwdltXV4ba3373QTyLkPOvEzN2H5A4c5TxHHccxaoEGG4ThNI6eoqpD9VjGgk+ZPQDckAEoPYbs1vo7+Wsk+wcZefano8cxdpbPQcOaeYS4fRu6g10jTarkB/xLfxItZxl8A9UMOw+iwfD4cMwuiipqamibFBTwRhjIo2izWNaNmtAAAA2AQbKAgICAgICAgICAgICAgICAgICAgICAgICAgICAgICAgICAgICAgICAgICAgICAgICAgIMPdYIKC+RwJY29kFcUrpZRG1wuUExMGPLCehsgvZICP2oJICAgICAgICAgICAgICAgICAgICCMjNQQUsY+J5cwdQgzHF72p25JQXNaGhBlAQEBAQEBAQEBAQEBAQEC480BAQEBAQEBAQEBAQEBAQEHX3tAe0W4EdnpwuOcuJtecRx/EI3tyvk+gnaKzFpm+V791C0ka5nDS0GwDnFrCH883ORzpcduebi7UcXuOeZBPKNUWDYLRlzaHBqYm4p6aMk2Gw1PN3yEXcTsAHyZAQEBAQbeA1vsdd3TzZkux9D4FByGIVNPgVOY6OECSUkg22Hr/cg0HZgrp6U0xY3U4WMgHh8kH3/kE7MLmX7QTMzY+GeBjCMpUtT3WM57xiF4oKUj4o4QLGrnA/xUZsCRrfGDdB7xch3Zp8s/Z/ZQ/BvCfLZr8x1lO2PHc6YuxkmI4gepbqAtBDfcQx2bsCdTveIdh0BAQEBAQEBAQEBAQEBAQEBAQEBAQEBAQEBAQEBAQEBAQEBAQEBAQEBAQEBAQEBAQEBAQEBBVO6wO6DXiqnwuJ0FzOrrD4fVBb7K11Uytp3CxvqA8bjqgxJQyOldIJRZxvYjogyxpidoc4H5IL2m4QZQEBAQEBAQEBAQEBAQEBAQEBBgua34nAfMoDnW8D9gQcJmniHw+yRGZ85Z3wfCI2i7n4nikNOB9sjgg+YZz7RvkG4fNcM1c4/DWmc34omZxpJXj+rG9x/Qg+a5k7cvss8ttd3nNdh1dI3/F4RgeI1d/kY6ctP3oPn+YPpHnZs4K9zcOxrPGL26HD8lTNB+RndGg/F4/9J85LaIkZc4J8T8Qt8JloMPpwf7VWT+hB+Pxb6U3wjhJGBcn+bageBrMzUUN/7LZEH5/FPpUsRB/AvJBKPI1nEFv6mURQcBX/AEp3iW8n8GcmmBRjw9ozxO7/AFaQIOLqPpSfMA4/xTlNyawf9pmesd+qIINU/SjeZm/ucruQwPXHK8/sQY//ABRvM5//AGu5C/8A+3X/ALkF8H0pHmJaR7Tyo5Jf56Mx1rf1xlByVF9KZ4uMI/CPJ5luQeJgzpUt/XTFBzmG/SpMSFvw1yRxO8/ZOIJH+tRIP0GHfSoeHUpAxfkyzFAPE0ecaWb/AF4WIP1WAfShuU6qLRmXl44k0N/iNMMOqAP/AJlhKD9ng30lHs6sV0tr6LiLhd/iNbk8SAf9xPIg/dZa7ersu8whrajmMkwt7xszF8p4nBb5n2ctH3oPo2Te1M7PDPbBJgHOTw+s42aK3MUVIb/KfQQg+q5Q4+cEc/Bv8BeMOVsb1fD+CcxUtTq+XdyFB+uD2ke74+QQZ1tvbUL+V0GUBAQEBAQEBAQEBB1B7ULtauEnZ65QdlrDGU2ZeJmKUhfgWUmT2ZTMdcNq61zd4oAejR78pFmWGp7Q/n5488fOLfM1xRxTjNxvzpVY9mHFpL1NZUe62NgvohhjHuwwsBs2Ntg0eZJJD8egICAgICARf9hQcrG3EM2TUOXcGwiprsRq6hkNJS0kDpZp5XGzY4mMBc97jsGtBJ8Ag9SezX+ju4xmb8H8ZOfqlmw+gOieg4aUtRpnqB1BxGaM3ib508Z172e9u7EHsDk7JmU+HmWKHJWRMt0GD4RhlM2nw7C8MpWQU9NE3oyONgDWNHkAg5VAQEBAQEBAQEBAQEBAQEBAQEBAQEBAQEBAQEBAQEBAQEBAQEBAQEBAQEBAQEBAQEBAQEBAQQfIAOqDVqJwb+SCVXM6iomuhb7zjYm3og1cLqpoCW6HOj6usPh9UGzUNjEokppCC7dwadkFkEZG56lBsAWFkBAQEBAQEBAQEBAQEBBgvbb3Tf5boPnPFfm65XOBkUsnGHmHyZlp0I9+DGMy00Mv2Rl+sn0AQdbeJ30gjsy+HeqLCeLmL5unZ1hylliqnBPkJZmxRH56rIOvXEj6UtwwojLTcIeUvMeJncQ1OZcxU1A35lkDZ3fZcIPgnEP6TTzv5ljkpcgcLuHeWY3E93K+iq8RmaPzpJmMP9hB8Pz/ANtt2n/EIOiruanEMKid0hy3gtDQBo9HMhL/APSug+M565v+bLieXf8AKHzP8Q8ZD/ijr851zmH+oJQ39CD53XPficxqMVcaqQm5kqiZXH7XXKCLGshFomBg8mC36kEi9xO7iftQYQEBAQEBAQEBAQEBAQA8RuDi0Osb2Pig5t0dHj9EHw2ZIwWH9E+R9EEHUVZNgH4PfES9j/hcf6V0HFtwCqppBM3CmscDcSRxtv8Ae3dB+pyXx9478N5WzcPON+csCcw+4cHzXW0wH2RygfoQfY8h9r32l/DqRj8C5x821bWWtFjzqfE2n0PtUUhP3oPtvDv6SL2iWUHNZm6lyDmxg+P8J5akpZHf1qWZjQf6n2IPu/Df6U3Usayn4wcnmo3HeVeVs3A28yIqmEfd3iDsJwy+kf8AZ154dFT5xqs6ZNleB3rsdyu6eFh/ylE+bb1ICDsfwm7R7kQ446I+GPNlkXEJ5CBHRTZgipalxPh3NQWSX9NKD7PS1lNW07KqkqWSxSN1RyxvDmuHmCNiEFwIIuCgICAgIOPzHh+K4rl6vwrBMflwqtqaOWKjxOKnjlfSSuaQ2ZrJAWPLSQ4NcC0kWII2QeL3OJ9HS51MUzhjXFfhlzAYdxXxDFqt1XiD81Suw3GKyZ3UukcX08p2AHvxNAAAa0AAB588duVzmM5Y8X/AnMDwUzHlGUvLYpsZw1zKaYg2/F1Dbwyj8x5QfgkBAQEBAQfY+TXkP5kee3iB/AbgNkt1RT00rG43mTENUWGYQ131p5rH3rbiJgdI7wba7gHu52dfZC8uHIDhUOZ6GkGa+IUtOWYhnfFqRoki1CzoqKLcUkXhsTI4fG9wsAHbRrQ0WaEGUBAQEBAQEBAQEBAQEAmwuUFbptPU2QQ9pHTV+lBNsu9r/YUFgIPRAQEBAQEBAQEBAQEBAQEBAQEBAQEBAQEBAQEBAQEBAQEBAQYc4NQVSVAHUoKQ51RII2nqgk6HD3v9mdJ7/wCdugy6SKBopKzdpHuOI2I9fVBgSU0MXd0bLX8QP3oEEFtyEGyxukIMoCAgICAgICAgIK3zRxsL3vAa0EucTsLeZ8EHwfjv2oHINy4Pko+KnNFlWnr4gdeEYXXfhGtDh9UwUgke0/nAIOnnGr6T9y2ZaL6LgNwEzbm2YAhldjc8OEUpPgQD30xHzjaUHUrjF9JC7QHiC59Nw3ocmZDpjcRuwvBjX1QB85axzmX9REEHVbi3z285/HjvIuLnNJnnGqeUkvoZMwzQUu/h3FOY4remlB8n0RmZ1R3be8cbuk0jU4+p6lBkkk3JQEBAQEBAQEBAQEBAQEBAQEBAQEBBfhNE3Ea0Rv8AgaNTvUeSDYxHEoqTEQcOhDDF7ryBYP8ASyDkoK0YpRmSin7uQdQQDpPkfT1QcRU41iNQx1LJI217OLB1/uQaqAgICAgxLFHP7s8TZB5SNDh+lB+z4XcxXMBwRqm1nBrjlm/Kr2nYYBmOppmfbGx4YR6FpQdoeDvb+9pZwo7imxvijg+dqKC16bOGXYpHuHkZ6buZD8yXIO2PBX6UjgExgoOYrlVrqQ3AqMUyTjjKlvzFPVCNw+Qlcg7f8De217Nnju+noML5i6DLeI1BAbhmd6aTCZGk+HeTgQuP5shQdosv5ky9mvCYcfytjtHiVDUN1QV1BVMmhkHm17CWkfIoN8EEXBQEBBx+YMs5ezbg1RlzNOA0eJ4fVMLKqgxClZNDM09WuY8Frh6EIOlnND9H95BOYEVOM5GylWcM8dmDnNrslSCOkdIT1fQyB0FvSMRn1Qeb3NV9Hr55uAXtOP8ACmhoOKeBQ6nNlyyDBibGA7a6GZ13n0hklPog6N5gy9mDKWO1OV814FW4XidE8srMNxKkfT1FO4dQ+KQB7D8wEGmgAEkADckAADqSbAfMnayD0k7Nb6P5xS5g/YOMPOHFiWSslyBs9FldoMOM4wzqO8uL0MLvNw75w6NjuHoPafhDwZ4WcAcg4fwt4M5Dw7LmX8Li0UWF4XTiONnm4+L3uO7nuJc47uJO6D9SgICAgICAgICAgICAgICCMrrBBTE6KR5ZIdz0ugqdG+nrGNeLsc6zSgVEpZVObv4fqQXQzavFBeDcXQEBAQEBAQEBAQEBAQEBAQEBAQEBAQEBAQEBAQEBAQEBBF79IQa8sxcdLBc+iDFOyKqic3WQ8Hr5IIa6fD8QZGZT77LO1eHkf0IIVeETSVXfwSCznXNzuCgvrg15ZGTcjcoMwwAdQg2GsDUGUBAQEBAQEBBx+YczZdyjg0+Ys1Y/RYZh9KzXU1+IVTIIYW+bpHkNaPUlB085ju3t7OzgE+owrA+JlTxAxeBzmHD8hUftkQeOgdVvLKYC/wCTI4+iDolzB/SbuZvOhnwvly4N5cyRSP2ixHHJXYvXj+kG/i4GH0LZB6lB0i4789HOHzNSy/8ALlzH5sx+mleXOwuTFXU9CL+Apafu4QP6iD5PGxkI0QxtY09WsaAP0IMoCAgICAgICAgICAgICAgICAgICAgICASBuUG1h2D1GJNMmsRxg21EXv8AYg3qPC5cFnNT3okiLbSWbYt9beKCdRgNDWT+2tnIY86nBpBB9QUGhjFVTGcRYaA0NZoe9hsHDy9UGkBYWQZQEBAQEBAQEBAO7S0nY9R5oP1fCbjrxr4DYuMd4IcXMy5RqgbmTLmNTUgf+cyNwY8ejmkIO53L99Iw5+uEhhw7ig7LfEjDmBrX/h3DxRV2keVTSBrSfV8Tyg708u30knkm4oOgwnjfl/MfDTEJDaSfEKb8I4c0/wDtFMC9o9XxNHmUHeThHx44McfMuMzdwU4p4BmrDXNBNZgGLRVTGX6B3duJYfRwB9EH64EHcICAQD1CD5VzK8lPK1zf4D+AeYjgtguY9DC2lxGop+7rqTrvDVRls0XW9muAPiCg8w+br6MlmvCppsz8lPFuPE6YvuMp55mEU8YJG0VdEzS8C592WNpsPjceodpezY7DvgVyVCg4p8WTSZ84mQ6ZYsVqKX/o/BZLdKGB4+MH/rEn4w2u0RAkIO9gAGwQEBAQEBAQEBAQEBAQEBAQCQOqCiolAHVBUKaN0JnqJC0eBB6eqBQYgyp/ETkFwPukj4v70F09VJBJpfBdp6ODkEWyGV+oMsPBBewWCDKAgICAgICAgICAgICAgICAgICAgICAgICAgICAgICAgoqHkC6CMsraCm73Tqe7p80GrBJi4L5YaYEP3Nxbf0QXltNi8OiVhZIw7jxaUGHRyUpbDDVPItuCeiCyGE31O3KDYa0NCDKAgICAgIMFwHUoOtvNd2svIpyeSVGD8T+NlHX5gpwb5Uys38I4jqBtpfHEdMB/yz4wg82+aD6TXx8zo6owHlS4SYXkuhddsWO5lLcSxEi+zmwttTwn0d3yDz9468z/ADEczmMnHeYHjRmLN02suiixnEnSU8Nze0VOLQxD0YwIPwlzsL9OiAgICB0FyglTQy1coggaXOPggj02QEBAQEBAQEBAQEBAQEBAQEBAQEGYWGonZAxwBe4C56BBvz5ZqhK7uZWuYG3a5xsSfJBsiGWry8yKidZwbu1p62O4QYy6a9rZIKqN4jb8PeC1j5boOHmDTPI2I+5rNreV9kAAAWCAgICAgICAgICAgICAgA23CDlsj59zxwxzLDnPhrnLFsvYxA4OhxXAsSlo6hhH/aROa77CbIO8HLD9Ih56uCDqbBeLc2E8UcFi0tc3MEQpMSawH6tZTts4+ssUh9UHo7yq9vzyF8xb6XAM7ZrquGePzlrPwfnUNjpHyE9I66MmAj/KGMnyQd1cJxjCcew2DGcDxKnrKOqjElLVUszZI5mEXDmvaSHAjxBQbiAgICAgICAgICAgICAgICAgIMOeAgolqAOhQVSQ1UjdTIvlcoJuhNbQCEHS9tgQfAjzQU02FCNpkqnWsNtJ6eqCzVLOA17rgenVBsRRADogsQEBAQEBAQEBAQEBAQEBAQEBAQEBAQEBAQEBAQEBAQEEHyABBrzyBwsCgyyuEbA2SMm3QhBGKvqqipEcUIDL+9ffZBisY01feMNiGi5CCyGE31O6oNhrQ0IMoCAgICDUxXFsMwPD58ZxrEYKSkpYnS1NVVTNjjhY0XLnOcQGtA3JJsg6F84n0hfk35ezV5V4ICbirmWEujIwCoEOEwSC4/GVzgRJY22gbL5XCDyx5t+2R57+b51Vg2ZOKkmU8t1N2nKuR3PoKd7D9WaYOM9QPMPfoP5A6IOrDQ1oIa0C7rmwtc+fzQEBAQEBAQcngk9BVUzsMqImhzj1P1/7wgtwrDpsMxN8bt43xnQ/z3Gx9UHHzYRiUcri2jeRqNrb7fYgpkilhdomjcw26OFigigICAgICAgICAgICAgICAgILqCifiFUKZrrC13u8gg2cZOE0zBRU1ODIwi7wenoT4oN2kxqgxA+wvjc0PZazzsT4i6CuDDMUwuZ/sErHxHcMkPX+/1QadXmCtq4zAxjYwdnFvVBpgACwQEBAQEBAQEBAQEBAQEBAQECxte23mgeBHmLFB9c5X+e7mz5N8SZV8vPG3F8Eo+81z4DJIKnC6jz10kuqK5/KaGv8nBB6g8n30mXhxmh1LlLnU4YSZXrHEMdm7KbJKvDnHYapqU3ngHmWGYfIIPSzhHxs4ScfMmU/EXgtxFwbM+CVTR3OJ4JXsqIr2vpcWn3HC+7HWcPEBB+rQEBAQEBAQEBAQEBAQEAkAXKCqWYNQUl0srXPYNm9UEKcuNUxsrCA4EtuOqCFdiVZS1vdgDRtZpHUfNBfVlxZHVwOLXOtf1BF90EW99OAJHkoL4ogEFoFtggICAgICAgICAgICAgICAgICAgICAgICAgICAgICAgwXAeKCL5QAgoLnTyCNh+ZQSbBSyOdCyQl7fiseiDXcNLiwkGxtsgvjmeyLQyMA+aBFCb6nbknqg2GtDQgygICAgpqamnpIH1NVOyOONpfJJI4BrWgXJJOwAHig6A89H0gzla5bJK7IfACOPijm+Auic7C6wMwahlFx+NrAD3xBtdkAf4gvYUHkHzg9o7zd88WJyO468VKiTBTNrpcoYMDSYRT7m38Xa498Rf45nSO9Qg+FoCAgICAgICDBu4hjRck2sg5Svp6DCcPbTui1Tv3DwbEOHjfwCC/BcaFY0UtU60oHuu/K/vQVYhi2KYZUdw50UgIuxxbvb1sUHGSSyTSGWZ5c5xuSUEUBAQEBAQEBAQEBAQEBAQEBBs4PXx4fWl8w9x7dLiPD1Qci6qy7TPdVNDHPcb7AuN/t6IJvlpcaw2WYwloZfS5w3BAvcIOKdjWJTU/srptiLF1tyPmg1wABYICAgICAgICAgICAgICAgIJ0/s5qGNqnERl3vEeSDexjBGsZ7bh4vHa7mg3sPMeiDGJxxx4JSOiaG3sTYdSRuUHHNdqQZQEH7TgVzFcc+WTOrOIfAHiljGVMXaR3tRhNVpZUtBvonideOoZ/Rka4IPVTkc+ksYHijqPIPPdkpuFzHTGM+5VpHvpXHYa6qiGqSLxJfCXt/7NgQepXDTilw54y5MouInCnPOFZiwLEWa6LFsGrmVEEo8g9hIuOhabEHYgFB+iQEBAQEBAQEBAQEBBXM/SNkFMcRnvJI6zR4oK6Wsp4J5GPqwWWu0nxQSxGOplbHV0UmrRuGt8fX1QZFXFKxvtlGQ61wHMv8Acgy97qlwsLNHQILoowB0QWICAgICAgICAgICAgIBNtygiZAEGO+F/BBlsgKCSAgICAgICAgICAgICAgw91ggpJkkv3Y6IKA6ad5jjaSR18ggzHHUUlQJpmgsIsS030oLZ6eYR93Q6Wa3EveTvughJBDAxkDN3DqfNBbFHtZBaGgIMoCAgEgblB1t58O1I5WeQHBHQ8Ts0OxXNc9P3mFZHwJzJcRqQR7r5ATppoif8bKWg76Q8iyDxF58u175tOfCqqsuZkzH/BTI0jyIMjZcqXsp5WX29rm2krHbC4dpiv0jHVB1XHQNAsALADwCAgICAgICAgIJU8E1ZMKembdx+4eqDkP4MVUQEsdSxz2m+kggfeg3Kyip8ahF3mOSM2ItctPiCEGpXU2HYTQGnvrncQWu6OB8/QIOMe+SV5lmeXOPUkoCAgICAgICAgICAgICAgICB0QbOH4RVYi0ytcI4wbanDr8kGMSwWpw9velwey+7mjp80FNAaMVLfbmuMfjpPRBvYpi8UkH4Pw5mmK1nOta48gg48AAWCAgICAgICAgICAgICAgICAguw3D3YnVd0HaWNF3uHkg34sRpsIrTQtnMkHmdzG7xHqEG/UziipRLT0wkjAuQw9B5jzCDiq/GaSqh7qmogHO+J72DYeiDQQEBAQfUuVbnQ5lOS3Ov8OOXfidWYJJNIHYlhT/AMdh+JAfVqaZx0SbXGvaRt/de1B7R9nn2+XLzzXS0PDLj5FScN8+1BbDAyrq74Ri0p2Apql9u6e49IZrHoGvkKDv+CDuEBAQEBAQEBAQEAkAXKDXqHXaUB0Qq6QQslLel7BBUKDCoCI5nBzjt7zt/wBCA0OwybuoruifuGk/CUEnvdVPB02A6BBdFEAEFoFtggICAgICAgICAgICAgIISut9iCprHzNLmvt5BBVTO7yp7mTYjqEEhPpkc2/RxCC+OUFBYgICAgICAgICAgICDBcB1KCuaQAINR1a6mfrG48W+aDYklfPRumw5zdbhsbeP70Gvg9ZU1Ln09UNWkdSOnhYoEXfxudFHM7SHENF/BBfDAb6nblBsNbpCDKAgINLG8awfLeFVOYMw4rTUFBRQPnrK2snbFDBEwanSPe4hrGgAkuJAAG6DyO7S36RFIX1/Bfs/axhaNUGI8TqmnDm+ThhsLxZ3/tMgt4xsdtIg8lsxZkzDnDH63NebcercUxTEqh1RiOJYlVPnqKqV27pJJHkue4+ZJKDSQEBAQEBAQEGCQAg3Y8CqqmiZVQvaXPPwX6Dzug3MDo3YfWz0s5aXljXMI8W3N/2INWn/C9Fiwjf3jy9/vXuQ4X6/wDHRBLMpbHXsfE4h5j94tPrsg44DfU43PmUGUBAQEBAQEBAQEBAQEBAQEB4fGAXscA4XaSOqDLKernbrhppHN82sJCDm6Kmjr8Hhp+9LWtP4xrfG17goIyxz4rP7GIXRUkWziRYvt0t6IOHmijhnfHHJra1xAd5oIoCAgICAgICAgICAgICAgICCdPRVlbcUsDnAdT0H3lBymX4ZaKWWlq4ix7wC2/1rXvY/ag1/wCDNYarQXt7u/8AKX3t8vNAra2TCnyYbQz6mEfW3MZ8QCg49osEGUBAQEBBhzWvaY3tDmuFnNcLghB3w7Nrt0ePHJ1LQcLeN8mIZ+4bxObHHTVE+vFcEi6fxSaQ/jo2j/q8psALMfH0Ie5PLvzJcFearhlRcXuA2faPMGB1vuiopX2kp5QBqhmjdZ8Mrb+9G8Bw62sQSH7xAQEBAQEBBgkAIKZZ9PigrdHUPbq7s2QVEXGxIQTpqGnH8ZleDY3sfAoJSE1Muq2w2CC+KINCCxAQEBAQEBAQEBAQEBAQCbblBRUPsDugpjbVRtNTFbSBu0n4ggugNNVubWRfEBY+fyKCNsPdK7ez7+9ckboMxlmq0d7eZ8UF7b6RdBlAQEBAQEBAQEBBh7tIQUkyPv3Y6INYymWQRB27jZBbUVVDQvEMkWokXJ0goMSsbSWrqK2h1u8YOhHmPJBY6qh0l1O0an9TZBinhtuQg2A0BBlAQEH4TmI5jeDnKpwpxLjRxzzrTYHgOGtHeVEx1STym+iCGMe9NM8izY2guPyBIDwH7Tjtf+NfaB47UZJwX2rKfC+nqL0GUoaj8biWk3bPiD2G0r9gRCCYo9vjcNaDp8SSbkoCAgICAgICAgG/gLnwQcqMOw7C6LvcTbrkkHwjr8h+9BXhONUlDTmCSN/8pcG99ig2K3DZpahuK4TMNbtz72x/48kEKvHa+hf7NUUkfeWuHBxsfWyDi5ZZaiV0879T3dSgigICAgICAgICAgICAgICDIY89Gn7kAtkbuIz9yDm6R9Lj1KKeop7PZ1aBa3qPRBjEMWmwyqbSMw8921o3ta49EEsTnnpII8VoW7SWD2luzgRcE+qDj6vHcQq4zCyMRgj3i0G6DStpFrICAgICAgICAgICAgICAgIJQxSVEzYIWanONgECajrIzIJIHARH3zbYIOYxGefCcNhbQNAbsHOte237UEqOr/DOHP70aZGfWb4G2xHkg4s45iskfd+07W3IaAfvQa4G9ybk9SUBAQEBAQEBAQfWOT7nV5gORzinFxT4C5udRyyFjcYwWr1SYfjEDT/ACNTCCNQtfTI20kZN2uG4If0D9nR2m3AntEOH78UyROMFzhhUDHZnyVXVDXVNCTt30R29opnO2bM0C2zXhjvdQdlUBAQEAmwuUFb5tPUoKX1ItsgrgmbJVtY4+f6kFz5pad8lRVSgRjaNgG5QU6ZZme1uYGh52agsjhBF7ILmRAeCCzogICAgICAgICAgICAgIMEgdSgqlmDR1QatROBuUFmKslfSt7i5YPiDfLwQUYdT1cINUywFt2u+sEF8rm1Mge2O1h1PVBfDFpFkFqAgICAgICAgICDBcB1KCuZ4sUFNNLL3+hguDu6/ggVtI4vFbSWL2Ou5oPxW/agxNTUuLNbNHJZw2O249CEEpGRwUwomO1W6/fdBmCDxIQbDWBqDKAgIPlnN1zd8F+STgtiHG7jbmA0tBS/iqCgp7Oq8Uq3AmOlp4yRrkdY+TWtBc4ta0kB/Opz9doLxw7Qbi47iDxTrzRYNQPkZlXKNJOXUeDQO8unezuAHeTkandAGsAaA+EoCAgICAgICAgIGsxua8D4XAoObkqMDxJjKmqlbdo+Bz7EfZ4oJUuIYVUzjD6amuCD/ixpQaE9dU4LWy0dG4GO92seL6bi+yDTlllqJXTzv1PcdygigICAgICAgyGuO4B2QKVpr6kUVADUTuNmwU47x5Po1tyfuQfUeHnI/wA5vFhjZuHHKjxExeF9tNTT5Rq2Qn17yRjWW9boPtmRuwh7UTO8TKk8usOCQvI/GZjzTQUxb82MlkeP7KD6/k36MfzvY3C2ozhxc4bYE11tUUdZW10jfsZTsaf7SD6rlH6K/iT2Nkz5zpxxu+tFguRb/c6ar/2UH0bK30XblZotJzjzH8RMSI+IUUWH0gP/AMCQj70H7vBfo2PZy4WWmvn4iYnbr7bnHuwf+4hjQfrMJ7ATsucG2qeBGJV9upr864o6/wDZnaEHP03Yldllh7R3XKDgryB8VTi+IzX/ALdSUHJ4f2OPZkx/yXJrk3S3qZaSWT/WkKDfpuyP7NNv43C+TrILJGHZwwVrrH7Sgtd2U3ZwYxEaTEuTDIAkjPvAYEwfaLFBq4n2RfZpYjGyjdya5J7uPo2PD3MHS31XhBxs/Ym9lxXj+McnmXW3/wDR62th/wBScIOExjsEuyxxUERctstESOtDm/FY7f8AzJCD8fjn0cTs2MWJdQ4HnjDL9PYc7Tut9kzZEH4vNH0YPkwxAO/gnxt4nYW4/CJ66gqmj+1StJ+9B86zP9Fey49j35K50sThd9SLGMkwzD7XQ1Ef6kHy/Nv0Xrmww/vH5I5jOH2LNaPcZiNHXUDnf2WTAfeg+RZ0+j5dp5lIyPwrhblzMUcYJ14DnKmu4ejanuSfkg+L5+7NLtA+GLJZs5cm/EKGGH+UqaHLz66Ieuul70W+1B8azDgOPZQrHYdm3Aq7Cahps6DFqKSleD5aZWtKDUb77dbDqaejm7hAQEBAQEBBZSUk9dOKeAb9XOPRoQbk1JBglbBJFX+9cCUEXIHnYeCDlKhzMRpJYKKrbqI0lzTcD0QaFFiM1NTuocXo3lsY0l+i4t4X/egrrMZo46Z1HhUOkP8AidpsLIONAsLIMoCAgICAgICAgIP0vCHjBxM4CcR8K4ucHs5VmAZjwSo77DcUoX2fGejmOB92SNw918bgWvaSHAhB/QX2UvawcPe0JyGcsZlZS4BxPwOkD8w5dZJaKtjFmmuo9Ru6EkjUwkuhc4NddpY9wdxEBAQRkdYWQUMli70ibodgT0QH0sFOXVE7/wAW0XAPh+9BCCTD8Qv7MA17NwQ2xHr6hBn22GQ91V013sd+SCL+YQZfI+ocNrNHQIL4mABBNAQEBAQEBAQEBAQEBAQQfKAOqCiSoO9kEaXTUzEONw0XIQBi1M6oNI+Kzb6QT0+5BKSWShkEbGao3D3QTu30+SA+aWoGkN0jxCCyKG21kFwFhYICAgICAgICAgIMONhdBRI9xdoYLkoKqnvYReRpt5jogzhcrZDI0GztkFGHw4lSVpiMbnMcfeJ6fO6C6tgh9oDo22cR79kFkEHiQg2GtDQgygICD8TzBcfuF/K/wgxvjjxlzIzC8v4DSGasnI1SSuvZkMTOsksjiGMYN3OcB6oP5uu0K5/eLPaEcc6jijn18mH4JQmSnyflVk+qHB6Mnpts+eSwdLL9YgNFmNaAHwZAQEBAQEBAQEBBOnp5quYU9Oy7j9wHmg26jLVbHEZGSskIG7R1+xBxtrGxHzQcxBiGE4bSCShjLpXt3Duv2n9yDjHvkmldNK67nG5KDCAgICDEj2RW76RrNRs3W4C59LoPrHBbkV5yuYfupuDHLJnTHaWZwDMSiwSSCj3/AP3NR3cVv6yDtnwf+jX8+ufGsq+J+Y8k5FgJHeQ1mKSYlVNH+TpW93f/ADyDtHwm+i78vOBmOp418yGccyPDQX02AUNNhUJPldwnkt8nAoOynC/sQOzH4WxwyUnLBhmO1UNj7Xm2vqcUc4+ZZPIY/uYEHYnIHA/g1wogbTcL+EmWctxtFmx4DgNPSAD/ADTGoP1AY21r3+ZugkAB0CAgwXNb1cB8ygBwIuDf5IIulAHj/YKDQxTGcNwxurEcQggA8ZpmtH6Sg4bEOLvCaCnP4T4l5fpSPGfGqdlj/WeNkHBw8zfLhQtmwzFeP+SIHi5Pe5to23BFri8qDRouaflboKzXNzPcPGsaDcnO1ANQ+XfIMS84fKHPVufFzTcOHeHu54w//wC8g36Lmq5XKkhtLzI5BlLugjzjQu/VKg5qg48cEsTs3CuMGVqknp7PmKlff7pEHO4fmjLmLgHCsfoqm/T2erY+/wDZJQb12/0vuKDLXX8/tCAJGHcPH3oMoBF9igxoFrAW+WyDi8z5KyhnbDzhGcsrYbi1K4WNNidDHURn+rI0hB8I4o9kp2cHGCWSpzjygZNinlB1VWBUBwuW58ddG6I3QdbOK/0ZnkmzZHLUcLOI2fMnVLyTHGMShxKmZ/UqY+8I/wA6g6wcYfowfNDlls9ZwT4+5OzXBHcxUuNUlRhNS8eV29/GT83NCDqhxo7KDtEuAgmqM98qOaKijgBdJiWWoGYvThv5RdRukc0fnNag6+VlLVYfXyYViNNLTVUTtMtLUxmOVh8nMcA4faEFZFtigIOTyxLEJJonOAe6xb6gXQWjL9HCXVOI1hfc3JcdI+1AnpIKCH8K4PIAG/G0Ou14ugorcx+1Upgp4C1zxZ5cb2HjZBxoAAQZQEBAQEBAQEBAQEBB+g4U8VOIXBDiLg/FnhRmuqwPMWA1rarCsUo3WfDINiCDs9jgS1zHXa9ri0ggoP6M+y47STIfaJcD25gYynwnPOAMjp865aik2gmIOmqgvu6ml0ksJ3aQ6N1y25DtCTYXKCt82nqUFMtQCLAoIGgmqG3Lw2/S4QZiklpCKPELOjfsyTw+RQKXDIqGpdUtksy2zT4IMNj72Vz7fEboNmKIAILALbBAQEBAQEBAQEBAQEBAQVyyBqCgNmqLlg28yglR2mhfDNEPddYhBTU1JoMQEjoLRubYuHj6oJvosOqZfaxKN93AO2KCUzxUSjSNh4oLYogAgtAA6ICAgICAgICAgICDD+iDWMhgmDz06H5IJT1E8NSyMQ94yTpbqEGJMPh77vad/dSDf3eh+YQYfU1bHGJ4Zf8AKagQwuJ1Ovf1QbLW6QgygICCuaeGmidPPI1jGNLnvebBoHUk+AQfz19tb2mNdzwccXcMOGWPPdwuyRXSRYKIXER43XNuyXEnD6zPiZBfozU/rKbB0jQEBAQEBAQEBAs7SXBpIHUgdEGG65HaImEk9ABcoOUyy3uqiaKVpbIWAt1Cxt4/sQXympw2IUdG2SaomN3SuBsPVBx+LYcygkj/AB+t723kB8/P5INVAQEG7l3LmYs4Y9DlfKOX67FsTqXBtPhuF0clTUSk9A2KMOe77Ag7f8vHYMdoxx7EGI4vwvpOH+FTb+358r/ZpQPMUkQknv6Paz5oO8nAL6MNy+ZYbDifMdxzzJm+qADpMNy/CzCKLV4tLryzvHqHsPoEHdXgT2cXI5y1d3Pwc5ZMp4bWREFmK1GGisrrjx9pqe8lv8nBB9uEbQNNtvJBlBjU09De3kg/McQeNnBzhLTGt4p8V8t5aha3UZcfx2no22/zr2oOvPEftuOzF4aCaGu5qMIxephNvZsr0NViZcfIOp4nM/0kHwXiF9J05MMAa6Lhzwg4i5klF9L5aClw+F32zTl4H9RB8Tz99Ka4gVZdHwu5PcIoh9SbMWcJag/Msgp2D7NSD5Bnf6Sb2h2Z3OGWMJ4d5cYfh9hyzNUvb/WqKlwP9lB8tzf24Haj5xDmVXNXW4exw+DBMvYbSW+RbTl36UHzjMfaOc/2bWuZj/OjxNlY/wCKOHN9TTt/swuYEH4PHeOnHjNQdPmTjZnbEv5x9dmyumH26pSg/L1uJ4liTy/EcRqagnqampfIT/aJQcjjkUeHU0HsVFAI2mx/EtI9B0+aCcdJhWOUQqG0EMMjD7sjYWgsd6G3RBxUlXPI0wOLC3oSIWC4+droKBSUg/6lD/3Tf3IMew0PjQQH5wt/cgChoB0w+nHygb+5BfTSy0Z1UcjoSOhhcWEf2bIOdwbivxUy44Py7xSzPh5b8JocyVcNv7EgQfuctc+XO/k4BuV+cLidRtb0YzPFc9v9l8jh+hB9Dyl2ynad5Mc12Gc4eZKoN6Mxijoa0H599TuJ+9B9Pyf9Is7S3LUrX45mfJWYmg+83FsmsjLvtpZYv1IPruSfpSPMFQPYOJHKvk3FGC2t2B49V0Dj8hK2cfpQfauH/wBKM5b8VmZHxP5Z89YED8cmD11FiTG/2nwOP3IPunDjt9+zE4gNa3EeOlZlmZ9rQ5pyzWUoB9ZGxvjHz12QdhuF3OFyqcao4ncJeY7JGYnzfBBhOZ6WaX7Yw/WPtCD6Rrba99vNBkG+4QY0t8B18Qg/A8Z+Vvlx5hsPfhvHHgblXNcbo9AfjmBw1ErB/Qkc3Ww+rXAoOmHH/wCjfcifEoVGIcIMUzRw4r3m8TMKxL2+hafWnq9bgPRkrEHR3mB+jic8PDEz4nwYxvLfEnD4y4xRUFT+DMQLR5wVLu6cfRsxJ8kHSLi7wM41cv2YTljjhwpzDlDEL2ZBmHCpaXvPVjngMkHqxzgg/P0FJJitR3M9YWkC/vEkn5INzF6ympqQYRQkHweQen96DiwAAgygICAgICAgICAgICAgIPqPJ1zZ8UeSbj9gnH/hPWXq8Nk7rEsMfIWwYtQvI76jm/ovABDurHtY8btQf0y8uXMPw25qOCWXePfCfF/a8DzFh7ain1i0tO/4ZKeVv1ZY5A6N7fBzT1Fig/axPhdKWS9Ts2/QoKKyN1LMxz94i4XPl80GcZZVEMlgLi0ddJ6HzQTHeVGF/wAbb71upHXfYoIxCaRgjc8kAbINmKINCC1AQEBAQEBAQEBAQEBAQCbC6DWqTtZBmsZUmBsVGOvU3tYINZmCzgE+2lpPg0GyC6Koa9ppMSa0vYepFw71QRkjhkm1QxgC1tggvhit0QXAWFkBAQEBAQEBAQEBAQCLiyDWqY7jognSyOdCWD4miwv+hBqMjldMZXuOu+58kGzFBvd25QXtYGoMoCAgIPOz6Qrz9VXLjy+U/LFw2xx1Nm/iXSysxCenkLZcPwMHRO8EbtdO68DT+T3xG7Qg8HgALNaAABYADYBAQEBAQEBAQEBByOA4jSta6gqY2gSHZxHxehQblR7Pl+jdNS0pdqfub9PmfJApquPGaQzRAxzR7tI6tNtvmCg0hmmq7vT7Kwvt8Vzb7kGjLNNUSmed5c93UlBBzmsZrkeGtH1nGwQdluVPsj+fDm/FNi/DzgtVYNl+p0luas4l2G0JYT8cYe0zTj1ijcPVB6Rcr30Znl6yRHTZg5qeKmMZ6r26Xy4HgmrCsMB8WOc0mpmHrrjv+Sg9AOB3LDy9ctWADLPAXgzl3KVJoDZBguFxwyTAeMkoHeSn1e4lB+9AA6BBguHS/wByD4xx37Q7kk5ae8g40czWUsHq4iQ/C24o2prQR4ezU+uX/RQdO+NH0m7lHyc6Si4JcI8553qGEhtTVRRYRRv8iHTF81v8yEHUzjF9Jc54c795R8KMh5IyPTlx7qdtFLitW0eHvzubFf8AzSDq5xb7S/n94399FxG5uM7z09QT3tBhmLnDaYjy7qjETSPQ3QfEMQqKjFq12JYtPJV1Lzd9TVyGWRx8y95Lj96CJc4ixcfvQYQEBAQEHN4LVRnCiYIAXx31sB+I+f2oIewYRjcZmpLxvHxaW2sfUdPuQWMmq8Op+4xCmM0bRYSxi+3qCg0sRx0VEPslBEY2EWcSANvKw6IOPAsLIMoCAgICAgICAgIAJG4NkEXRROkEz4WOe03a8sBcPkeoQfTOFPOVzbcDSwcIeZjPWX4mEWpaDM1QafbwMMjnREehbZB2g4Q/SI+0e4bOigzhmTK2eqWMBpjzLlxsMxH+WonQm/qWuQdruC30ozhhiRhoeYPlhx7BXWtPiWUsWhxGK/n3M4gkA9A55QduuB3bG9nTzASQUGVOZrBMLxGcbYTm3XhFQHfkj2oMY8/mOcg7FU2N4di+Hx4pheIQ1NNOwPhqKeUPjkaeha5pII9QUHIubUaImUpAad3vPkg4PO2SclcUsEnyfnbJ+F47hcotVUOMUMdTTzehjkaWn7kHSTmU+jy8inG9s+L8K8NxPhhjMt3NmyvN3tAXk3u+inJYB6ROiQedXNN2APPny9e043w/y7RcTsBhu4VeTyW17GX2L6CU94T6QulQdJ8YwfF8vYvU5fzBhNVQV9HIY6ygrqZ8M8Dx1a+N4DmH0ICDWQEBAQEBAQEBAQEBAQEBB6M/R5+fmp4F8en8o2fscLcp8RavVgRnkPd4fjoaAwDybUsaIj/2rIfyig9zqNjJ59Ttw0Xt6oEGJwVkz6OojABNm36H0+aDJfVYeREAJIz8BJ3Hogy6SSpIDhYDwCC+KIAdEFiAgICAgICAgICAgICAgE23KCqWYDqg15JdaDAqaiNumN+3hcdEEqWnq3zipqZnADcAnr9nggSgT1Be0bdAUF8MIaOiC0AAWCAgICAgICAgICAgICAgi9moIKhG5ji6M9QgzHFY3tugtAAGyDKAgICDVxXFMPwPDKjGsWrI6alpIHzVNRK7SyKNrS5z3E9AACT8kH8vPP8A81mL86fNtnLmArZ5Dh+J4iafLVNIf8GwqC8dKwDwJYO8d5vlefFB8bQEBAQEBAQEDwvbYdUGYIZaydtNCPecbC6DlmYDhLHClmqyZiOgeAfsCC6KV1E8YbiLg+OQWild4j8koK6k0WA0kkdMfxkt9LSbkf3BBxWH4fW4lXQYXhlFNU1VVKIqWlpoXSSzSHYMYxoLnuPgACSg748m30fHnH5jBS5r40sj4VZZms/VjtMZsXnjP83RNcO6+c72EXvoKD1W5Q+xy5F+Tr2bHcq8LYszZnpwCM25y0V9Y1+3vQsc0Q02/TumNPm4oO1AaBuAgrnqIaaJ888jWMY0ue9zrBoAuST4BB1b5lO2a7PXlgfUYTmjjvSZixqm2fl/JEf4VqQ7xa50R7mI+kkjbIOg3MR9J/4r46J8G5XOXzCsvwEOZFjWdKw11Tbwe2mpyyJh9HSSD0QdG+P3aQ88/M46eDjFzNZoraGoP4zBsNrfwdQW8vZ6QRscPz9R9UHxBjWR6jGxrS43cWi2o+Z80GUBAQEBAQEBAQEG1glb7FXhrjZkvuu/YUHIYzWHCqcU9FDoMhJ1gbDz+1Bxj8XxGelNLJNdp6utuR5XQUAAdEBAQEBAQEBAQEBAQEBAQEGY3RNlaZ76NXvaetkHMVWBUOJRslpS0ROtraBdrx8vNB+64McznGfl0xMN4F8aszZUeHjVDg2LSx07z+S+IkxPHo5hQd0OBP0j7m/4SS0+C8ecmZd4iYV0dV9ycLxHSNiDJC10Lj84RfzQd4eXX6Qh2fnGlsGB5yzHifDXFZQ1roM30NqMvJtZtXAXxAesnd/JB3VyVnHJ+f8AL9PmrIma8NxrDKpuqmxLCa6Opp5R5tkjJa77Cg5rSLWsg+Q8z/Inyn842DHCuYTgrhGOzsj0UuM90YMRpdrDuquItmZbrbVpPiCg8uucb6M9xKykKrOHJRxKZmiibd7coZtmjpsQYPBsNW0NhmPpK2I/0yUHmjxT4RcUuB2c6jh1xj4eYxlfHaXebCscoH082n8tocLSMPg9hc0+BKD86gICAgICAgICAgICC7DoqaetjhqnEMceg8T4BBzsTWYfi9NiOC4hJhuJUk0dTQ1dM8skhlY4PZI231muAcD5gIP6WOz25nxza8p+TuO8hjkr8Rw32bMkNPa1PidOe6qRpHwgyNL2j8iRqD7aYMKkm9r1NJvewPU/JBmR5qZNh7o6IL4ogB0QWICAgICAgICAgICAgIBNtygi6UBBXJUADqgqgtUT2cdgL2QTjnimie+WEMiabAu8fsQa4973mg6SfdJ8Qgua2V7BGXm3kgsihDegQXAWFkBAQEBAQEBAQEBAQEBAQECw8kBAQEBAQEHTzt0uYeq5e+zlzkcGxB9NiudHQ5WwyRj7OHthcKgjx2pWVH3hB/OdsNmiw8APBAQEBAQEBAQEHJ5fqKaohfhs1OCXAkm3xD18kCKh/AmLRyvN4HktbIfqk+BQZxfBKyWtNXR+9rIJ96xaftQZzJKIqCCCokaZAQXOv1sLE/eUHcjkP7Cjm05v20efOI9PJw1yTUBsjMWzBROOI18Rsb0tES1wBB2kmLG2N2iQIPY7kw7MDlA5GMPjqOD3DaOozD3OirzjjxbV4rPtvaYgCBpv8ELY2+YPVB2I91g8gg+d8wfNdy5cqeWP4XcwvGPA8q0bmk07cTrAJ6m3UQwNvLOfRjXFB5s81n0nbLWHOqcucmvBOXFJRdjM0551U9Pfcao6KJ3eyDxHeSRerUHm/wAzPaIc5/N5NLHx34+43iOGyuuMvUE3sOGMHgPZYNLH285NbvUoPirWiNgjjYGtHRrRYD7EGUBAQEBAQEBAQEBAQEGCAUG3XYo+upYqaSMXZu556koNVAQEBAQEBAQEBAQEBAQEBAJA6oLqHDarE3HuQA1vV7ugQcjS0mI4GDJqE0HWRjerfUBBKuwanxRzK6ila3WQXkdHDz+aDWzLUsmnjpI3X7sHWfUoOPb7m42Qfs+CfMRx35bcwjNPAPi9mDKFbqBlfgWJPhjn9JYt4ph6Pa4IPQnlW+kzce8jvp8v82fCvDs74e0hsmP5b0YdibRcXe+E/wAXnNvBvcoPTPlM7UPkn50hBh3BrjNRR49K0F+U8fHsGKMPkIJSO+t+VEZG+qDsIHA9EH4DmD5XOX/mryU/h9zBcKcIzRhbrmGPEae8tK4/4yCZtpIH/wBKNzT6oPJXnq+jbcRshsrOIXI7miXNWFsDpX5Hx+pZHicLRvppqk6Y6nxsyTu39BqeUHmNmzKOa8hZlrsl55yziGDYxhk5hxHCsVo309TSyDq2SOQBzD8xv1GyDjkBAQEBAQEBAQEGHXFnNNiDsg56GOlxylhqp/ijPv2Nt/EfqKD1Y+jNczUj8x8RuVasqnPpnwQZowWN0tgHgtpasNB8waR23kSg9c3NE8veNjA+zqgvihDRsEFoFtggICAgICAgICAgICAgIIyOsEFLGd/q9+xHQIIR0sji4zu0Nbte/VBltMKV/tdPIXtt77etx6IMyto65rZHVPuN30hwAPzQJJBK9rIxZremyC6NgtugmgICAgICAgICAgICAgICAgICAgICAgICDyA+lM8UJHVHCDgrTVLgz/pXHq2IO2cQIaWEkegfUfeUHkUgICAgICAgAFzg1oJJOwA3KCLnEXba3ndBzGBsMOETVNOzVKdVtvIbBBnCMUbiTDhuIMD3OBsSNnD18ig+n8q/JnzOc4vEccMuXfKEuKCEtOKYxWHusPwiN31qmoIIZtciNodI+3usKD2q7PnsQOWzk9dQ8RuI0EXEPiJFplGPYzRj2TDJbf8AUqV2psZB6TP1S7XBZfSg7wsjbGL9PVB8a5tuf3lR5JMAGMcwPFiiw2smhMmH5epb1OJ13l3VLHd5BItrcGsB6uCDyb5yvpIvMZxZdV5R5S8qQ8OcDfqjbj2ICOsxqdm41NBBgpbjwAlcPB4KDzszvnrO/EzNNVnniPnDFMfxqteXVmL41iElVUzH+lJIS4j0vYeAQcUgICAgICAgICAgICAgICAgICAgICAgICAgICAgICAgICCUJgEzfaSQzV72nrZByOLYLG+IVuGAFum5Y3e48wgtoWSyZd0UDrSWN7He99/0IIZdqq50r6ScPcxrb3f1afJBpy11TQ1VRTUU2mMyGwHhv4eSDWA8Sbk9SUBAQEGWPfFMyaOQtfE8Pie02cxw6OaRuCPMboO5nJz26XPHypOpMu5jzcOJOVKfSw4HnOofJUwxiw0wVwvMywFgJO9YPBoQetfJP20/JbzoyUeU6TNzslZzqbNGUs2yMgknk/JpagHuarfo1rhIfGMIO3YIcN/tQfBudbs4+VjnyyscJ44ZDYMYp4DHhOb8JDYMVw/yDJrHWy+/dSB8Zv8ADfdB4ddod2PXMzyC1NTnGppDnHh4JT3GdcHpHAUjSbNbXQAuNK7oO8u6EkizwTpAdSkBAQEBAQEBAQEG7gVe2hndHM+0bxe/kQg7TdiRxMbwz7T7hzURSuZSZiqq3AqhmqwcyqpJNAP+ejhPzAQf0ewsa5gdbqEFiAgICAgICAgICAgICATbcoIulAQUzTC1gUGuRWA99TRk28fNBa4x4rSugJMb2n3mnqD+5BDCKeppBK2o2aDt+8IIQU4Lrtba5QbkUOkbILQLCyAgICAgICAgICAgICAgICAgICAgICAgICDwm+k445JX89eU8GLvcw/hdSlo9Za+tcT/AKDfuQeciAgICAgICDfy7LA2uMcrBrc38W4+HmP+PJBu1IwvEKl1FVxaJgbNPQn1B8ftQRpqKtwZz3QgTU595zb2LfW3ig769mR2LPELm5FFxp47UmIZN4dTFstJGYBBimYY+oMLXD8RAR/j3DU4H8W0g94A9ruCnA3hXy+5BouF/BjIuH5ewKgH8Ww/D4dLdR+KR7jd0kjurpHlznHckoIceeYzgdyuZAqeKHHviVheWcEpvd9qxGezppPCKGMXfNIfCONrnHyQeQXPf9I94r8SzWcPOSTApsl4G7VE/OeLwMkxeqbuC6CE6o6MHwc7vJeh/FlB5o5nzRmXO+YqzOGc8xV+L4tiMxlxDFMUrH1FTUvPV0kshLnn5lBoICAgICAgICAgICAgICAgICAgICAgICAgICAgICAgICAgIBIHUoEERqqlkDTbW8Nv8yg5yqxOnwaaGgbB+L0XcR4C/wClAmjlpAcRwrS9jxqki8D/AEh6oNOpzNUTRmOnpxGT1drvb9CDjgLIMoCAgICAgEBw0uaCL3sRdB3S5Fe3J5vOTt1Fk3N+LycSMjwaY/wBmWtcayjiFhakrSHPZYCwjlEkfgAzqg9oeSXtLOVLn1y/7VwXz2IceggEmKZNxoNp8UovNxiuRNGD/jYi9m4uQdkH3jEKChxahmw7EqOKpp6mF0U8E8YeyWNws5rmnZzSDYg7EIPKPtPvo9mDZijxHjpyCYTBh2JDVUYpwz7wR0tWernYc5xtTyePs7iIndGGP4XB4947gOOZXxusy1mbBqvDsSw+pfTV+H19M6GemmYbPjkjeA5jwdi0gEINRAQEBAQEBAQEH1jkMxubLXPDwdxyB1n03FDAiD6Or4WH9Dig/qbabi6DKAgICAgICAgICAgICCErrBBU1hnDiH2I6BBrxuLqxtNKCDfcH70GcQxOoo6oRMjGkAdR1QWVREkUeIQe6/bfzB8Cgy6eSoAbp0jxQWQxBvgguAtsEBAQEBAQEBAQEBAuPMICAgICAgICAgICAgICAg8J/pOWByUHPTlLGS33MQ4XUoa71ir61pH+m370HnGgICAgICAgNe+GRs0Zs5puCg/RxywTwsxSCkdLK5gbG2Nhe8uJsGgDckuIAA3JNgg9Z+yQ7EOrwwYdzN88mV45ax5ZV5a4a4hCHR0nRzKjEGnZ8vQtpj7rNjJqd7jA9XoadjABpAHQD9iDoL2kfbxcEuUibEOEfLzDQ5/4h05dDVOjqCcIwSUbEVMsZvPK09YIjcG4e+M7EPE7mM5n+PPNlxEl4o8wfEnEMx4u/U2nNU8Np6GMm/dU0DbR08f9FgF+ri47oPwSAgICAgICAgICAgICAgICAgICAgICAgICAgICAgICAgICAgHYXQc1HhuD/g5jpbFr7Hvjsbn18EGrUZfq6SVtTh7xIGkOaDsRb9aDbmOFYxEBVv7qRnVrnaXN9N+qDXxHEqSko/wZhhBBFnOBvYeO/iSg4sAAIMoCAgICAgICAg38sZpzNknMdFnDJmYq7CMXw2oE+HYphlW+nqaWUdHxyMIcx3qCg9Xezi+kX12HOoOEPaA/j6f3IKPibh9JZ8fgPwjTxj3h51ELfC74+r0HrrlTNuV895bos45KzDQ4vhOJUzajD8Sw2qZPT1MThdr45GEte0jxBsg6g9qZ2PnCjn8wCfiFkv2PK/FSipdOH5jbBaDFWsHuU1e1gvI3wbMAZIvDU0FhDwE4zcGOKHL1xMxbg9xlybV4BmPBKjusQw2sbu2+7XscPdkjePeZI0lr2m4KD8ugICAgICAgIPrPIVgc2ZOeLg5gMG7qnihgQt6NroXn9DSUH9TTRYWQZQEBAQEBAQEBAQEBBF0gCCmaZpHVBXSNJlM5fZrBv6oD/Z8UYJ6SS0sZ91xHT5+iAamlqPxVfBpe3qCP1FBKWQT2jjbZjemyC2GEAdEFoAAsEBAQEBAQEBAQEBAQa0Ur5X6Gj5+iCUU4d4oLmuDuiDKAgICAgICAgICAgIPIL6UzwukD+EHGulpnFgdiuA1sobs0uENVCCfXu6j7kHkQgICAgICAgyAXkNAJJNgALknysOvyQe2XYm9jo3ghg2G82HNblZsmcqljavJ+U6+IFuXo3C7amoYdjWOBu1p/wcH+cJ0B6PZ7z1knhRk3EuIvEfNNDgmBYRSOqcTxXE6lsUFNE3q973bAeHmSQBckBB4l9qL28/EHmOmxDgfyg4liOVMguD6fEczNLqfFcwM6ODCLOo6Zw+qLSyD4iwExkPOIBrWhrWgAdABYBAQEBAQEBAQEBAQEBAQEBAQEBAQEBAQEBAQEBAQEBAQEBAQEBAO4sg5PAJmVVNLhNQdiCWfLx/Tuguqa6DAaVlHTnvJOtnHp6ny+SDUxPGYMRphG2jAk8Xu30/IoNBrQ1BlAQEBAQEBAQEBAQAbbhB2b7OztUeYfs9M1R0eVK5+Ych1dV3mN5DxGqIp33PvzUrzf2Se31mgsefja7ZwD395O+dTgHzzcKYuK/AfNgq4GObFi+E1QEddhNQRfuKmK5LHdbOBLHgamOcN0HzbtPOzD4Wdopwq9lqm02CcQMFpn/wAEM3dzcxH4vZKnTvLSvd1buY3HWze4cH86/GXg3xK5fuJ+M8G+L+VKjBMx4BWGmxPDqjfQ7q17HDaSN7SHskb7r2uBHVB+YQEBAQEBAQdtew54XycUO054bROpy+my7LXY/VuDbhjaakkEZP8AnpYR8yg/o+Y3S0N8ggygICAgICAgICAgIMP6INcNdPLoDrDxQRqaOZoLoDq9D1QV4dO0mSiqAWud0DtroM0mEPo6oztqfcHgB1HqgnOW1E92jYCwKC6GENHRBaAALBAQEBAQEBAQEBAQEBBrU1NLTVbhcmNzLtPlv0QQbS1bDuAfKxQXRl7TpcNx6oLhuLoCAgICAgICAgICAg6f9uXy71PMN2c2dIsHoH1GL5N7nNOFxxsu5xoyTUNHjvSvqBt1NkH85d2ndrrg9CPEICAgICAgAEmwQernYDdlLS54qcP58eYbLwkwqkn73hrgNZDdtZMx1vwrK09WMcCIGn4nAy9Gxkh6wcwHHzhLyvcKcV408bM4U+CZfweHXU1U5u6R52ZFEwe9LK93utjbdzidvFB/Pd2mvaqcY+0Ozw7DHmpy7w5wurMmXcmxz/yjhcNq60tNpqgjo3dkQNmXOp7g6qICAgICAgICAgICAgICAgwSB1KCWh+gSlp0k2Bt1QYQEBAQEBAQEBAQEBAQEBAQEBAQEBAQSp5n0tSypiO7Te3mg28eno6ueOWmdc6PfIH3fag0gAOiAgICAgICAgICAgICAgIPo3K1zWcbuTfi5RcZuA2b5MLxWmAjq6eQF9JiVNe7qWqiuBLE7y2c0+8wtcAUH9DfZvdpXwb7RLhYcw5SczBs3YRFG3NmTqmoDp6CR2wljO3fUzyDolAH5Lg1wIQfOO2U7LTB+fDhI7iLwzwynpuKmU6F7sBqLBgxqmF3uw2Z3qbuiefgkNtmveg/nrxHDsQwjEKjCMXoJ6SrpJ3wVVLVRGOWCVji18b2ndrmuBaQdwQQgpQEBAQEBB65fRd+XmpdiHEnmtxagcImxwZVwKZ0eznXbVVhaT5fxRu3qEHsEgICAgICAgICAgICDD+iDUe50MwkHgd/VBY6Cc1bZ6ea0bhd48CgSy0FTIYJQCW/WI8fQoKdBc4sZK9zB01uQbEMOnwQXAWFggICAgICAgICAgICAgINDDMQMg9mqHb9Gv8AP0QTe+pgmMYqC5vhcC4QWwMdbfxQXjYWQEBAQEBAQEBAQEBBrYnh1BjGHz4TilHHUU1TC6KoglYHNljcC1zSD1BBII9UH8vnaDcqGK8lXN3nHgDVU8gw2gxA1eWKiQf4ThNQTJSvB8S1hMTv6cLwg+LoCAgICDtB2TXZ/wCI9oDzQ0mT8cpZ2ZGy22PE8910V26qXVaOia7wkqHtLNt2xtlcN2hB/RDxH4i8IuVvgtXZ/wA84rh+WMnZQwdrppRGI4KOmiaGRxRsaNzsyNkbRdxLWtBJAQfzrdpr2lPE/tEuL7scxN1ThGRsEnkbk3KbpdqZh901VRY2fVSN+I7iNp7tm2pzw6zoCAgICAgICAgICAgICAgnSvpmVLDVtJjv7wCDksXwaOoj9vw0A3FyxnRw8wgjisL5sJpHU8BdZouGN6bIOM0yN2kYQfUICAgICAgICAgICAgICAgICAgICAgICAgICAgICAgICAgICAgICAgIP2nL5zBcWeV3i1hHG7gnmuXB8wYNNqp52jVHPGbd5TzMuBLDIBpew9RYizg1wD+jfs4u0L4Y9oZwMi4iZUbFhuY8L7umzjlZ8+uXC6stuCCd3wSWLo5Le8AWmz2OADzs+kV9nHDkvMLefjhBgIjw3GquOl4j0VLDZtPWvsyDErDoJTaKU/zndu6yOKDynQEBAQEGxhWE4rjuKUuB4FhktZXVtTHT0VHA0ufUTSODI42gdXOc5rR6lB/UB2evKpQ8l3KDkvl/ibE7EcNw0T5iqYgLVGJzkzVT7j4h3r3MafyGN8kH2xAQEBAQEBAQEBAQEDqgoqIrhBin9+B0DnEWGxv4IKYacA2sg2ooQAgsAA2CAgICAgICAgICAgICAgINR7KaGD2aBodc7nqgzDD4lBssbpCDKAgICAgICAgICAgICDzx+kG8glVzKcu8PMpw3wR1RnHhnTSy1cFPGXS4jgjjrqIgALudCR37B5CYDd4QeDIIcA5rgQRcEHYjzQEBAQZjZJI4RxRPkc4gNjjbdzydg0DxJOwHiSg/pP7Jbklw7kR5N8EyjmGhip83Y9GMcz3UvADm1ssYIpy4i+iniDYRva7Hu+sUHkz22fah1nOzxefwY4RZgk/5LMnYg5tE6B5DMwYgy7HV7h9aJnvMgB8NUnV7dIdFUBAQEBAQEBAQEBAQEBAQEGzg+GjEqkmUnu4/it4+QQbMWL0mHVxgpS51MfiH5J8SPRByVXUzR0oqqGNkjQLkX6jzCDiK7H566HuGRd20/HZ17+iDSQEBAQEBAQEBAQEBAQEBAQEBAQEBAQEBAQEBAQEBAQEBAQEBAQEG/huEwYhRvkFRaS9gB9X5/NBHB6HTixpq6M3Y0kNPS+33hB9P5MecfinyL8xGH8cuFtW95ppTTY5gzpi2DGMPc8GWkl8Be2pj+scjWuHQgh/R1kjOnL92iPKY3G8K7vH8i8RMuS01ZSzNAkbHK0xzQSN37ueJ+ppHVkkdx0BQfzX82vLfm7lF5jc28u2dXPkq8s4q6CmrHs0iupHASU1UPSSFzH+hLh4IPnKAgICD0j+jucg1Txs48Sc4XEPBS7KvDyr7vLjZ4zor8dLbh7fNtMxweT/OyReLCg90UBAQEBAQEBAQEBAQEBBhzdQQVmHfoUEmR28EE0BAQEBAQEBAQEBAQEBBguA6oMGQD/zQUQwAbkINhrA1BlAQEBAQEBAQEBAQEBAQQlijnjMUrA5rhZzXC4I8ig/nx7bXsyqzkm42v4ucLcvyN4X53xB8mFiFl48DxB13yYe63wxu96SC/wBXVH1j3Do4gICDt12IPKtDzSc/+WIsfw4VOX8jRuzRjjXsBZIad7RSxOB2IdUuiJHi2J6D0T+kL9obU8AuDkHKFwqx11Pm3iBQPfmGqppi2TDcDJLHtuPhkqXB0QPhG2Y9S0oPDKwAsAABsABsEBAQEBAQEBAQEBAQEBAQCQOqC+jwmuxBneQsDWflPNgUHJYNTTYa99JWMA73djgdneYQVNyuRVXfUAwg3t9Yjy/vQa2I1YglkocOmIgPxNB2B8beiDUAAFggICAgICAgICAgICAgICAgICAgICAgICAgICAgICAgICAgICAgIMONhdByNBh9XRUv4VFS2NwbcMf0cPI/NByVDU0eJhtbG0CRgsR4tv4fJBr1NVgQndHW0YY+/vaotz63HVB3z7AztDjy4cww5Y8+4sYMicRq9kWHGonIjwvG3AMhlF9msqAGwv8A6Yhd+USH2/6Ttyr0z8PyNzk5cw0Nlim/gvmmSNoBcx+uahldb8l4qIrn+cYPAIPINAQEH1Xkw5ROKPO/zBYNwB4V0pbUV7++xbFnxaocIoGEd9WS+FmggNb9eRzGD4tg/pn5c+APDjld4K5e4EcKMH9iwPLmHtpqVjjeSZ3xSTyu+tLI8uke7xc8oP3CAgICAgICAgICAgICAgICAgICAgICAgICAgICAgIB2F0FMj3atLepQU1Jkp7F52PQhBttaGhBlAQEBAQEBAQEBAQEBBhztKCt84HVyDAnDvhN/tQfj+PHA3hhzNcJMc4IcYsuR4rl7H6M09dTO2cze7JY3dY5WODXseN2uaCEH84HaKdnzxX7PPjlNw3zq2XEsvYi6SfJubGwaYsWpAejrbR1Edw2WLwJDm3Y9pQfAEBB7MfRysm5O4CcmnFbnQ4j1UdDQ1mKyx1FdK3eHC8KpjJK4HyMs023iYwEHlZza8yWcebvmLzZzFZ4c9tXmbFHT01G95IoaNvuU1K30jhaxnqQ49SUHzpAQEBAQEBAQEBAQEBAQTpKeWtqG00AFz1J6AeaCc2EYjEJHvgJbF8Th4jzHmg5TGn1NLQRHDnFsTficzwHh9iBQ1T8UwiX2tu7QRr6XsLg/NBxBr6+WPun1chb4gvKCAAAsEBAQEBAQEBAQEBAQEBAQEBAQEBAQEBAQEBAQEBAQEBAQEBAQEBAJA6oMmmqtImfSyaOurQbW+aDmcepJ66kikovfa3fS3xBGxH/AB4oNWhw6uw+nfibpRE5guGP6OHiCg1sSxF2KTCQxBjWizR1P3oKo5JoJWzQzPjexwcySJ2lzHA3DmkdCDYg+BCD3cyjxYZ2tXYZZtpseqI6rO2F5VqaLHGlt3nHcLYyqgnA3IM4jhlvt/LOHgUHhAyRs0TZmCzXtDmj0Iugyg/ScIuEfEfjxxKwfhBwjynU43mPHqwU2F4bSj3pHncuc47Mja0Fz5HWaxrS4mwQf0a9mD2b/D7s7eBzcq0stPi2dMdbHUZ1zMyK3tU4B008N9200WpzWNO7iXPd7zyAHZtAQEBAQEBAQEBAQEBAQEBAQEBAQEBAQEBAQEBAQEBBh7gAg1JnOe/SwG/hZBNkveH2KtYA4jY+Dv70GygICAgICAgICAgICAgIKKiSwJQYbHDUw2iNnDqT4FBXRmQRzxSMs9o6fYUEIZnCxII9Cg+e81vKlwY50uC+I8D+OOXfbcMrbS01VCQyqw2qaD3dVTyWPdysubHcEEtcHNcQQ/nZ7QTs8OOHZ6cWTkbiVRuxHAMRle7KecaSnLaTF4W76fHuahot3kBNx8TS5hDkHwNgBcAfNB6dc0HFz/mz/R9+CHLtgEwpsX4wRvrcUDNnuw41L8QqCfH33S0kR82ucEHmISSblAQEBAQEBAQEBAQEBAQX4fh8uJVHcsOlrRd7/IINirZhuF18LqSoeHRutKGm+3z8/RByT5qXGaaWmpqog9CW7H+8INWjqMTwyndBXUbpIoh8bSOn7Qg1q/HfaYDSUUHdMIs4+NvLZBogACwQEBAQEBAQEBAQEBAQEBAQEBAQEBAQEBAQEBAQEBAQEBAQEBAQEGTHN3PtAiOjVbXba6Ddy7RsnrHSVDbmJoIa4eJQbMWYya409RAGs16Qb7j5oM4nXVGDTtbTBpjkBIjcPhPjZBx1bilZiIDZiGsBuGNFggoAtsEBB6M/Rt+ZAcP+bPHeWnMVUDgvEzAHmmp5XDR+EqJrpG9fF9M6oafPu2DwQdCeMOTHcN+LubOHbmafwBmnEsNDfIQVcsQ/QwILeDHBfijzC8TMK4PcGcl1mP5jxqfusPw2ibu627pHuPuxRMHvPkcQ1jRclB/Qf2VvZTcN+zw4fuxzGZKTH+JeOUjW5kzOyL8XTx7O9ho9Quyna4C7jZ0rgHOsAxjA7eoCAgICAgICAgICAgICAgICAgICAgICAgICAgICAgIMOeGoNeacC4ugxQOZJK833aAg0Kl1TPVkPvrDrADw+SDmUBAQEBAQEBAQEBAQEEXvAFroNWZxkeGN6k2CCFWYsP0vhkPfeI8HD1QaOcMyYxg2ScVzNlbLb8XxCgw+WemwmOUMkrJGMLhCxx2Dn20tvtqIvYboPzvALmL4Z8zPCzDOMHCDHI8RwbFYrxPB0y08g2kgmjPvRTRuux8brFrgR5Eh+5h1OFz1KD8fx/5fOEPNFwtxPgzxyyTS49l/FIwKikqQQ6OQfBNE8e9FKw7tkYQ5p6Hqg8Ce1A7HjjRyAYtV8Qcqe15t4WzSk0maI4L1GE6j7sGIMYLMN7AVDQIn7X7tx0EPzXagcU2ZtxLghwow6X+I5B5eMqUndNdcCrrKGOsnNvA6X07T+YEHVxAQEBAQEBAQEBAQEBAQcllurgjdLTSyBrnm7STa/ogvGG4Fh34yqmDyeneOv+gdUGKuGkioxjOE2YWdNIsHC9iCEGpW4/U1tP7O2IRhw99wN7oNIAAWCAgICAgICAgICAgICAgICDYw2lirKtsEswYDv6n0CDGJ4bNh04a9xMbj7rx/x1QXY/TRUUsMcDAG93b1O/UoNIEEXCAgICAgICAgICAgICAgICAgIHRBt0OC1NfEZy8Rst7pcPi/uQchgTw+hdS1BiIik02BBvv+/oghiVTU4bija4wAwuZocW9T8/XyQZkly7UyCule3UNyDcE/MeKDjsVr/wAJVIka0iNgswHx9UGugICD6ByocXqrgDzPcPeNVJMWfwYzlh1dPY21QNna2dp9HQukafQoPv2f+Rbjvzw9qJxm4VcvOVBUU9PxVxp2LZgq9TMNwenfXSuEtRKAeoJLY23kkt7rbXcA9qOzy7NHgP2d/D12A8PqU4vmnFIGDNGda+na2rxFw37tgF+4p2u3bC028XF7ruQdjkGvX11JhlHNiOIVccFPBG6SeeaQNZGxou5znHYAAEknYAIPn3LTzI5P5p8pYnxO4XQST5Tjx2pw7L+PPuI8bbTO7uargFt6fvxJGx/+M7pzx7rmkh9JQEBAQEBBjW1BjvR/wUGQ4FBlAQEBAQEBAQEBAQEBAQEBAQEGCQOqCuSYNG5Qa8tTt1QTLqekgFRUt1F3QWugzEaeZntlABqAsQBa/oUBlfDIA8QHVbxt+tBsoCAgICAgICAgICASB1KCD5QB1QUOkfK7RGL/ACQV9zUwTNmfHdoPvWN7BBmvw19XKJ4ZG7je5/SgeyMoWNMbz3n1j5hB4sczHGfjb2IPagZjzPw3w+TE+F3FCcZkqsnzT93S1rJnkVTYTu2nqoJ9eh4Fu7lia8FpGkPWblR5s+BvOVwkouMvAjN8eJ4XU/i6qmlAjq8OqAAX01TFcmKVt9wdiLOaXNIcQ+nINPF8IwzHsMqcDxzDIKyirIHwVdJVQtkinieNLmPY4EOaQSC0ggg7oPKjtV+wJxniJjNdzC8kszHYgKKnjr+G9ZM2OJ8VPAyCJuGyus2LTFExop5DoOn3Hs2YQ8fc05WzPkfMddk7OmXa7CMXwyodT4lheKUj4KmllHVkkbwHMd6EevRBoICAgICAgICAgICATbcoL6TC6+uZ3tPF7vg5xtdBTV0dTRSd1Uxlp8D4FBbhNJRVc5ZWVOgAXA6avtQbWMYlBJCMNw8Dum/E4dDbwCDjwABYICAgICAgICAgICAgICAgICC/DMOnxGcmN+hrNzJbp8vVBylPVw1Zfg+IuY97dg4HZ/7igtxKTDIixuJQ3FrNkcy/6Qg4vEpMHLQzDobuO7ngkAelig00BAQEBAQEBAQEBAQEBAQEBBg2tv08UHP4lRVFdTRwUEzGRW97c7jwQUMyxStbpfVv12+rYD7kEo8WFC92H4sS4s+GQNvrHhdBxmJ1bMQqzPHEGtAsNtz6lBSgICDDnNY0ve8ADqXGwCDvz2bnYQ8cubs0HFTmEixHIHDmbTLEJoO7xjG4jv8AxeKQfxaJw/x8ouQQWMcDqAe63DLhHw64O5dflbhrlOkwqlmq5Kus9miAfV1UhvJUTP8Ailmed3SOJcfPog/TIONzRmjLeSMu1ub85Y9R4XheG0r6nEMRxCpbDBTQsGp8kj3ENY0AXJJsEHip2j/ar8S+0t4u4XyFcj1TWUWS8zY7Bg0uLhroajNEskgbqcDZ0NAwXkLDZ0rWFz9LfcIexnALgzlDl34L5W4HZCgEeEZVwOnw2i90AyNiYGmR1vrPdqe4+LnFB+xQEBAQEEJX2QUyCXu+9A2/Z5oI0ru/LjfZo6IMxVF+pQbDH6kEkBAQEBAQEBAQEBAQEBAQEGCbC6Ciaa2w3KCpxfFKx00RIc7YILaumg7qSUwlxLejev2IKYH0+LUQp5HWe0C/mD5oLKWmZhkTry6i70sgjTw7Xsg3EBAQEBAQEBAQEGHPDUFEs9uhQVyx1Pu2YTq6AeHzQZozJ7NK9jfxgJABHiAgpwzEKqWp9nnuQb2uNwUE3iWCpeyGRwZfZt9hdBZFC5x1PNz6oOmHbo8kc/NvyZVuacnYQ6pzlw4dLjuAMiZeSqpwy1bSN8y+Futo6mSCMeKDw55Puc/jzyQ8Vafi9wCzd7JO9rGYrhVUHSUGMUwN+4qYgRrbudLwQ+Mm7HDe4e/vZ09qpy+doVlJtPleubl7PNDTCTHcjYlVNNTCBs6andYCqp7/AOMaA5twHtYSLh2iQEHXXnp7MXlZ5/MvmPi1lI4fmanpzHhOdsDDYcSo/wAlrnkFtRED/ipQ5u506T7yDxF59Ox15teRSoq804pl85yyJE8uizplyle6Onjvt7ZT+8+kPS7jqiv0k8EHU8EPAc2xBFwQdiEBAQEBAQEBAQYLgPFBFzidkH6V8D3RQez1IigY3U8tNriwtv5dUGlViXMD3NprMhhB0yOHxu/cg4lrQOqDKAgICAgICAgICAgICAgICAgNjmmuIYnOt10tJQcxgjHSYNLBA7TKS4HzBtsg0KLBa+apDHxPiDT7zyLW+XmguxLFJzA/Cpmse9rrOlHQj9hQceBYWQZQEBAQEBAQEBAQEBAQEBAQCQNygSRTtYHvhe1p6OLTYoJw4lXU8fcw1Tmt8geiDk8MwySnk/C2JVIuBcXff7SUHHYjVCvrX1AFm9G38ggqQEBB9Y5TuSHma5285fwO5eOGdVizYZQzE8bnPcYZhoPjUVLhoYbb923VIbe6woPabs8uwa5c+UaSg4m8anU3EbiBTls0NXX0lsKwqUb3paV99b2npPNqfsC1sfRB32AA2CAg+c8zfNRwL5QeF1Xxc4/Z+psEwmmuyBsh11FdPa7aenhb788rvBjR6mzQSA8De047XjjX2hOPSZPw6Ooypwyo6nXhuUYai8le5puyor3tNppOhbEPxUZtbW4d4g7O/RpuSh+Y8847zyZ4womiwIS4HkgzN2krHtHtlU3/ACcbhAD+VLKOrUHs2gICAgIBNhdBr1L9kFcNRNTt1ysPck/F+T6/JBbFTRRSPnjeAyRu48B6oIx0UIF46gkDxuCgnEQNmm48DZBcgICAgICAgICAgICAgICAgjKbDZBTTsD5nOdvp6INaoixKulIawsY0+7qNh80E2vxChf3lW8Sxu2cW/VQTlpsPLXTsaNThsWu8UGIYSd3b/NBsxs0hBNAQEBAQEBAQEAmwug155HX0tG5KCuqhigpy+aazz8PqfJBKixGmfHHE6e7yLWd5oKe6r6GtdJG10zJDugvFZFqLmUxDzsS5oCDEUbnu7x/UoNljA0IDmhw0nxQfzn9tVyFTcknNrW4lk/BTBkLP0k+L5TdHGRFRyl96ugB6DupHhzB/NSsH1Sg6nZQzhmzh/migzvkTM1fg2M4VUtqMMxXC6t0FRSTN6PjkYQWn5dRcG4JCD1/7Nr6RNgGY4qDg3z+VEGFYjdsFDxKpacMo6o9B7fEwWpnnxnYO6N7ubF1Ieq2C43hGZMJpsey/itNW0NZA2akraOdssU8bhdr2PaS1zSCCCCQUG6grnp4qiJ0M8bXse0tc1wuCD1BHiEHQnno+j/cqfM8+tz1wRa3hdnGculfNgtGH4TXSm5vPRAtEZJ6vgMZ3JLXlB5A843Zoc4PI5XzTcbOF00mX2y6afOeAl1ZhMwuQC6ZrQacm3wzNjPlfqg+B+R8CLg+aAgICAgIMxSRxStfLHraHe82/UIObfhuG4uY62E2H1g0WuPI+RQRGLYQ2pOG+zANB03LBpugzVV34EkbCYtcDwSwA7s8x6hBp1+PvqovZqOIxsIs4nrby9EGh0QEBAQEBAQEBAQEBAQEBAQZYySV3dxMLnWvZoQYgjdUzxwXsHvDb/MoOar8TjwQx0dNSAt03O9v+CgnUVQkofwxQkNcB7wI+IX3B+X/AB1QaE2ZK6aMxxRsjJ6uHVBogeJNyepQEBAQEBAQEBAQEBAQEBAQEGCQOpQb2XaaKprXSytB7tt2g+aDkxWuFJJU4pC2OImzGEXLh6hBwNVSyxFsxgLI5bujBN7DyQYMkrohC6VxY0+60u2CDCAg/c8AeWnj5zS50bw/5fOFOMZqxPU0VDMMprw0gJtrqJ3ERU7f6Ujm+l0HqzyO/Rqco5edR5/5685sx6rGmRuRMsVUkVCw7HTU1Y0y1HiCyIRt2+J4QeonDvhrw/4SZRosg8MMm4Xl/BMOiEdDhOD0LKengb/RYwAC/UnqTuSUHPIBIHUoOj/aPdt5y88krK/htw6kps+8SoWujOAUFX/E8Jktsa+oZcMIO/cMvKbWPdg6kHhnzRc2nHznI4mS8V+YLP8AUY1iRDo6Gnt3dJhsJN+4pYAdMMfna7nEXe5x3Qcby5cA+IPNFxwy1wC4XUJmxrM+JspKZ5YXMpo93S1MlukcUbXyOPky3UhB/ULy38BMicr/AANyzwD4aUfc4NlfCo6Klc8e/O4byTyeckkhfI4+LnlB+5QEBAQCQOqCqWYAdUGs6RskzWOPxOAQRxqaZhbC24YW728T5IMYXLUU8WqRhMJOx/J/uQTMUTpi6BtmlBtQx2G6CxAQEBAQEBAQEBAQEBAQEGHODUFEszfNBU2V0b9bCgS1lZJ7kLACfEC5QWObLHQmOpk1PcLIK6en9EG2yMAdEEkBAQEBAQEBAQEEXuAFroNcvDZ2vd0BQZqaGnqZPaJpTpA6X2QQbR4TUh0MDRqA6tJuPVAgrKiNphlaHOYbar9UEoonPd3j+pKDYYwN3QSQEHwTtHuSLKfPvyv41wTxh8FJjMY9vyjjM0d/wdicbXd08237t4LopB4xyO8QEH8zufsh5w4XZ3xfhvxBy/PhWO4DiMtBi+G1LbPpqiJxa9h89xcEbOBBGxCDiAbbhB2X5C+1Z5quQLEosK4e5jbj2THT667IePzPfQm5951M4XfRyHc6o/cJ3fG9B7b8h/a5cpXPjSU+BZPzR/BrOrotVTkbMczIqwuA940z76Kxg33jOoAXcxnRB2mBBFwUBBrV+HUOLUU2G4pQxVFPURujqKeeMPZKwixa5puHAg2IOyDonzjfR9eTDmOkq81cIaSbhXmecukNRlqma/C55Dc3loHEMbfzgdEfE3QeWPNx2LXPlykGqx3E+F7s6ZZp7uOZsjNfWxsjG+qam0iogsOpLHMH5ZQdTvFzQd2OLXj8kjqD5H0QEBBguA6oNrDMHmxK8zn93GDbUR1+SDkIsMq8IJqaCYzMt+MiItqHmPVBKfDaDGiyvhk03PvkDdw8j5FBo5grY6yrbDC67YgQXDzPX9SDSAtsEBAQEBAQEBAQEBAQEBAQEFlLST103cU7bnxJ6AIOQw2lmwrFhTPdG4Ss+K9ig2cYgk9gvQQs92TWS0bgg9R6oKhXYTjNM1le5sbx5utY+hQUYlX0UND+C8NOoH4nA+F79fFBxoFhZBlAQEBAQEBAQEBAQEBAQEBBv4PQUOIRyRzSnvfqgG1h5+qCymwCnpWvnxaUBjXWADrAjz/uQbVPRUdP/wBI4SbgNIcwOuHDy36FBGauwGt0VNTKCWdGOvt9nig43FMTdiUwLGlsTPgB6n1Qax2BcTYAXJPgg+ycrfZ/c33OXXRx8v3BLFcVw50mmbMdWz2TCoPPVVy2Y635Met/9EoPULk++jO8JsmOpc2853EmfONcwh7sqZZfJRYWw/kyz7VFQPze5HmCEHpRws4Q8LeB2Tqbh7we4fYPlrBKQWp8LwTD46aFpsBq0sA1ONt3G7j1JKD9MgIPlnNJzmcuHJnkc5+5heKFBgVPI134PoXPMtbiLwP5Omp2Xkmd0+EaRe7i0boPGTtB/pAHMHzPMruGnLdDW8NskTaoZqyCpAxzFIjt+MnjNqRjh1jhJfuQZSCWoPPkkkkk7kkknxJNyfmTvdAJDAXOcAALkk7AIPc36Ph2ckvL/wAI3833FvAXQ5xz5h7W5do6qEiTCsEcQ9riDu2WpIbI7xEbYm7EuCD0nQEBAQQfKG+KCmSpA6FBGna2cukkPut67oEb8NrnGGMAOG4NrH5hBl1WxrzTVkOot8Q0EH1QJJjONEbdLQgshh0hBcBYWCAgICAgICAgICAgICAgwXAdUETKAgonqBbYoF4KeNkszC90hAa0C/VBisZFG5ujZzvq+nmgjA57HamH7EFmh8rtchugujZpCCaAgICAgICAgICCL5A0dUGu6R8jtEYuUEJY5mDVIwgeaCt0TJCA42udyg2I2QUMZER1Pd4oMQwlx1OQbLGBoQZQEBAQeW/0gjsv5uK+V5+eXgVlx82ZcAoQ3PuF0cWp+KYbE33a1rWi7pqdos/qXwjziaCHimCCA5pBBFwQbghAQTp6ioo6mKspKiSGaCVskE0Tyx8b2m4e1wsWuB3BBBHgg7/8jf0hDml5cG0eR+YeCXillOHTG2or6oR45Rxjb3Kp3u1QH5M41G1u9CD185P+0c5ReeDCG1HAnirSz4u2HvK3KmKj2TFqTxOumedT2j+cjL4/6SD7sCDuEBBgtB6hB125rOyt5HOcYz4pxb4JUEGOztP/AOasvf8AR2Jhx+s6aEATH0mbIPRB5uc0H0ZHjPlL2jH+UvjLh2baJt3RZfza0YfXgX2YypjBglNvFzYR6oPPvjpyqcx3KzjrcK5ieB2Y8rASlranE6BwpJyDb8XUs1QSD815QfksTwqDEIG4hhtjqZqAaNnj96CVLE6uy97LTP0vAIcL23vex+f7UGMuw4hTySRVET2xAbB4t71/D9KDjaipkZVTx0kzmxvkNw07EXQVAACwQEBAQEBAQEBAQEBAQEBAQEHMYC134KlNIW98XHc+B8EFcOWppHGeurDqJudG5+8oLAJcuvbqkMlNIbG43YUGvjOJYfU04pqKJri52pz9Frf3oOOAACDKAgICAgICAgICAgICAgICDDnW+aDcpMGxcaaqBmhw3bd1ig5EGPGad1BXxmKdm5b5H8oeYQRweinwiKokq3DQLWsetvFBHh7w24hcXc0R5O4WZCxnMuLzvDY8Ly/hktZOT6sia4tHqbD1Qd5+WH6OhzvcaDTY3xoqMH4X4LLpc9uLyCvxQsP5NLTu0MPpJK0jxag9HuVTsFeQbltdS4/mfI8/EfMNOWv/AArnlzKiBkg8Y6JoFO0eWtsjh+Ug7m4bhuH4TRRYbhVDDTU1PGGU9PBEGMiaBYNa0ABoA8Ag2kBB+I45cxXA/loyTNxG488UcGyrg0VwKzF6wR964fUiZu+Z/kyNrnHyQeVfO/8ASWMYxJlXkPkRyQaGI6ozn7NlGDKf6VLQm4b5h9QSd94kHlrxN4q8S+NWdKviPxdz7i2ZcerzerxfGq1087x4NDnfAweDGgNb4AIOAQEHersRezGqedbjO3jLxYy9I/hfknEGPrmTx2jx7Em2fHQNv8UTPdknt9Usj/xhsH9A8UUcMbYomBrWgBrWiwA8kE0BAQVSy6UGvI6V7HSNYS0dSgthhp6qBj9BFvsugopqmnhrZaFzS1rj7utBmHB209UKhs3utNwD1QSmAnqC9g2ta6C+KENHRBaAALBAQEBAQEBAQEBAQEBAQEFMr97DqUFVTFNHYtBdfbbwKDDsOlkZ70wafIC6C2mdYNp5gBKwbX8R5hBGOnZSPdUVE3eSO6Ei33BAgZf3iOvgg2GtAQZQEBAQEBAQEBBhztKCmSoA6lBTNU3G5sglROdJTSPgI7y5Av8ALZAlqXRhtAx/ezOFnG3RBjuDHJ3biDt1QWsgHkgtYzSgkgICAgIISRsljMcjQ5rhZwIuCEHgz24XZOVHKTneo5nOAmX3HhjmOvvimHUkXu5Xr5XfBYfDSSuP4s9I3kxGwMdw89EBAQbGFYrimBYpTY5geJ1NFXUcolo62iqHQzU8g3D45GEOY4ebSCg768nP0hrnD5fPZcrcdYoeKuXIbM14vP7PjMLB+RWNaRN8p2OcbfygQeqPKJ2w/IvzimmwTJ/FWLLuZqgADKOcQ2grXP292JznGGp3O3dPcfMBB2lDgTa/2IMPfp8UFD6geCDjMbwTBM0YfJl7MGFUtdQ1be6qaOrgbLFKw9WuY4Frh6EIOqHMl2KPZ+8bKx9bRcJX5IxGfU+TEsiVHsLS4+Jpi19M7ff+TBPmg6Pcwn0ajmDyoJ8z8r/G/AM2U4br/BGY6d2F1cg/JD2d7A93qe6HyQdIOYHkj53uXITt41cteacEo4SWS4xT4Y6soTbxFVTmSK3zcEHxWJ0crSYZGvANiWOBsfsQZQEBAQEBAQEBAQEBAQEBAQAHuBMbC63UgdEGaasqqN5kppiwnrbofsQblNT4pjp1TVR7sGziT0+wILcwVUIhjwuB2ru7ajfpYWAQcYAAEGUBAQEBAQEBAQEBAQEBAQEG/hWF0mI00hdORKNgB9X19UFVDQPpcZZBXNs1ridRPu9DY/eg/c8O+CHMPxwzEMJ4GcHszZrebADAcFlqYh5l8rW92wX8XOAQdzeDH0eDni4sU9FjvFDEcucN6YuY9zcTrfwhXta4bgQUpMd/R0zUHdvgJ9Hf5KeHgp8R4z12P8Sa+Ld8GLVfsOHud4EUtKWlw9JJHjzQd3OFPBbhNwQy0zKHB/hpgWWMLjAtQYBhUVJEbC1yI2jUfU3JQfrQABYBAQCQOpQfIuZ7nn5UeTrBji/MNxqwfAZXx66XCHTGfEKrY27qkiDpn3ta4bp8yEHl/wA4f0mfiBmZtVlLko4Xx5epHXYzOGcYmVFa4flw0bSYoj5GV0nqwIPNDi/xr4vcf86S8RONvErGs1Y3NcHEscrnTvY38iMH3YmeTIw1o8kH5dAQEH3bs9eQvih2gfH2k4S5HEtBg1Joqs35nMGqLB6HVYu32fPJYtij+s65PuMeQH9JvAfgZwy5a+EeB8EOEGXI8Ly9l6ibTUFKzdxHV0kjur5HuLnved3OcSeqD9igICDDjZpQa03vyCMnqbIMV8lWzTTUULtxu4DogphpsZpowWPaQ037u/6EF+ihxNjZpWWc34gTYj0KCvuh3hbE52i+wJ2CDYhh0jZBcBbYICAgICAgICAgICAgICDBcB1QRfILdUGrUSXOyDFLiDopBT1bS0H4HOH6EFOJ09fDVirhle5pOwH1T5fJBsYjGJREXCzhe9vBAggvuf0oNmOPSN0E0BAQEBAQEBAQEFM77AlBCLuamIw3s4ff80EJpqPDGNbO3W93Ww/egk58TIvwhRNBB+No21D9hQG10TgXxwEOPUkBBmFjnOMj9yUGw0WCDKAgICAgICDiM85IylxLyjiWQM+ZepMWwTGKKSjxTDK+ESQ1UEjS18b2nqCCg/nt7W3sn859n5xCdnfIlNWYtwox6tLcCxh95JMImdcjD6t35XXupTtK0WPvtIIdNEBAQEGHMa9uh7A4XvZwuLoOzPKj2u3PhygimwnIHGapx3L1NpDcq5zDsSogwfUjc9wmpx6RSNA8ig9IeWL6S5y48QGU2Ac0nDfFsgYi7SyXGcLDsUwpzvFx0NFRCPQxvA/KQegXB3mE4C8wmUY858E+K2AZqwt7QXVOB4lHUd1foJGtOqN39FwB9EH6qXD3PAqcPqA7e7QT+1BY+SkqmCPEIdDx9VwP6CECSVhYKemZZg9LIJw07NJBb16+qD4px17NfkU5kXSVXF/lfyniFbLcvxakw4UNaSfH2ilMcpPzcUHTzjR9GJ5Wc1mSt4Gcbc45NndctpMUEWMUjT4AB/dzAfOUlB1L4xfRr+fTIZfVcL8x5Kz3TAnu46TFH4bVuHrHVN7u/wDnig6rcXOz554eBAlm4rcqWecMpoSRJiEWAyVlKLePf0veR2/rIPj0hEVQ6jmsyZhs+F5s9p8i07hBktLTYtI+aDCAgICAgICAgIFwOpQIm9/OyAG2t4bf5lB+iYZKapjoKSkAiay75D0H9+yDicYjirKmSow+HU2Ifjnt6E+aDVp5p6cEwzOZqFnaTa6CNgEBAQEBAQEBAQEBAQEBAAvsEEZZYoLe0Ssjv07xwbf70H7vhXyw8yPHKVsHBvgDnPNGrpLgmWqmaIeplDO7A9S4BB2h4QfR+O0h4oOgqMyZEy/keklAPf5tzFGZWj/IUgnff0dpQdtOAf0YLI+DyR45zC80OLYkWX7/AA3J2DxUUfTcd/UmZ7h6hjSg7ecE+x57OThGKfEcvcuWFYzitIdUeK5xkfis7XeDtNQXRD+qxqDsng9Bg+X8OiwDD8Ap6Omp2aIaWjp2Rwsb/RYAGgfIINx73VDgA2zR0CC6KIAILQLbBBxmZ83ZVyRgc+Z85ZloMJw2lZrqsRxOsZTwQt83SSENaPmUHSXmg+kI8hXAZtTg3DbHq/ihjkOpraXKEYFC14NrPrpbREesXen0Qeb3NV9IF58OYb2nA+HON0XC7AZrtFNlK78Qey+wfXSjWD6wtiQdIsZxrGMx4xU5hzFi9XiGIVkhfWYhX1L5553Hq58jyXPPqSUGsgICAg+p8nfJ5xp54ONlBwQ4J4J31XPabFcVqWO9jwejDgH1dQ4fCwdGtHvSOsxu5uA/o/5IeSrg7yI8DqDgpwjw8vDHCfHMcqo2iqxitLQH1MxHibWawe7GwNa3YXIfYkBAQCQBcoKpJgOqDWkfqdcHogm7EJmt2jaT53QZoXVsj3TVLrMts21kFXdCSdz2jq4lBtRQgBBaAALBAQEBAQEBAQEBAQEBAQDsLoKZHm+kdSgpqxJAA5xuD4jzQKeRkVI6t06iL2CDFJXQ4o11LUQi9ungQgU1TJSufSzXeGGzHenqgkA+eTW8fJBsxsAF7IJICAgICAgICAgw94agpfUAdSgpc587wxguSgw/CpriWGq0vG491BK0eJROpKyPRMzqPL1HogyIG0VEKUP1Od1QZggFtwg2WsDUGUBAQEBAQEBAQcBxJ4a5E4w5DxXhfxQypRY5gGOUT6TFcKxCEPhqYXdWuH3EEWLSAQQQCg/n/wC1h7IDiFyCZmn4l8OYq7MHCbEKq1DjDwZKjAnvd7tJWkDpc6Y6jZr9mu0vtrDpURbYoCAgICAdxZB+k4X57zbkPHxjWSM14ngeKQnXTYng2IS0lRGR1tLE5rvW17IO5fAv6QFz48v0VNlvNePYVxGw2BrWvhzbR6Ktrf6NXBoe5585GyIO8fAD6Spyc8Tm0+E8eMmZk4c10hAlqpab8K4c3176mHetF/yoR80HdzgfzO8ufMbhTcZ4F8a8sZrhMetzcExiKeWMf04ge8jPo5oKD6I3TawKCSAgII6G22Fvlsg/CcUuV/lw44RSRcYeA2T8z962zpMcy5TVL/se9hcD6goOtnE7sCOzI4jtdJh/BCtytO8kuqMpZjq6UA+kT3yRD5aLIOvfEj6LbwXxKSWfhFzVZrwYG5ip8xYJS4iweQLojTu+3dB8D4hfRjec3L7Jajh3xm4e5kjaT3cVXJWYbM8fJ0UrB/bQfEM+9hr2oWQGOnm5ZJcZhbe0uW8xUFZq+TO+bJ/ooPjOeeSjnI4ZtdJn/lR4j4SxnxS1WTK0x/PWyNzbet0HzXE6KswSc02N0c1DI02dHXQuhcPseAUFEcsM28ErH/mOB/UgmWPHVp+5BhBdQQwVFWyGol0Ncevn6IN2bLLnVoEMloXbknq309UFzMGweUmKlqD3rN9TZLkH5ILpK6lkY+gxGXupALPs6wcPMHyKDTr8SoqakOHYUAQ4EPeOgHjv4lBxnRAQEBAQEBAQZDXO6AlBh/4oapDpHm42QRp5YaqUQUkzJXk7RwuD3H7BcoP3GSOWnmP4lyNi4dcvmesdL/gOFZPrp2n+s2Ij9KD7JkHsbe044iyNbhHKBmOha/8AxuYamkw1o+YqJmuH9lB9t4e/RrO0DzY1sucsxcPcqRn421mPT1srf6tNAWk/1/tQfd+HH0WTDmtiqOL3OHVyuuO+pMrZSjhHqBLUzSf/AE0HYThj9HO7N7Ij4qjNWXM3ZykYBrGYs1SxxuP+ToxA23oboOxvCns+uSLgXGx3CvlWyLhE8ZBZWx5cglqQR499K18n+kg+swU0AtBGwMYxtmxt2FvIDogzPQlwJpZBt9UlBXQzGBzqOtZo1m4Luh9EE4MMgoZzU9+6wGwP/G6BI/2iXWdmjpdBxudOIGQOGGBSZo4j52wjL+GQ/wAriGN4lFSQM+b5XNb+lB085gvpA3Z2cFGz4dk/PmJcRMTiDg2kyThxlg1joDVzGOC3qxz/AJFB0R5jfpL3NjxC7/CeXfhrl3h7QvNosRrv+l8SA8wZGsp4z6d2+3mg6Icb+ZLj/wAymNfwg4+8Y8x5vqQ4mIY7ij5oYd72jh2iiHoxjUH4kknqUBAQEBAQfX+Svki46c9/GCDhLwUwK4jLJcezBWMcKHBaYm3fTvHUmx0RN9+QiwsA5zQ/oq5F+RXglyCcGoOE3CHDDLUTlk+Y8yVkbfbcaqw2xmmcOjRuGRN9yNuw3LnOD7WgIBNtygiZAEFcs4A6oKog2YukkPusG6CQ9lqKYzsBY0dHEWQUMJdYjqgvc+aZoa42HjbxQTih09EFwFtggICAgICAgICAgICAgIBIHVBB8gtZBq1L73sgvDmNhZT1sjS54tY+KCmMfg0mCa7oHn3XkX0+hQZhiw6lcZoCCT0AdeyAyMyvMjhuTdBsRxgBBNAQEBAQEBAQEBBTUPsCUEWMhqYTG02cOp8QUFGHF8VbJTziz9N2+o9EFBgxGnxHWwOdqf8AF4OHqg2q9n8aZLGbOaOoQSjic863m5PiUGwxmkIJICAgICAgICAgICDjsy5Zy9nXLtZlLN+BUmJ4XiVM+mxDDq+nbNBUwvaWvjkY4Fr2kEggixQeJfau9g7m3gHLifMFyY4FW47kZuupxjJsOuevy+zq59ON31VK3c6d5YgP8Y0FzQ80AQ5oc1wIIuCDcFAQEBAQShlfTzsqIjZzHXHqg2carKavqGSQMPutsXHx9PsQaiC7DMSxHBcTixvBcRqKKthcHQ1tHO6GaMjoWyMIc37Cg7NcCu2V7R/gC2Kiy7zKYnj2HxaQMLztAzF4i0dGiSb8e0fmyhB3H4J/Sj81Uvd0PMZys0lYNQEuKZIxowuA8T7NVhwPyEwQdu+DPb79mlxb7unxTjBW5LrJCAKTO2CTUjQT/wBvGJIPtMgQdquG3Gvg7xjw0Ytwk4qZdzPS6A72jAMbgrGgHzMT3W+1B+nDm9CevgUGUBAQEGC1rviaD8wgw5txtf7DZBxuYsl5RzdTmlzXlfDsTiIsY8QoY52kfJ7Sg+Z5x7P3kcz+xwzfyg8Na1zvilkyXRNef6zIw79KD5jmPsS+y2zIHuq+UPAqV7/r4ViNdR2+QhnaB9yD55mX6O52Z2NPc/DclZuwi/QYbnerIHyExkCD8Pj30ZHkhxME5b4o8UKA+GrGqGdo/t0l/wBKD89U/RlODMVqSj5ps607TtE+swagn+wlrWIPzNX9FiwalxJtTgHOpiLGar6avIsTy0eIuyrag4TM30XPNtdXa8K5zsOIawN/jGQ5Bfr+TWHzQcLN9Fp4ytJ9i5vcsP8ALvcn1Tf1VBQUSfRbOYAE91zZZNPlqyxWD/8AlKCLfotvMJb3+bDJY8rZZrT/APyoNin+i08bXn+M83eVGD/s8o1bv1zhBydF9Fgz/IR+EedDB2efcZEmd/rVgQc5hv0VmlNjjHO9P6ik4fNH+tWlBz2F/RY+EkLh+GucHNtQPH2TLNFDf+056D9ZgH0YDk0o7HMfHLidX/lCGsw+nB+6kcR96D9lgX0bvs3cHeHYhRZ9xUDq2vzpIwO+fcRxoP3+Wuwn7LLLjBflcp8QePr4vmPEqm/zD6jSfuQfRsm9mN2e2QHNky1yY8N43s+GSpypT1Dh/Wma8oPqWU+D/CfIbQzI/DHL2DNb8LcKwSnpgPl3bAg/R6Re9z96BpaDcNF/kgygICDDxcINSVxhlEg8EGnmHHctZTpnZozPmakwqhiZeeqr6tkEQHm58hAH3oOt/GftnezX4Ly1OG5l5m8Dxirg/wCoZSZJi8jj+Tela+Np/OeEHUPjZ9J84UYW6ei5c+WbHsZda1PiObsUiw+EH8ruYe+kcPQlh+SDqDxw7fftHuMYnocvcRsJyFh8+3suSsGZHMB/7TUmWUH1aWIOpPETiZxI4vY6/M/FjiDjmaMSe7U6vzFi01bLf0dM52n7LIODJJ3JugICAgICAgIO0vZudlRx47Q7NrMSweGbLnD2hq+7x3PFXTaoyWn3qejYbCpqLbH/ABcfV5vZjg/oF5WeU/gdyb8JqLgzwGybHhOFUvv1M73d5VYhUEAPqamUi80rrbuOwFmtDWgNAfSkBAQQlfp+xBS5kz4zI0/IeJQVwwTVLdd9I8CQglBG+ie5lSQY5OjvAHyKCdRRGeVrpJrRMG0YFkEXlks142iwFr+aC9jBZBMC2wQEBAQEBAQEBAQEBAQEBBVO/SCUFfs80jNeqx8AUGpPJJTyN76Mizr/ADQXYnQuxBjJ6aQEgbb9QguaJIqIMrC17iLW80FVPANttkG0yMN8EE0BAQEBAQEBAQYc7SEFUk4HUoKJpg4blBl0vsWHmpjYC91tygRyQYtCHsdolYbgjq0/uQG1lYwmGZjNTdi4eKCUcbpHd5JuSg2GNDR0QSQEBAQEBAQEBAQEBAQCARYoPOLtP+wT4b8zcuI8b+VBuHZOz/NrqMRwV7e6wnH5epc4NB9kqHfzrBoef5RtyZAHibxe4OcU+AfEGv4U8Zsh4llvMOGP01mFYpBokaD0kad2yRu6tkYXMcNw4oPzSAgICAgICAgIMgkdHEfJBdhGJYll7EWYxl/EajD6yM3ZWYfUOgmafMPjIcPvQffOEnatdovwTMMWSObrN8tPAAI6HMFWzFoA0eGmtbKQPkQg7LcK/pMnO9lCOOk4mcNcg5wiaR3k7aOowypePzopHx3/AM2g7G8MfpR3AjFXxQ8YuV7OGBkgCWfL2K0mJxg+JDZDTvt6WKDsBw47fXsw+IEbRX8dqvLM77WgzTlmtpbHyMjY3xD567IPvXDvnf5OuLUUbuG3NHkDGXS/BBQ5tpHSn/NmQPH3IPp1LV0tZTsqaKpZLE8XZJE4Oa4ehGyC1z2t6uA+aDKDDzZqCjU18ojc6wKDXrw+lOq12no7y9EFlXNLTYeySm8QNTgPMdUCin/CVK+KpYCRsTbr/egjT1FSIRETc+Dj1sguhhtuRdBeBYWQZQEBAQEBAQEBAQEGNbL21C/zQNQvax+5B+Kz5zIcvnCtr3cTeOeT8vCMEv8Aw3malpSPskkBQfB+IXbcdmHw5EsdbzVYPi1RFt7NlmhqsTc4+QdTxOZ/pIPgPEz6TtyeZejdFwu4M8QM0TNvpkqqalwyB39aWV8gH+bQdd+KX0obmOxszQcHeWzJ2XongiKfH8TqsUmZ66YxTsv94QdZ+K/bW9phxda+nxLmarsCpnE2pcn4ZTYYGg+AkjYZv/iXQfBMx8T8+cVjUVfFriDjWYqk3cavMGMT1ryD6zPd4+SD8i1mkBnQA+6B0CDKAgICAgICAgIJ01NU1tTFRUdPJNNPK2KCGGMvfI9xs1jWgEucTsAASTsEHqN2Zn0e3N/EmTD+NXPhh1XgGX9TZ8P4dskdFiGIt6g1z2m9JEf5lp75w2cYvhIeyuTsl5S4dZVoMkZDy1Q4Pg+F0rabDcLwylbDBSxNFmsjYwANaPIBByyAgIIl4HRBRUSbWBQa7K99LJcsJjPxbdPVBbiLJqykEtBNcDfS0/EgxRPlqMMeKq52IBd1P/BQQghcWhuokDwJQbcUOkbILQLbBAQEBAQEBAQEBAQEBAQEBBRUtJBQRidJNTuhZIWvb8Dv1IMxPeaTXibWDzBH7PNBB0UdPHroqktBOzOo/T0QYYySV2qRxPzQbMcYaLoJoCAgICAgICAgIITHb7EFVKI3lxcLuHgfJBXJSU9Y0upJ7EdW+R/YgxBI6niNHiMVm9GvtdpHkglF7BRgmkaC4+IN/wBKBFEXO1v6k3KDZawNHRBJAQEBAQEBAQEBAQEBAQEBB8b5weRTlr55shfwH5gMgxV0kDXfgjHaNwgxLCnuG76eoALmeZYdUbrDU1yDxD7QbsQOaLkrkrc+5Jo5+IfD2HVIcwYNRH23DYtz/HaVty0AdZotUe13d3eyDpU1zZGh7HBzSLhzTcFBlAQEBAQEBAQEBAQEGQ4tNw4j5IISwU851T08ch83xh360HP5P4o8T+Hs7anh/wAS8x4DIw3a7BMfqaS3/dSNQfYMmdqb2jWQSwZd5z8/OZHYMixTFxiDAPK1WyRB9Zyl9IK7T/LPdtxLi3l7HWMAGnGsl0hLh6upxCUH07LX0njnRw6JkOa+CPDbFg34n08VfRvd908gH3IPouTPpRWYK2pjpM58mVLIXfHLhOenNsPRstIf1oPpGB/SfOXesrRhOb+WHO9ES0AmjxShqm38vefESUH7DC/pJvInSxNgx/IfE6jjds17suUswZ6Hu6on9CD9FhH0insz8QZ3T85Ztw0O+I1eRqvb/uw9B+mwft4+yyrgO/5lJKQn/wBMyhirLf8AyxQc/S9t12V9VbuecLAm3/n8LxCP/Wpwg36ftmezBqPg5zMnt/yk07P9aIINhnbCdmVIPc51Mi/1sTcP1sQSd2wPZlMbc86uRPsxUn/ZQUTdsj2YkAs/nRyWf8nVyu/VGUGlUdtj2WlLfvecbLjrfzNHWyf6sBQcViPbvdlZh7SW800NTbwpMrYrJf7qVB+axf6Q32YuGX9l4pZjryPCjyNiG/8Abjag/L4t9JZ7O/Dw4UGBcSsQI+H2bKUUYP8A31QxB+LzH9KJ5WaPUMrcuHEWvI+E1cuHUwP/AMd5H3IPw2Y/pUVB3bm5Q5KapzvqyYtntjB9rYqV360HznMv0ojmnrC8ZP5a+H+HA/AcRxGvrSP7LoQUHzLN30iztLMyOc7BMy5Jy+D0GFZNbIW/I1Msv6kHynOvbD9prn57jjPOLmmka/qzA46XDgPkaaFhH3oPj+euZLmK4oPc/iTx/wA8Y+X/ABjF83VtQ0/1Xylv6EH4h0EDpjO+njMhNzI5gLj9vVBMucRYuP3oMICAgICAgICAgICAgAX2CD7hyXdnhzS8+WaBhHAnIb3YRBOI8Vzfi2qDCcP33D5rHvZB/NRB7/MNG6D3C7O7saOWfkOhpc8VNI3OnERsX43OOM0jQKNxHvNoYLltK3w13dK4Xu+x0gO4QAAsAgICAghK6yCp4mdGZAPsQU0umpn0uNwBc+qDL8YiiqjTSRWYDpLr/sQZkBw6pEkI/FSH32DwPmEEpZzP7jAQ3x9UFsMQA6ILQLbBAQEBAQEBAQEBAQEBAQEBAQQlbqCDWbeCcP8ADx+SDOIQukexxddttm+qBDTjxCDZZGGjcIJICAgICAgICAgICCMrbhBqhxp5w/w8fkgskjpaJ763Tdz0EIq6Z7SJIhc9LIEMHiWoNljA0dEEkBAQEBAQEBAQEBAQEBAQEBAQYc0OFig6Mc+XYO8qPNzNXZ84ZQM4a55qC6WTFcComnD8QlPjVUQLWkk9ZYjG8kkuL+iDxx5zOzN5veRbEZZeNPDWWbLwl0UudMA1VeEzC9hqlDQ6ncbfBM1h8tXVB8B9fPogICAgICAgICAgICAgICDLGd5I2PWG6nAandAg5ebLNK6JrIp3NkDdydw77EGnT01XgdcyoqYSYwSHPZuLFBv1uCU2KSitgqdOuxJAuD6hBRjuJRtpxhlPJ3jrASPJv0/ag4oAAIM3I6FBnW/8o/egd5J/OO+9A7yT+cd96B3kn84770DvJP5x33oGt/5Z+9A1Em5cUGEBAQEBAQEBAQEBAQEBAQEBAQEBAQfueX/lo4980+dm8POXzhXi+asV1N9ojw2n/E0jSbB9RO4iKnZ/Skc30ug9ZuRT6NpkHJjqPiDz05oizTiLdMrMjYBO+PDIXddNTUe7LVkeLGCOPax7wIPUDKGTMo8Pct0WTciZYw/BsIw6AQ4fheF0bKenpox0ZHGwBrB6AIOVQEBAQRc8DogpnkFjugxRue1rpHvAjHmgjJD3MoxGjGppH4xjfEeYQYfDhda8VRkF/GzrX+YQSncKiQBg91vQoLIYbDoguAAFggICAgICAgICAgICAgICAgICARfYoKpIr9QgwIiSNRvbogtYwNCDKAgICAgICAgICAgIBFxZBrzxakGCddP3UjbkdEGYYbdQgvawNQZQEBAQEBAQEBAQEBAQEBAQEBAQEBBq4lhmH4zQTYVi9BDVUtTG6KppqiIPjlY4WLXNcCHAg2IOyDoRzmfR6uT3mGfV5u4GGThVmacukP4CpRLhFRIbn8ZQktEVzbeB0fnpcg8qebnsgeejk6NVjOc+E02ZMtU5cf4W5MD6+jawfXmja0T03qZIw0flFB1ha5r2645A5t7amm4ugygICAgICAgICAgICDDhcIOZptWNYW1rZdE8LgA++4Pn9oQX1eK02GNZTVL3SvI98gC9vMoOMxaow6QtGGBzS7d5bcN+VvNBpNaGoMoCAgICAgICAgICAgICAgICAgICAgICAgICAgAE7BB9V5ZOSTmo5w8YbhfLtwWxjMMIl0VGMtiEGG0x/wC1q5dMLfzQ4u8mlB6icnH0ZvIWWzSZw52eJbsy1bS2R2TspSyU2HtOx0TVZDZ5x4ERiEergg9MuEvBnhTwHyXTcOuDXDvB8s4HRi1PheC0DKeIGwGohoGpxtu513HqSUH6lAQEBAQRkNggpAkmeQ02A6lBr1TZ4AXPYSPyhuEE6cNr8NdTtfZ3Q+m9wgYVTV1LqZUECPwF77oMOjjknc6JoAJ8EGzFCAEFoAAsEBAQEBAQEBAQEBAQEBAQEBAQEBAQEBAQEBAQEBAQEBAQEBAQYc0OQR7r0CCTWhqDKAgICAgICAgICAgICAgi6QBBDvx+Ugy2a/igmHAoMoCAgICAgwWg9Qg6v813Y/8AIfzeS1ON574N0+B5iqbl2asnOGHVznbnVJob3VQb/wA7G/5oPNzmf+jPcyvD99RjnK9xOwjP2Ht96LB8a04XiYH5LXEmnmI8y6K/kg6B8bOXTj1y3Y4cucfOD2YsoVeoiMY9hb4IpvWOaxilHqxzgg/FkEdQgICAgICAgICAgINrBKv2KuAcfxcnuu9PIoMY3FEMSkMMmoHd2/Q+IQawAGwQEBAQEBAQEBAQEBAQEBAQEBAQEBAQEBAQEAC+wQcllDJ2buIOYocoZBypieO4tUODYMLwXD5aupkJ6Wiia536EHdfll+j4c/HHd1Pi/EfA8N4YYLLZzqjNc3e15ZffRRQEuDvSV8SD0d5V/o9/Ipy/mmx/iZg9dxRx6Ah/tObtIoGPBvdlBFaIj0lMvzQd4MCy/geV8Ip8v5awakw+go4hHSUNDTthhgYOjWMYA1oHkAEG8gICAgICAgjKNkGvDKYp9Djs7ZBKE1rKp0LwHRWu156/L1QY9npHyOkpZhHIPiLDt9oQV95US/i3y6hfwFroL4YdIQXAWFkBAQEBAQEBAQEBAQEBAQEBAQEBAQEBAQEBAQEBAQEBAQEBAQEBAQEBAQEBAQEBAQEBAQEBBh5sEGuHsfNokdYIKa1jqV4cRdhPxeSCyseIZmsbsNOyCcM19roL2m4ugygICAgICAgIONzNlLK2dsEnyznLLVBi2G1LNNTh2KUjKiCVvk6OQFrh8wg6dcxHYF9nVx1NRiuX+GlXw/xacuca7Ilf7LEXnoTSSB9Pa/g1jfmg6N8fvoxXMflHv8AE+XXjllvONKwaosNzDTvwmtP9EPb3sLz6kxj5IOl/HTs6eeTlvdPLxg5X83YdR05Ikxaiw019D8/aKQyRgfnEIPirXMe90THtc5hs9oNy0+RHggygICAgICAgICAgICAgICAgICAgICAgICAgICAgICAgIMPc2JneTSBjfynmw+8oP3fBzli5jeYWsbRcDOBWbM2OJsZsDwKaaBvq6bSImD1c8BB3H4DfRwefPigYa/ixiGVuHNC8tMjMUxD8I1wafKCkvGD6Omag7wcvX0bHkl4YvgxTjZmTM3EmujN5IK+r/BuHuP+QpSJCPR8zh6IO8HB3l84H8vuX25W4HcJcvZSoAwNdT4DhMVKJLdC8saHSH1cSfVB+zAAFgEBAQEBAQEBAQEGHC4sg1amPfUEFkjpJ6MmN9nW9636UGvBTC2wQbUUIaNkFoAAsEBAQEBAQEBAQEBAQEBAQEBAQEBAQEBAQEBAQEBAQEBAQEBAQEBAQEBAQEBAQEBAQEBAQEBAQVTSADqg146f2kkvcQwdSgxBWwyPdQVLxI07Nf4O9EGxUzsgI72AuafrAAoId7HI4d1EAPO26C9nigkgICAgICAgICAgIMaW+At8kHybjbyJcnHMYyQ8a+WrJ2YJ5Td9fVYHEyr+yojDZR9jkHU3jD9Gv5Cs+d/WcM8ZzrkSpeSYYsMxsV1Kz/NVjZHW9BIEHV3it9F24+YQ6Wo4KczeVcfiaCY6bMuEVGGSu9NcJqGE+tgEHWzif2HfadcLmvqJ+WybMFMwm1TlHG6Sv1W8RH3jJf8AQug6+cROXrj9whnfTcVuBmcstPYbP/DuV6ulaP60kYafsKD8ayop5XaIqiN7h1ayQEj7AgmWvb8TCPmEGEBAQEBAQEBAQEBAQEBAQEBAQbhwSpfh7a2J4cSNXdgb6f3+iDGD0UVZHPLM4kxs91tvEg7/AKEGmw6trboEr2QC80rYx5yODf1oOXyfkHPnEOsbh/D7I2N4/O82ZDgeDz1jifK0LHIPvfDLshe0p4tPj/g1yhZpoopAC2pzK2HCYwD4n2uSN1vk0oOxvCn6Mvzo5sbFV8U+KmQ8oQOI72CCepxWpYPzY2Rx3/ziDs/wj+jB8rGWiyq4z8dc65tlbYmnwxtPhFM4+IIa2WW3ykBQdruCvZPdnhwCkjrMg8qeVX1sTRpxPHaQ4rU6h9YSVhkLT+bZB2BosPosOo46DD6OOCCJgZFBCwNYxo6ANGwHyQbAFtggICAgICAgICAgICAgIISR6t7IK+6IBaDseoQTjiA8EFiAgICAgICAgICAgICAgEgdSgwXtQA9pQZQEBAQEBAQEBAQEBAQEBAQEBAQEBAQEBAQEBAQEBAQEBAQEBBguA6oK5ZgAg15O/mGqOMlBKmDp6OSmN2P3BBG+6DWp8HndLaoGlo6kHqg2DJK5vs5fqANtXmEFsEIHggvAsLBAQEBAQEBAQEBAQEBAQEBBgta7q0H5hBGSKOVro5WBzXCzmu3BHyQfOOIfJxymcWWSN4mctGQ8ddN8c2J5TpJZD/XMeofeg+H557C3svM8Rvc7lhpMHmeSe/y7jldQ6fkyObQP7KD4/nL6MryJY2x8mUOIfEnAJXX0tjxymq42/ZPTOcf7SD5Vmv6K/lyRr5Mjc6GJwn/ABcWNZKhm+90NRH/AKqD5pmP6LrzSUrnHKPMvw/xBoB0/hHDK+jJ/siYBB8+zN9G87RzBHOGEP4d4wB0NHm2WIu+yamZ+tB+MxrsD+1Owdpkj5eKGuaPHDs6YY+/yD5mH9CD8hjHY5dp3gZPtfJrmiW3U0VVQz//AE6g3Qfna7swu0Ww4kVPJHxKNuvcZakm/wDplyDhq7kA568NJFfyZcU4rdb5Drz+qIoOMqeTXnAoyRVcqHEyO3XVkLEf/soNSTlR5p4dpeWPiM3e2+RMR/8AsIMM5VOaSQ6WcsvEYnyGRMR/+wg2IOT7m3qiBTcq3EqS/TTkLEv/ALCDkaPkQ53sRIFFydcUpb9NOQcQ/bEEHMUXZpdobiFvZeSPifv0MuUaiMf6YCDnsK7IztMcaIFJyXZzjv0NXHSwf/Unag/XYF2E/an46A6PlgNGD44hm3C4rfMe0k/oQfr8v/R1O0vxhzRiWWMj4SD1NfnRr9P2QQyIP3eBfRi+cmsa1+Z+O3DXDgfibTOxCrc3/wCBGD96D6hkP6L/AI/hlOKjiBzlxCI7vgwbJBJb8nTVX+yg+s5H+jNcoeDyOrs6ccOIWMmVv4xlHLRUUb/X3ad7h/aQfTsidgJ2XGUQ2Su4MYlmB7Pr4/m+vmBPqxkrGH+zZB9p4a9nXyJcKQDkHlE4e0L2W7updlWmmmHr3krXvv63QfZcJwTCcBoW4bgmF09HTR/BBSQNiY35NaAAg2tDb6rC/mgygICAgICAgICAgICAgICAgICAgICAgICAgICAgICAgICAgE2F0FL3ku0t3JQUyzujdpk2IQWPc6HTqPUboLI5QRsUFgN9wgICAgICAgICAgICAgICAgICAgw5wa0ucbAC5KD8vinGHJWEvq2VGIAihiMlW8ObphYATqeSfdbYE3O2xQaXDjmA4acV6YYhkbMlDidG6YxNrcOr4qiEvFrt1xki4uNr33QftkBAQEBAQEBAQEBAQQfIANigpMr5CWxtubIKO8MkjWuBAc/TdBPEsQmoZGRxRjSW33HX0QSll9oo210F2PA/buEEWz1MrdL3fOwQXQw28EFwAAQZQEBAQEBAQEBAQEBAQEBAQEBAQEBAQEBAIB6hBgxsPVg+5ADWt6NA+QQZQYs3+l95QY0fP+2UDR8/7ZQZs3+l95QZsPX70AgHqEGNDPyR9yAS1gQUzT2HVBrCZrqhjHnq4XQYxvv9bRY93bw80EsPbVUcIkkH4tx+HxHqgkWMlmdIxmkEoNmKOwQWICAgICAgICAgICAgICAgICAgICAgICAgICAgICAgICAgICAgjIbBBqPmkZKHRAk+A80E5GRYlCdB0SN2serT5FBOalfO1h7zSWjfa90ERA6DcyA+iC+M3CCSAgICAgICAgICAgICAgICAgIKcQiknoJ4YjZz4XNafUgoP5/sw5Kyvg9IME4xcF+LtTxiw7idU1fMHitFFWmmxDKAne+qaCyUMMboxAWGwB0uOvToQdtezFi4K5v55M7Zj5B8tYxhvBx2SsPp8UNRBUx0s+YG1Ic10LahxeNNMZA4eBJNgHtJD1SQEBAQEBAQEBAQEEZXWCDXDZKh+lpsB1KCDJW0td3JqG6XDe/gfL0QTr2S1NIHUUgNjq93x+SCEVbBVwBtdAQQepabX9EE5JGPjEFOyzB6ILIIbBBcAALBAQEBAQEBAQEBAQEBAQYLwEGO9Hp96AJAUEkBAQEBAQEBAQEBAQEBAQEBAQCQOqCuSYN8UFElTboUCl7uVr6iTdrUGIK6ixBxp3RWP1b+Py9UEvbZaeU08seu3wvB6j1QHySVJFxZo8EFsUQAQWgW2CAgICAgICAgICAgICAgICAgICAgICAgICAgICAgICAgICAgIMOeGoNeefwBQYpC0RSVIGotvYfIXQce2rqn1gqIz77jbSBsR5IN+Z8FTCJCSyRu1vEHy+SBCx7jqe4n5lBtMbYIMoCAgICAgICAgICAgICAgICAgqr5n09DNURi7mROc0eoBKDx74r85vaNcQuXrHe0QyDxWyjlPh7SZn9hwPJ0uDsqayqp/wAINohJUSSRuc1+s6nNY4HS1xDQLXDuJ2e3OPj3FPG8xcGOL2QabKfEXIeJR0Ob8vUjg6ne2Uaoa2ld4wy2cQLuI2Ooh7SQ7ioCAgICAgICAgICCmdwsUGIAZKZzI36XG+/kg1xg9JGNdXPffxOkIJd0cLeHwOLoXmzmE9D5hBOacVLQxjCBe5ugnDAAOiC4AAIMoCAgICAgICAgICAgIIvNggqAfMSGutZBQHv9oFO9xBJsgsklEU5jB2FkF0UocNkFnVAQEBAQEBAQEBAQEBAQEBAQUzS6d7oKXsnkjMjW3H60FtO2Kqp45HxDboEGvDWR0tdLSzxd2x5u2/T/wAignFhtHTz+1Ml2G4bdAcDUTGQDbw+SDYiiAHRBYBbYICAgICAgICAgICAgICDGpo8UDWPIoMgg9CgICAgICAgICAgICAgICAgICAgEgdUFb5w3xQa8tRcWBQSfHSQNBrJAC7wJ/cgy1rKBpmjcXRO3cL3t6jzCDEb8OjcZoGDUfJp/wCAgwGOmkMjh1QbEcYAugmgICAgICAgICAgICAgICAgICAgqrZWQUc0z26msic4jzACDx5xjC+xaxjjJPxMo+a/GKfLkuZTj03DeLF6gZekxHVq7003s2oNLt9Adb6osz3EHZrkV5rORbmz41O43cJ8EbScTcXyuYccw2rlmjr4MOpqpkbTPGx7qZ3vmEte0l+iRoJG7QHfFAQEBAQEBAQEBBVLKGi5QUudLILtYSPMBBUC4fC4g+YKDMdD7U/XNLcDrc3KC2oc2QthiHutQWQw2HRBcAALBAQEBAQEBAQEBAQEBAQEFU7wASg1oxUuf3lOBdvW/Q+iC5vs9fplHuyRPFx4j0QJoqOScmSWz/EarIDWxMfpjeT5oL2dEGUBAQEBAQEBAQEBAQEBAQYebNQa0gD5mscdiUCvjrZiIKZtmW3deyCmPDMQp2h0NWLtNwzwQXMmo6xgdUxtD2dWu8CgrbCx0pMTNLSdgg2YorILUBAQEBAQEBAQEBAQEBBXK+yCqWV7AHFtgehQYjc90bpr7D9KCcU2rxQXAghBlAQEBAQEBAQEBAQEBAQEBBhxsEFE04G17oK4nsfUCKe4JGwPighXQRUcPtBlNw8aQfH0QSrqRuKQMqKaQXA2v0PoglDA6kw4wTPBJBAHldBiCAeWyDZZGGjogmgICAgICAgICAgICAgIFwOpQLg9CgICAgIIztjfC9k3wFpD/lbdB508X+zMquV7MVdxg5Csv5QzPglROajHeC2fsOgqaSoJPvHDaudpfRyHwY53dknc2a1iD9x2M3LXS8CeWPKUfFThVRYFnd1DiMOIS1OHQtrS1+KTyMa+Zg1PaYxCQC4iwb5Cwd4EBAQEBAQEBBB8oCCt9SPNBrvmEkrWOPxOAQbTnTtnAaGtha27nHx9EGu9/tjnTwM9xuxd5+qCUUWoXQWxwgdAguAsLICAgICAgICAgICAgICASB1QVySgDqg1aio63KCcjpRhmumvqIuSOvqg08Oiq3Td7T/VG5PQ+iDbqJI6oNIiIcOt/D0QWQRWQbAFhZAQEBAQEBAQEBAQEBAQEGCQAgqlnA6lBrvfqOyDLquq06WEE+BtugnRRVMbnVFXM6xGzSf0oINj72VzwPiddBsxRBoQWICAgICAgICAgICAgICATYXQa1Q+wsCgRVDZ2+z1LbFw90kfEgzDRyRwSUxfsXXa70QRZRzR796028SgticdkFqAgICAgICAgICAgICAgICCuZ1ggqga0B1RJvp6fYg1XVOIVdQ2emp9mn3dtrepQXw1MkxNFicAaX/DtsfRBH2AUDC+CqeCTs2+xQSjZJK7VI4n5oNmNgaOiCaAgICAgICAgICAgICATYXQVSS26lBUakeCCwSFrg12xsgsa8OHVBJAQEEZoxNC+Im2ppH3oPF7m44ncTOA2GV/Zz81nFXNeHUWLcYqKppOINfiFRO7GMi1U7jURirkLnd5TksD2uJbpDmbgWeH13s1MP4YZS54M9cJuR/POJY9wdosp4fWVkjq+WroaLMDqgNLKaV4sQ+ASOcQfeLCLkMbpD1GQEBAQEBAQYebBBrmSMygSHZBl9CHShwfZnUhBWwYXWOMEThqHQgkH5jzQSdUxXdR17dx9a2zh5oD5muYIKdlm/KyC2FlhYoLUBAQEBAQEBAQEBAQEBBF7w1BTJUAbBBS15qJhFfqd0E5q2hppvZpIunxHTcIJSP9gAfCzVE4/CD8J9PRAdWGRumGMtv4oMww26hBe1oaEGUBAQEBAQEBAQEBAQEAkAXKCBlAQVyzi3VBXAY3tfUS7tYOiCTpIJaTv5ou7v8ADfr6IKWh17EEFBcWyygB7rgeCC2KLSgsQEBAQEBAQEBAQEBAQEAkAXKCqWYNHVBRGRPUBjj6kIKMWqXum9maLBhBG290GxS1PtMPc1jbEjZx21Dz+aCEYfcxiVzm32uUG1Eyw38EFiAgICAgICAgICAgICAgIMOcGoKJpRaxKCENSYSbtuCeiCM2JykiOmg3PTV+4IJ1rTJSsEwGu4O3gfFBGGFzrFxJt5oNmOMNG4QTQEBAQEBAQEBAQEBAQEEZTYINZtSyGbVJ06X8kGKqncyRlVT7t1AuA8B5hBKrjnM4cyMlunqEEojI0WkaR8wgvabjdBlAQVVtR7JRTVVv5KJz/uF0Hlfmrns5h+crB8W4r4T2beGcUeCeE4xUxRHE6qmqsQrIYH6JKuCklDtRG50sjcb3aH3a4gPo3KpzlcJ80cz2C8D+UnK2UcM4YYlwejzZBTYHgTaGro8WGLNo5oJmRODGODPjaWF2prXB5afeD0PQEBAQEBBB0oHigqkqB5oKfZ5qoEx2A8yUGYZKmgIhrrOiOzZB0b6H0QG4Q2KubUwPDWA3LfI+nogzO1s1SXDwFroLooQBsEFwAAsEBAQEBAQEBAQEBAQEBBGR4aOvzQa7nyTO0Ri6BR2c+SnlhNwNyUFVc5mHywyxQGwNnOHiPL5oJz0VLiZFTDNY23IF7oJT933bKWPcNtv8kE4YbDoguDQEGUBAQEBAQEBAQEBAQEBBXM+32IKjC+WIvY+58roIRUj5Ga536Aeg8UEoojhznF79UTzuSPhPr6IJS09PNMKmafU1o91lxb+9Bgv7+bWG2A2CC9jBbdBJAQEBAQEBAQEBAQEBAQRfIGjZBTJUgdCghFGJmmWZ9mDxugyynge4VNFLdzT01XB9CgOfh1U7XMyz27EOuCPT1QJpBOQyNtmt6bILIYtPgguAtsEBAQEBAQEBAQEBAQEBAJA6lBEyABBrzzW2BQZ7qnjLWVEnvv8AhF0FdREIJA0OuCLjzCCVNIYiSIwb+KCWmSZ+uT7B5ILo2Bo6IJoCAgICAgICAgICAgICDBcAgonlAHzQQjbDHA6rqACB0BCDWosS7iYxubaJx90XvoQbtTJUR2mhkaWH6pH6kEWPkndqefkAg2GCwQZQEFVaYhRymf4O6dr+Vt0HmDwf5+eUbkKbjvLpy5YPxS4l0GEZmxCaWfKuVIcSp8JM8veSUbZdcIexjy+zgH3ufeNkHN8hOF8kHGrnOzdzc8v+M4tgeYsTwU4bnLh7iuENoZKOpnqYJ3VhhudJe6naHaC5mtziSHOsg9KEBAQEBBh5sEGvrjMwEpsEFGIxSUw7xguw/oQTr3VAw9j6NxAsC4s62sgYbNJW0b2VYuBtqPiEEaZ9QIRAX7D9SDYhh0+CC8AAWCAgICAgICAgICAgICAgIKKh3ukgoMHvYaPXTR6nlBqx4dib3GZ1TocRY3dcoLoZXNBoMTAO3uvPRwQRmgpGOa2maBbqQUF0EIAQXtFggzcev3IMOexgu9wHzKCiTFcMhH4/EYG/nTNH7UGtJm3K8P8ALZlw9n59bGP2oNeXiHkKH+WzphTf/wDYR/vQasvFvhnD8ee8L+yraf1IKJONvClnxZ3oj+a5x/UEFDuPfCVnxZyid+bTyn9TEFL+YfhMzpmV7vzaGY/7KCiTmS4VsHu4rVP/ADaCT9oQUu5m+GLB7s2IO+VA79pQVu5ouGzfhp8Vd8qMftcgrdzUcOx8GG4uf/dox/toKn812RWi7cCxY/OOIf7aCl3NllH/ABeWsUPz7of7SDVqObLLFrDK2Iu+ckX70FDebHDqZ3fx5IxJzPrAyx7j70EsQ5o8GxWjbNRZVrTbcNNVHY+nzQYpOanD2YQ8VWS6sbENDqtl7eHUeaCqHmqwoDbJFV/4xn7kGxHzYYY0bZIqv/Gs/wB1BZ/ztcO/9R6n/wAcz/dQP+drhn/qRVf+NZ/uoJDm0wnxyVV/+MZ+5Bn/AJ2mDDrkut+yqjQS/wCdngP1snV4/wDeI0E282GWz8WVMRHyliP7UExzX5SPx5axQfIxH/aQTZzWZHd8eA4qP6kR/wBtBa3mq4fO+PCsXb8qeM/7aC1vNHw3fsaXFR86Nv7HoJs5neGLhYuxFvzoD+woLo+ZXhY8e9iVY387D5P2BBfHzE8Jn/8A9RSN/OoZv91Bczj7wkf0zjG386mlH+wgkeOnCmQe5nejA/pam/ragx/yycM5W6m56w217XNSB+tBvszxw+rQ2SnzvhZYW72xCPf16oJ4fm/J+J0clFBmvDn2JF2Vse4vseqC7CKmiimc9uK0r22sdFQ03/Sg2WGGeZ0kTg4F31TdBtxQho6ILQABYICAgICAgICAgICAgICATYXQUve4u0t3JQUTPlZJ3ThuegHigxLR1unWxrSRvp1boNgaJm+1QxgyBtm6treiCplN3Mbpqx4fI/y8PkgnBHtuEFzWAIJICAgICAgICAgICAgIBNtygg6UBBTLUeDUGDRSytu6QNJ9LoEUY7k4fV2ufhI+sPT1QRgw2mo3GWZ+vyDh/wAXQYjYXnS0ENB2bfog2oowB0QTQEBBXVwsqKWSnebNkjLSfQiyDzA4a8Oe0c7O2ixDl84EcueV+K2SKbG6yry3j1BmqHC6+OKomMnd1bah47yRpNtTQRYAarAAB9L5I+W7mSzZzY49znc3GF5cyvjuM5Ygy9hOUMv1gqu4pI52TGWpna5zJJtUbWgtc73SR7oDWoO/CAgICCL5NKCmSdvmgpawVE4jJ2Jufkgm/EaYVTqCVlm206j0v5IMfj8M92NneQE+6L7s9Pkgk6qfO3QxmkHrugnBCAgvAA6ICAgICAgICAgonr6KkF6usijt17yQN/WUGhU56yXRg+1ZuwyO35dfGD+tBxtVxm4W0htNnjDzb+bl1/6oKDRquYbhPT7NzM6U/wDZUUp/2UHHz8z/AAzh/k24lL+ZRW/1nBBoVXNdk9n+B5bxSTy1d03/AGig4+p5uaJoIpcjTuHgZK9o/U0oOLrObXF5BakyXSt8u8rnO/U0INF/Njn1jS2lwDCmjwD2yO/2gg03cyvF3E5Q5kmH07Abkx0Rtb7Xm6CjF+YXipUTtjix+GPQDcx0EXX7QUGk/jXxWn2fnOoaf+ziib+piCmTitxLlHvZ7xPf8mpLf1WQa0+fM8VI/jGc8VffzxCT/eQakuPY7UOvPjla/wDPrJD+soNd9RUS7yVEjvzpCf1oKyxh6sB+YQDHG3pG3+yEANaOgCDNyOhQZufMoMICAgICAgg92/yQZNLLLTd9G658GjxCCrDAJ6sh4+Bt7HzQZfjkkVc6CWEBjXaTbqPVBZVl1BVtqYB7sv8AKM8CfP5oIzVElY61tLB0CDMbB9gQTQEBAQEBAQEBAQEBAQEGHmwQQYwzzthLjbqUGMSq7f8AR1LBq8D7t7fJBiOuxCmaw1tGREBZzgNx6oLThNJLUCtp392HC50NFj6oNfVPKTG6UFoPVrLXQXxGWL+Sle381xCDbhxnF6faDF6tlvyKt4/UUG1DnbOdN/g2bsUZb8nEJf8AeQbcPFLiTB/J56xXb8qsc79d0G3Bxs4q0/wZ2q3f5Rkbv1tQbkHMNxahFjmVjx/2lDEf1NCDbg5l+KEX8pPh8v59Db9Tgg3oOarPrBaowPCZPXRI3/bKDcp+bLH2/wCFZPo3/wCTq3t/W0oN6Dm2hItVZEkB8TFiAP62BBu03NflVwHteVsSj89D4nf7QQb8HNHw2lA72mxSLz1UYP8AquKDfpuYvhRUD8Zj80P+VoZR+ppQb9Pxu4U1RtFneiF/50uZ/rAIORpeIWRK0fxXOeFvv5V8d/1oOQgxjCqv/BMTp5f8nM136igukkFkGpPOWHW11iOhQW0VdDW7bCRvh+0INUVmJU+IiGoNw5wAAGxB8QgurGyR1muF5bqaNVj1QSjjfIdUjifmUGzGzSOiCSAgICAgICAgICAgICDBNhdBVLOB4oKo2vqS7S8C360FfdTU80Uk9g0vsRfofBBDGGVrZ2zROdotsW/VKC+oa+fD2OnbZ+x3HighDAXWv95QbUcQb4ILEBAQEFGJiU4bUCD4zA/R89Jsg8W+EvLLze81nA6j435S41cQcSzXn/ijV5a4yYBT4/HHS4RgQqnNqAyKW3dOhEUdmtJOio0BmkuBD71yZ8I8N5SO0mzrykcBcdxWbI0fDzDswVmEV+IuqmYVi7qqOLQ0n4DJA8yHxcNN7hrbB6YoCAgHYFBrTH3g0usCeqCUtNTm0evS49Dfqg1TDWUFQ2fuzIwddHl8kFs1Jh2IOFT3ttve0uAv80Ep5GyAU8PwhBOCEAILwAOiAgICAgIIvBLSA4i46+SDhMZynj2JX9k4hYrSX6CGGmIH3xX/AEoPzOJ8HM+Vwd3XHLGm3+q+MAf6DmoPzWKcuPEWrJP/ACme1X/9KknF/wDScg4Ku5YOJEZLmVeF1P8A708E/wBpiDjajl24r04uzLUMgH8zWxH9ZCDQqeDvFKkNpMkV5t/NNa//AFXFBoVOQc90d/a8mYrHbqXUEn7Ag46pw7E6T/CsLqYv8pTPb+sINWSUNFpHhvzNkFbHMqZ2wNlFnHwKDci9lfM+kjpbhg95+na/ldBoztjbM4QklgNgf2ILYpqlkXdMksD+hAZGGnzJQWNFggygICAgICAgICAgICAgE23KCJf5IKpnjTa6C3DyaeB9ZPKRH4D9v7EEnxNe9uK4dZxI95g+uP3oIunwircJ5me+PBzTf9HVBColNZKHAWa3pdBJjBbbogmBbYICAgICAgICAgICAgICASALlBBzr7lBU2cxTCVnUIL5MXhYC5lO4uPW9ggsoqmaqhfJVRNazwt4jxQaMDZA3u2yO0n6t9kF8cYAsEFgAHRAQEBAQEBAQEGC5o6uA+ZQNbD8L2n5FBdDQ11TtT0M8nrHC536gg3qbJWcqz/BMo4pJfpow+T/AHUHIU/CPifU2EWRsSF/5yIM/wBYhBvU/L7xYqm6zlZsY/7asiH+0UG3S8snEqZ4D2YZA4+Lqsk/6LCg5Wl5cOI1A8B+f4aT/wBmlnNv0tQfqMJ4N51waibVVnGnFyXdI42ucP8ATef1IP0eDZIxkxCoHEzF5ZY+hfBTDfyN4ibfag/RUNUHUzfapHSTR7EvaLk+lgB+hBNodPIZHoNljABdBJAQEBAQEBAQEBAQEBAQVzPsEFMUbHNNRO6zR5oNVuI0sNcZY43aC23Xx+SC+ZlPjdIHxP0vb0v4HyKDMcuIUkIFS1j97Ag7oM6pKlwL+g6AINiKMAdEE0BAQEBBTiEzqegnqGC7mQucB5kAlB5PS9pFz/Z5yNhXHbI/DvhvBkvijxDfkjhzDWVlUzEsNxKWaSKCqrQ0lj4yYZS5oAN2t2AtrD7Nya8ZuaXh7zbY9ymc2NZlbMGZI8qUmaMKzVleg7j2mjfUilfBUNLGe815Gn3QdIJJcCLB6AoCAgdUGtUsPVBHuW19J3D3Wcwizh4eqCUlaymc2niaZNOziXdP70FcwiqHh8cIB8TbqguhgA8EFwAAQZQEBAQEBAQEBAQEBAQYebBBSAZpCwPtYINKbBKWtlMVTh0LgOrnwtcPsuEGnPw6yi6QTuyvhsxB3bJQR7+e+lBq1nCXhljFOWtyfh7Q4+/3dMGn5G1rINGq4EcI3QCjiyfE0DqYp5G/qcg1ZOWrhZODowuqi/ydfJ+0lBrzcrXDd7fxVVisZ/o1bT+thQalRyoZTdf2bM2Js/OETv8AZCDUl5ScOcPxGeKlv59Cw/qcEGpPylVbf8GzzGfLvMPI/U9BqS8qGaG7wZsw9359PI396DXm5VM/M3ixvCX+neSD/YQak3LHxMj+A4ZJ+bWkfrYg15eXHisz4cIpH/mYgz9tkGvLy+8W4hvlUO/MrYT/ALSDWl4IcV4viyVUn8yWM/qegok4RcT2fFkbEf6sQP6igpk4Y8R4t35Exb7KF5/UEFEmQ88xfyuTMWb88Ol/3UFD8q5oi/lcs4i350Ev+6gpfguMxn8bg1Y386kkH7EFU9DXM2fQzj5wuH7EFcFDUVBLnxvY0G27De6DXrKGrgBc0am+YG/3IJ0T6fEcNdRGUBzdjv03uCglhlK/Cw99TWx6CPhDhb5oKZJIKiodM2RoBP5QQWMMNtpW2/PCCYcwbCVv9oIM6mfzrf7QQNTP51v9oIGpn863+0EDUz+db/aCBqZ/Ot/tBAEkbesrf7QQO8h/nm/2wgGSN3SRv9oIHeM/nGf2kGQQehQZ7uR3SJx+TSgm2jrHj3KOY/KFx/YgtZg+LP8A5PCat35tK8/sQWR5bzHL/J5dxF3yoZP91BP+BedJd4sn4o75YdL/ALqC6k4Y8QKppnlyXirWD/8AYvH6wg2JeD3ER8HtNLkvESOvvw2uPtKBScGOKcjw9mRqk28JHxt/W5ByLuBfF6tHdsykY2/06yEX/wBNBdBy38V3e6cDpmeevEI/2XQbkXLLxPk2fHhsf51cT+pqDbi5VuIMn8ri+Ex/56Q/7CDZi5UM2nebNWGt/Mikd+5BtQcpWJH+XzvA38ygcf1vQbcXKTRjefPUzvMMoGj9byg2oOU7LDf8JzXiT/PRHE3/AGSg3IOVfh7GPx2JYtIfWpY39TEG5By0cLof5ShrZf8AKYg/9lkG7BwA4SwD/wDSbZPWSqld/tINum4NcLqfePI2Hm35cOr9ZKDkKfh/kWjFqbJuFs/NoI7/AKkG9BguDUn+C4VTR2/m6do/UEGyGNDdLRYeiDKASB1QQe8WQaskr2yaoz73h6oL6mmbWQ93JZr7XBB6FBRCI54PwbWjTIwWG/UeBCCVLSQ4Yxzu91Od57IIwwXNyOpQbUcYaOiCaAgICAgICAgICAgICAgwXAIKJ3AjqgjG+nkpzT1BsPG56+KCJqsNo/chi1Hx0Nv+koFXEKeZlTTe452zgBsfsQZBlqCDJ4eAQXxRADogsQEBAQEBBCpfHHTSSTD3GsJd8rboPGHitH2HD+YnNWV8RzHm2jZXY1UxS1eG11Y3AcCxSR1pKilcxpEcgeDZ5D4W6dhoAsHZfk84ccsXKdza1/CbKmZs7Z6z3mrh1RZsl4hZtxaDEY6nCPbBSx00M7C021FjxZjg9tjr91rUHoUgICAghKzUEFEV4Jr+B2KDEkTHzl8Y2PU+qC6KEAdEFoAHRAQEBAQEBAQEBAQEBAQRLwEFcswA6oNSR85dqgY4uBv7oQXwVQron0zyYpdNnDoR6hBr4XT1lJWugkvo03J8D5FBKSBrqp72jq5BsQwBvggvaLBBlAQEBAQEBAQEBAQEBAsPX70Cw9fvQQlFwg1oy1k+l7QWu2NwgRYeIqh/eMjMPVocwEj0QVPwzL9W4y+yQh7friJoP6t0FH4Bwuc2kw2nkF9tcDf3ILo8rZet72BUZ+dKz9yCZyrllw97LtCfnSM/cggco5XPXLOH/wDgo/3IH8Dspf8Aqvh3/gY/91A/gZlD/wBVsN/8DH/uoH8DMof+q2G/+Bj/AN1A/gblIdMrYd/4GP8A3UAZQyoOmV8P/wDBR/uQSGVcsD4ct0I+VHH+5BIZZy634MBoh8qRn7kEhgOCN+HB6UfKmZ+5BY3CcMb8OHQD5Qt/cgm2ipGfDSRfZGEE2xRt+GNo+QQSQVyuA8f0oKJjK1nekHT53QQbFU1DNcbdj0Lj1QWUsYkhdQ1bLEG5bf4he90B1NUT1A74tbCz4WNPVAa1hmPdj3b7IL2RiyCYAHRAQEBAQEBAQEBAQEBAQEFM0mndBXI2o0a9BsfAdUGvT1LPbGB52vbfzQZxGCvjrhV0oc7YAad7eh9EGxWRsmpmuqIwH2FgD0KCunp/TZBtMjDfBBNAQEBAQEBAQEBAQEBAQYLgPFBRNNbYHdBj2WZ41OcAT4IKXscxxY9tiEE6VlKwmV7TqB2QSdqqJNThYeAQXxRgDogmgICAgICAgpxCEVFBPA7o+FzT9oKDzs5BMt8AuX7g7jXJTxhzHkXOErWY7jmJRUFSK6jr8C9rZG6sq5nM7mORhkZG+Nzy5oY07gXAafJd2fGYuEPO/V8YOGXEWnzHwbrOGzsP4fyzYwKibDaeoxGnro6KM3Pe04/HyRyhxBbI0XJ3IekqAgICARfYoIOiv0QGxW8EEwLbBAQEBAQEBAQEBAQEBAQYebBBQA6ZxaHWsg1Z3vjmEEgsSbXQXYhXOw4MjhiBBHVyDErmV9GK6EaJI9wR1FuoQTbWySxBoZZxHvH9yCUENuoQbAFhZAQEBAQEBAQEBAQEBAQEBAQYIuLINaoivuAglJeooyC6xHxeqCqGmHkg2Y4gB0QWAW2CAgICAgICAgICAgICAgwXgdEGvUSC1roIU+IRuf7NUWsdmk+PoUEMXnr6UskpiBGNiQOh9UE5JDV4eyqtpeCC0jwN7IMMdUSt0ySk+aDYhh0+CC3ogICAgICAgICAgICAgICAg1qm4sR4IMzVMwpRUwNDi342Hx80CSmp62FslTD3bnetiCgi91ZSNDTI2RvgXD3kEWiSd+uQ3QbMbNIQTQEBAQEBAQEBAQEBAQCbC6CmSWxt1PkgpfUnogqExZOx0jSG6xckbINmdogkdWvL3kCzGNHRBX3Uz4jVVLtLj0Z5DyQTijBG4QXNjA6oJoCAgICAgICCMrO8idH+U0hB5J83vZxcyuE8wWbc9xcBeHudMC/5LcXnZjGXsNqsruFS6pD2OcKJ8hqsRay+kO0xyx6g6xsCHYXsd8kcUcocKcKw/P8AkTipgbW5QwN1NDnXMVNiOFuHs5u6gY0meiuLaqaW3dDu2NA0lB3pQEBAQEBAQEBAQEBAQEBAQEBAQEGHPDUFUsot1QUQiSSoHdut4uPogsqI6XEWuhbKNcZ6jq0oIGeCZnsmJxgPb59D6goMl0EcPs1K33fEoJwQAb2QXtaG9EGUBAQEBAQEBAQEBAQEBAQEBAQRezUgr7n0NvJBYyO3VBJAQEBAQEBAQEBAQEBAQVyvsgpmkkY0PcLA9CghStbUvc5591vVAjnwuueabuQD4Xba/wAkEopTTyGhq3a229x7vEeRQZleJbRRCzG+SC2GOw6ILQLbBAQEBAQEBAQEBAQEBAQEBAQVzsuEFNK4xTGN3R360EK1kslRpkPuj4AEE44HOsXkm3S5QXsjDfBBNAQEBAQEBAQEBAQEBAQRkcALeSDVNS2CXW4XHigu7uncfbY26zpuA3x/vQa9HisddKaWaADVcAHe/oUEvaailmdTWD2t+Ek7gIJapKhwc/oOgCC+JlggmgICAgICAgICD8Vx64/cMOW/I/8Ayh8XM44dgWE+1Mpvb8UqRFEJX30s1HxNjb5IPhz+1+5GLlp5ksjkf/51v7kGG9r9yLt+HmQyOPljjf3IOwnC3iVgPFnJ1DnrK1ZBVYZidHDV4dWU0uuOpglYHxyMPi1zSCD5FB+jQEBAQEBAQEBAQEBAQEBAQEBBhxsLoKJC97xGzqfNBGopJmjVEdfmPFBTQVIjqzDP7pcLAO23QBhVTFXe0U84a0uub9fl6oLq0sle2MNBLT18vRBKCCw3CC9rQ1BlAQEBAQEBAQEBAQEBAQEBAQEBAQEBAQEBAQEBAQEBAQEBAQYLwOiDWqX7WBQTpnOqICKhgLTsCfEIKYW/gyodHMfxUnwvPgfIoDMIgiqRUsls0HUG+X2oJT2qJ9TegFgUF0UIAQWgACwQEBAQEBAQEBAQEBAQEBAQEBBhwuLIKXw73AsUDQ57tbzuguYwNCDKAgICAgICAgICAgICATYXQVPltt+hBTJUXGyDBpYe7EtXLpB6C9kGO5fhv8Ypnl8J3ewm9vUILRBRd6MRba5GxHQ+vzQQDTPKZCOpQbEcYA6IJoCAgICAgICAgIOHzxw8yFxNwT+DXEbJeFY9hxlbJ7DjFBHUw6x0dokBFxc2NvFB8ur+WbkZoMxS5XqOXHh77dDDFNPTtyxRl8cchcGPc3RcNcWPAJ2JY63QoOLxLgp2f+HZ3p+HZ5fuHL8ZqqGSsp8Pblyj76SnjfHHJKGaLljXyxNLrWBe0eKD7flzLGXcoYRT5fyrglLh1BSQMhpaOjhEcUMbGhrWMa3ZrQAAANgBZBvICAgICAgICAgICAgICAgICAgw74Sg1ajUx4e3qOiCU4qpTHUULwL7Pa7pZBKpNFI4QVWkut4jp9vggqeJI391FVPc3yJ6fagnBBY3KDYa3SLIMoCAgICAgICAgICAgICAgICAgICAgICAgICAgICAgICAgICCErtIQU3llv3beiDVqJiwkPBB9QgtrYparDGey72AJDfHZBPDzPUUhir4thtd4tqCCqKnAcWx30392/kg2oodPRBcBYWQEBAQEBAQEBAQEBAQEBAQEBAQECwPUIFgOgQEBAQEBAQEBAQEBAQEBBGRwt1Qa4qBFNdzbjp6hBDEqSQsM9OCfymhBmtp/wAJ0rJaZ4uNwD4+YQZo4JaWgdFU+N7Nvf7EFdPT7W8EG3FEGhBYgICAgICAgICAgiZAEHznmt5jMucq3ArGeOubqDEKrDcFdTiphwmi9oqHd9PHA3THcarPkaTvsLnwQeV3NT2oPB7iNxMw3mx5eMQ4hZf4p5dwpuGxQYhlB78IzDhrZHy/g+uibNcN1ySObK33mud5hrmB+97IfiXwm4u8w2M8T845kzvmnjTj2XZKjMeL49gposKw3DhU098Pom6yNIldCd2tuI/dawB2oPVxAQEBAQEBAQEBAQEBAQEBAQEBAQUzx3FkEaN5aTC75hBQKYtmcHG5vu4oNiKADwQXNaG9EGUBAQEBAQEBAQEBAQEBAQEBAQEBAQEBAQEBAQEBAQEBAQEBAQVTg2KCFJISHQarG12lBGCT24Phq6SxYbE+BPogR0stG0mjlDmddEh6fIoIunnqBpI0jxAQXQw6QguAtsEBAQEBAQEBAQEBAQEBAQEBAQEBAQEBAQEBAQEBAQEBAQEBAQVSy6fFBTJUHoRbyugjRuZLVWO+lpIQVuxSamxB8dQ38XewAHQeBQXVMLqZ/tFLKWaz7zPAnzQYaJZyDI4lBsRRgILEBAQEBAQEBAQEBBrtaZ3OGu1kGu9jH1ApKqMEOPRwuCg6Uc3nNFjHK72j2UsD4r58p8tcIs18PJ4qKWsoYmUX8IYanUXS1GjVGO4cxti4Mu8EjxQcdy+c4mZuajtEs35Z4LZygxrhZl3I9EyaXD6ON1GzHH1TXaoqhrA6QOgEg+MtJjcQNroO/ANxdAQEBAQEBAQEBAQEBAQEBAQEBAQYc3ULIKzFZ1xsUBkQHQfagtAAFggICAgICAgICAgICAgIFwOpQY1tQY7weSCQIPRAQEBAQEBAQEBAQEBAQEBAQEBAQEEZG3CDVeHQyiRo6FBbWulMAMLrB3xHxsgop4XBmgOOk9RdBsxQhvRBaAALBAQEBAQEBAQEBAQEBAQEBAQEBAQEBAQEBAQEBAQEBAQEBAQEB3Q/JBrTOa2QF4uAdwglV1FNEGtqWXY/o61wCgpdhz45G1VBKNt9LuhHzQWOqodQNTSESDpdoP3FBEufUyanCwHQINiKMAdEE0BAQEBAQEBAQEBAQaUcFRKe9ieG6ehPiUFkEsGIaS4ASROuQD0/uQdIe064z5rz5xowLkU4S8v+S895kxbL78x4i3iJS97hWGUEcphZUFlwXPMmpoc0gtNrB2o6Q4nkA44Zt4acY8V5MeKnLjkjh9mbAsIhx+iHDiBseE4zh8swp3VDWXc5sjZNLXOcSXG+zdI1B38ZfSgygICAgICAgICAgICAgICAgICAgICAgICAgICAgICAgICAgICCqWS2/wByCqd0sTQ9+wP6EGI3F0Dpy7obAIJxT38UF7XBwQZQEBAQEBAQEBAQEBAQEBAQEBAQEFUsQcgjofoEZPugoLI4wB02QTQEBAQEBAQEBAQEBAQEC4HUoMam+aAHA9CgygICAgICAgICAgICAgICAgICAgICDXqYyQgUwZPD3EzA4NIIBQVTVdQ6otEdDWG1j4/NBIiSocHSeHQBBfFEGhBYgICAgICAgICAgICAg1JmyT4WPZtyQLgePmg06alqo2uq23Z3bS7cdbeCDzT52ePXLZzMc3+B1HAnnHw3hpxFypkiWppuJVNjGGVmBVlC+q7p+E1Dn1ID6gPvMIi0gMJcQ6zQ0N/s9qrhJgvOTmGgzBzQS8bOLGLZOp67FM4YWyl/A9DhkdW2MUEAp5nhkokdHI5mkCxYQGkuuHpoBYWQEBAQEBAQEBAQEBAQEBAQEBAQEBAQEBAQEBAQEBAQEBAQEBBhxsEGrUv8AUGYqg2FPXMIDxZjnDr6fNBKOjbDTyU7pPdc67SfD0QYFEIm6u/2HiQgsiJ23QWoCAgICAgICAgICAgICAgICAgICAgWHkEBAQEBAQEBAQEBAQEBAQYcbC6Cp8pvZu5QVe0FzrDqegQWGQxv0PO9kFrHhwQSQEBAQEBAQEBAQEBAQEBAQEBAQEEZG6ggoa0wyh46eIQZ7vvJDIW2uguZGANwgkgICAgICAgICAgICAgINad7qQNmpgCx53b4fMIPyPHvitR8HeCObOLmL0kklHljL1XilZFDbW+KCF0r2i/iWtKDy54vcLOzcyXwIwXtHM78q8ntOeMDp6PLnCulqoxS4jWVUz6iKfTGzUKgxg6nglrY7gRuda4fYezI4g8FcucY8w8KXci1HwSz/R4XSYjXYUJm1bsRwuV4bHKyo0tcA2RzQ6M7BzhuXBwYHo4gICAgICAgICAgICAgICAgICAgICAgICAgICAgICAgICAgIMFwCCmaew6oKadzZaoNdY2F7INfFp5pKgwO2a0+6PP1QbNJNJ7OIcQZs5vuud4j1QQhhaHERg6b7XQbkTLBBNAQEBAQEBAQEBAQEBAQEBAQEBAQEBAQEBAQEBAQEBAQEBAQEEJXWCDWbVtgk1PGx2J8kGaim1yMrKUg+8C4DxHmEEqmmnkn7yOxbbzQZjbLHYSC32oL2m4QZQEBAQEBAQEBAQEBAQEBAQEBAQEGCxpQAwDdBlAQEBAQEBAQEBAQEBAQRe/Sg15nskDYIR7reiDiuIHD7LnFHh/jfDTN1IZ8KzBhNRh2JQhxBfBNG6N7bjpdrjug6O8HexVzrk/ijkfE+N3NxW57yLwrmfLw4yhWYFHTewu1B0Rnla898Yi1hHugkxstpYO7Ifb8ucjOM03PdmPnDxzPtFVUVfkyky1gOBU9CWvo6aOaOeV0kpcRI50zCRZrbB1je1yHZJAQEBAQEBAQEBAQEGC5o8UDWPIoAcD0QZQEBAQEBAQEBAQEBAQEBAQEBAJtuUEHygeNkFEtQPAoMRNiMLqmod7gQImUlUO/oXBr2dP3EIMirpJnfj4PfabWLb2PzQJHuqXjazR0CC2KIAILQLbBAQEBAQEBAQEBAQEBAQEBAQEBAQEBAQEBAQEBAQEBAQEBAQEGHODUGvPP4BBhjo6alNY9tz4fqQalFiL4JiHN/FuNy1v1fkg3Kp0jdM9PUkB31eoPyQIu8kdrkN0Gw0WCDKAgICAgICAgICAgICAgICAgICAgICAgICAgICAgICAgICAgINeofYIMww28EF4FhZB0S7T7nM5meGvF2p4DcsWE5chrsA4U4lxBzLjOaXSmOPC6Mva6Gmjjt3k7nMIAdcDU2+kXcA5Ll250+JOdOYzAOA2M4TQvixPgng2dpMQonSa2VVRLFFNTvaXFrQdeto66fNB3bQEBAQEBAQEBAQEEZHWCClxle0ujbcBBXBI6eTu2uHqgsbNZ5YT0NkFzJA7qgkgICAgICAgICAgICAgICAgdEFUs2kblBrTSODRI9rtN+oQXupaeYCWx06egQUUUtPW0r6BziCLgX6kX2KDNBhzqCR00kwI022QGsEszpA34jdBsxRABBYBbYICAgICAgICAgICAgICBceaDGoeaDKAgICAgICAgICAgICAgICAgICASB1QVvmA8UFEk5cdLepKDLqFrxpkms4+AQGNZBF7FWEFpvpcdgR5ehQIaeiobyMdqcelzcoIxxFzr6QBe9gg2Y4w0XQTQEBAQEBAQEBAQEBAQEBAQEBAQEBAQEBAQEBAQEBAQEBAQEBBF7wBZBqykyyCNp6lBtgABBlB55dt5JyV4jimU8ucaqTPkvEKtoquly3FwqY1+N1FDI3TUQyMf+LkpXAlpa+5N3hgP4xBr9j1hPJTQVOP4/wAFcYz3iecInUeH5x/5UmNjxvDmRtLaanMbbsjgswhoYXfyYDj7jWtD0VQEBAQEBAQEBAQEFM79iboKIqmSElxYTGPiIHRBc2mYaltZA4WcDqA8fVBE0JdI6Rs+ziTayCTBodo13t1sguabgFBlAQEBAQEBAQEBAQEBAQEGHnZBrholnDHdOpQU4hJVzPNHTQnSB7xt1QYjlxWjDX1LA+Jos6xuR6oLn0VDUO9tDrXF9TXW/wCCgrjZJIbOkc4X21G6DZiisOiC1AQEBAQEBAQEBAQEBAQVySW8UFT6gtO4IQZEru7EpGxNggsjlBCCwG+4QEBAQEBAQEBAQEBAQEBAQEGHO0hBRNPbxQQgaKouBksQNggrfEaOaGWeZu77EeSCOLUNVLUCogBcLDYdWlBfUse6hYyo3ftf5oIwQemyDZZGG+CCaAgICAgICAgICAgICAgICAgICAgICAgICAgICAgICAgICAgwSB1KCD5gAgpL5JnaIxdBDuammnbO9oLAfe0noEG6g+cc2WJcfcH4D41ifLDkrD8xZ3idT/gfBsUrRTwVAM8bZtUhc3TphMjx7wuWgeNkHm1jOSu2Jo+ayk5t8ycn2RG41RZHly3FSV2cIzTsgdUmoNQCarU2TdzLg20EghB9U5M+C3Opm/nmxjma5nOFGWsnQ4nw/gwRkOW8ajqo8QmjrI5o532lkcXiMOZqJtpDQEHowgICAgICAgICAghJKAOqDUqJ7i5OyCWJTSUlK1kItq2LkFGFz1EV/cLoh8X9H1QXTxw9/rpjud3ael0F0ERA6ILxsLICAgICAgICAgICAgICAgwSAEFUswHUoKO9LZO8adwgzLiUrW2ZAL+ZN0FlI+pMD5K21j0FrbINeng2sAg3Iog0ILEBAQEBAQEBAQEBAQEBBhxsCg1p5NLgQL280GXiLEYSYnWeP0FBgQ1L6Bkemz2u3BPqUCOKoj3cy3nugvidf7UE0BAQEBAQEBAQEBAQEBAQEFU77AoK4xHHEaufoOl0GmzECKwzw0ZILbaW9fmg2SKbGafS4aZGeHi0/uQGNraGJrHTteOgBG4QSaJJna5DfyQbEbAB0QSQEBAQEBAQEBAQEBAQCbC6Ct81vFBWahvmgm2Xe17ehQWAghBlAQEBAQEBAQEBAQEBAQEBAQRc8NQUSz22CCEsFVcAMvceB6IM0plNFIYm/jQSLHzQU4TXVUlQaeclwsdyN2lByKAg81e1jouHGfufbh5we5yOJFflngtXZHqq+iP4SfQ0GJ49HPpMFTOBZoZD3bwSRpLgAW6zcOH7NmPh5kfndzzwQ5L+JOI5k4PUWVqHEJRJijq+iwrHX1Okw0s5FnNfBre4gnUW2JdoFg9QkBAQEBAQEBBFzw1BVJUAeKCphNTLov4XPyQSLMMmkNNqGvp1PVBl00cP8UrBqbb3XEXuPX1QHTRCPuaVlgfECyDMMNvBBe1ukWQZQEBAQEBAQEBAQEBAQCQOqCJkAQVTTgDqgrYIu6dVVLvcCDM8cHcCeO7b9AfFBXGXNeHM6hBa8yzmzth5BBZFEAOiC1AQEBAQEBAQEBAQEBAQCQNygqmlAHVBTAxtRMdfQC5CDVq68trO8pWhujYn8r5oN6OcVtN3kEvduHX0+fogqZLUSgMkffzsEGzE23VBNAQEBAQEBAQEBAQEBAQEGHODUFE7wRa6CMc8Bh7mobdvqLoIuxKKIiGlpi7ewA2QZro9E7J4vdeQbkeIQZY2SZ2uRxPzQbDIwB0QSQEBAQEBAQEBAQEBAQEEJXWCCqF0MjjHINz0ugraySnrmMeLscTpdb0QYle9tS4aSN9jZBdDLqGyC8G4ugICAgICAgICAgICAgICAgE2F0GtM9xOhvUoK61lPT05Esv4wi4sglR4nSyNjgMx1ltve80FUdPX0NYTADLHIbm5/wCN0F4rQb6Kctd0N0Gyg+c82OMcesA4EYzi/LLkOjzPnWF1P+B8Dr69tLDUh08bZtUrnNDdMRkeNxcsA8bIPNPirzF9opxT4sDk846dnhw5zDj0mW/4TRZczHj0FTAaJs5p/aGvkmMYeJLiwcHgG9rboPqvZ88d+K2QuYfEOUDiXylZL4UVdFlWLM2H4ZkeWGSGohdVtpXvlMT3NLy5wsSdXum+xCD0dQEBAQEBAQQkfpCDXkle86WAnbwCBTMhq4HNDiHA7nyQQbLT0OI9xqcA9ljq6AoIzYM99V30MoDS6+/UfJBdWaZZWsG5be6CcMAA6ILmtDeiDKAgICAgICAgICAgICAgrlk073QUztmjj709PG3ggg2kqJ2a7ht+l+qCymbpZ7FWNaSDdvk4XugyaZ7qj2mqmBaw+4wdAgjGGvkL2tsCdkGw1gtugkgICAgICAgICAgICAgIIukAQVSzgeKCDIXzjW52lvggRwPoZDNr1Rke/tuPX1QYdh9BLL7T3mxNyA4WKBLollvE2wAtceKC2GGwQXAWFkBAQEBAQEBAQEBAQEBAJA6lBEvAGyCiaUk6W7koHsl9nzDURsEFMjHRvMbxv+tBZTOhiBeYvf8AAoM6XzSa5B8h5INiNgA6IJICAgICAgICAgICAgICDBcAgoqJRayCswQtpzPUPIuPdt1CBh+INqLQT/GPhJ8f70FstVNBJpfAC0/C4OQGSOldrcLDwCC5osEGUBAQEBAQEBAQEBAQEBAQRe4AW+9Br94GTte7oDugzUUdFNL7TUS3FuhdsggyDC6xrooI23b9ZrbEfagxT1lQ2PungOI2DkFkURJ1O6lBsoIzTRU8Tp55A1jRdzj0CDpX2mvB3hVn3GcucyeXOa+Pg5nzJsM9Jhud6gwmkqKSTd9JPHM9jZm3uWi5sXu919wAHxPswM1cB8f5sM04hh/Mnj/GzidieAMlx7O8mWX4fhFDQQTwsbQ07XkEudJK192t0OEJLdNjrD1CQEBAQEBAQa9S4gdUEamU0EAEMep7tr2Qa0DMaYHSRxgajch1uvyQbGmmxaLTOwtkYfeHQt/uQRfE6B4hhqHloHQu6ILYYbb2QXtFggygICAgICAgICAgICAgEgdUEXSADZBrVEgOyCumxNsTxDUbNPwuPggYw2uaW1NPM7u2jcNNrevqgnMXVWGxySts82I+fmgxFHK8APe53zN0GzFEGjogsQEBAQEBAQEBAQEBAQEFcsoaN0GuZe8kDNYFza5QJ6KUBzmyANAuNRQYmjfXYWz2Y7gA2v1t4IGEMqYoXsqWkNHw6v0/YgrgpwD7oQbkUIAQWgACwQEBAQEBAQEBAQEBAQEGCbC6Cp8jtWlouUFD53l2gXv5eKCF5oJ2TTRODA7c+XqUGzNF3Ln1kMRkkcAGi+wQVezvZCZal95XHw/UgshjBHRBc2MDqgkgICAgICAgICAgICAgIIukA6IKJZ97N3ugrlpat7SWMF/IndBOWH2+jbGHaHttcHwPkUEIcNZBEX1L7m22k9P70GW95OQZHXt0QbMcYA6IJoCAgICAgICAgICAgICAgi94aOqDXL5JXaIxdBCWGWIapG7eYQVmKORwDzYHqbINhoho4+7p93HqUGIIbbkINlrQ0IMoPyXHzKGd+IHA/N+RuGmZm4LmPF8t1tHgGMPJAoa2SFzYZzYE2ZIWu2BPu9EHjzxX5CuYvgVw4zh/zp+RrMfGjNdfl3EKXA+LeAZ+qsadRVclPI2GY4c8NkDWSOY/UWHSG7XKDt32QnNxy6Zh4N5S5cciV0Eedsr5QpGZsy1VYLNR1VJPC2KGeY642tkvK9oLgSbvF7EoO/CAgICAgIIPkAHVBrzvDuhQZFe6NlnRarDrdBGmqq2pqBZjWxj4tkGKljX1ZezraxI80FsEFtyEF7WhqDKAgICAgICAgICAgICAgqmk03KCmo72JneOGx6+iCNF3c+uV+4Z4IFPidLXvNLLBYO+EO3B/cgzDIaGY0chLo7XjJ3IHkglI91S4WFmjoEF0UYAQWICAgICAgICAgICAgICCMhsEGuGGeXQTsOqDWxKrpmuEMMVyx3xDx9PVBfFiUFY40tRCWaxsHeKCMNBV0L3up6hpj6hrkE+/nqBpdYDxAQWwxBo6ILgLbBAQEBAQEBAQEBAQEBAQLgdSghI8W2Qarqo079YFx4hBe10MrDWU0Ye/Ttv+hBq4dis1TUGlqYgCbgWHQjwKCRlqKaodBG67AfdDhe3ogsa2SZ2uQ3QbEbbC6CSAgICAgICAgICAgICDBIHVBVLMG+KCp3fSxulaDYeHmgjSteKtrZ2abtLm38UFNZiFdTV5B+EHZttiEGxXBwdHPC4scdjbxHqgwxkktjI4n5lBsRxAILEBAQEBAQEBAQEBAQEBBF79KCl9QB4oKZqnbcoJ0jnzUbzTuAeTa58EGJJ37YdA8ySWtI8+CB3Pdyd2SDbxQXMhHkgtawNQZQEBAIBFiLhBwruG/D5+bP4enJGFfhz2Q0v4YFBGKruC5rjF3oGvQXMY4tvYlrTbYIOaQEBAQYL2hBCSUW6oKW3qJdANh1JQSZHST6o4XG7DYuF+qDX2uWgg2NrjxQXtmm7oRtaB6hBmKHSbkboLwAAgygICAgICAgICAgICAgIIukA6INepeLWugnTvIptVU5oadm6vJBSxhwqdzjcwSeP5B9fRBllDhzJhWMkHW4aHC10GX/xmbWBtawQXxRABBYBbYICAgICAgICAgICAgICATbcoKpXi3VBTDOIpSXdD1KA6pw+mJkjjBcfyW7/AKUGXujr6F0skWm1y2/mEEI31ErBG+QkIL4oQ0dEFwAAsEBAQEBAQEBAQEBAQEBBhxsLoKnyEmzdyg15ai+xKCUkdHTxh1c7d3Qb/sQYMLaNvt2Huuw7vjvcEeY9UFrXURd7cxo1ubb1QQjYZXmR3jug2WMAF7IJICAgICAgICAgICAgICCqeSwJQVMha9hnqH2b80FNJX01O+Rj6glt7suOqCeIQVEpZXUUpcWjZo/WEExVghvtdGQ+1xsCEBxfUv1OFgOgQXxxgBBNAQEBAQEBAQEBAQEBAQCbblBRO+w6oIxGCqiMF9LwP+CghPVUuFhsToy5zhubdUEnyMZD+EKMAg21t6ahf9aA2v1tvHDYnxKCULHX1u3JQXgWFkGUBAQEBAQEBAQRebBBSRLKCY/BBSxs9S4tYOhsS7wQShinoqjvZiDG4WLh9X5+iCyellewQUrmxscSZCOpQRlZCzRBEPh6lBdHHsgsAA6ICAgICAgICAgICAgICAghK/T9iCkMmmBc028r+KDVqpJITpkYQfVBdVwHEcPZ7M4G1iG367dEE6BlTFSFmIW0jYajc29UFUMDC8ljbAnYeSDaiiACC3ogICAgICAgICAgICAgIMFzR4oK5pg0IKmRPnb3jn6W+aCM9O+CxJu0+KCETIe8BljuEF0shmAjjbZoQWQxADogtAtsEBAQEBAQEBAQEBAQEBAQQkeLbINZtQ6KYaW6rm1h1QMSonyN7+mHvjq3zQYqaePF6ZksT9Lm+fgfEFBKnp3UNC6GV4JdewHhdBGCnFuiDajjACCaAgICAgICAgICAgICAgwSAEGvUG4sCgk+GOtp2x94QBa4CCoU+ERPEDg1znG25uf7kGG6sOnMMQ1RuFw0n4UEyX1L9ThYDoEF8cQAQTQEBAQEBAQEBAQEBAQEEXv0oKpKgDxQU3fUSaGdf1ID8KffvIavTI3cHSgzaPEYzSVjNEzOtv1j0QZdEylpBRtdc+JQSgg8SEGw1gagygICD//Z;" vertex="1" parent="FV-xaeg1GRg3uDKNsEzi-31">
          <mxGeometry x="800" y="755.07" width="50" height="50" as="geometry" />
        </mxCell>
        <mxCell id="FV-xaeg1GRg3uDKNsEzi-116" value="&lt;b&gt;Kitchen&lt;/b&gt;" style="text;html=1;strokeColor=none;fillColor=none;align=center;verticalAlign=middle;whiteSpace=wrap;rounded=0;fontSize=16;" vertex="1" parent="FV-xaeg1GRg3uDKNsEzi-31">
          <mxGeometry x="860" y="735" width="60" height="30" as="geometry" />
        </mxCell>
        <mxCell id="FV-xaeg1GRg3uDKNsEzi-117" value="&lt;font style=&quot;font-size: 12px;&quot;&gt;17.4%&lt;/font&gt;" style="text;html=1;strokeColor=none;fillColor=none;align=center;verticalAlign=middle;whiteSpace=wrap;rounded=0;fontSize=16;" vertex="1" parent="FV-xaeg1GRg3uDKNsEzi-31">
          <mxGeometry x="855" y="754.92" width="60" height="30" as="geometry" />
        </mxCell>
        <mxCell id="FV-xaeg1GRg3uDKNsEzi-118" value="" style="swimlane;startSize=0;fontSize=16;" vertex="1" parent="FV-xaeg1GRg3uDKNsEzi-31">
          <mxGeometry x="588.75" y="495" width="522.5" height="340" as="geometry" />
        </mxCell>
      </root>
    </mxGraphModel>
  </diagram>
</mxfile>
